<?xml version="1.0" standalone="no"?>
<!DOCTYPE svg PUBLIC "-//W3C//DTD SVG 20010904//EN"
 "http://www.w3.org/TR/2001/REC-SVG-20010904/DTD/svg10.dtd">
<svg version="1.0" xmlns="http://www.w3.org/2000/svg"
 width="612.000000pt" height="612.000000pt" viewBox="0 0 612.000000 612.000000"
 preserveAspectRatio="xMidYMid meet">

<g transform="translate(0.000000,612.000000) scale(0.100000,-0.100000)"
fill="#000000" stroke="none">
<path d="M2985 4850 c-22 -5 -59 -9 -82 -9 -72 -1 -306 -122 -432 -223 -341
-271 -574 -662 -721 -1203 -67 -250 -87 -508 -56 -726 33 -231 92 -438 171
-604 57 -119 209 -347 288 -431 123 -133 344 -277 502 -328 176 -56 495 -76
682 -42 287 52 572 237 782 506 42 53 179 314 208 395 27 75 81 300 92 380 43
320 20 667 -63 943 -12 42 -33 113 -45 157 -12 44 -37 112 -56 150 -19 39 -53
113 -78 165 -61 132 -119 229 -180 301 -29 33 -65 77 -80 97 -44 58 -149 162
-214 213 -104 82 -250 179 -305 203 -105 46 -324 76 -413 56z m125 -30 c0 -7
13 -8 35 -4 28 5 35 3 35 -10 0 -13 4 -15 19 -6 25 13 34 13 26 0 -3 -5 -1
-10 4 -10 6 0 11 -7 11 -15 0 -8 6 -15 14 -15 9 0 12 7 9 20 -7 28 16 25 26
-2 8 -20 10 -21 16 -6 9 22 26 13 18 -8 -5 -14 -3 -14 14 -6 17 9 19 8 19 -10
-1 -15 7 -23 26 -29 16 -4 30 -3 34 2 8 14 24 11 24 -6 0 -8 -6 -15 -13 -15
-22 0 -51 -26 -43 -39 6 -9 11 -8 20 5 9 12 22 15 44 12 23 -3 32 -1 32 10 0
7 6 12 13 9 6 -2 11 -16 9 -31 -2 -16 1 -25 6 -22 14 8 21 -28 10 -48 -6 -10
-5 -16 1 -16 14 0 34 39 27 55 -7 19 5 27 21 14 11 -10 11 -16 -2 -36 -15 -23
-15 -23 10 -17 30 7 35 -12 5 -21 -26 -8 -26 -25 0 -25 12 0 26 -12 35 -31 9
-17 19 -28 22 -25 4 3 12 -3 20 -14 18 -26 33 -26 33 0 0 12 -10 24 -22 30
-13 5 -18 9 -11 9 6 1 18 4 27 7 12 5 16 -1 16 -24 0 -17 5 -34 10 -37 17 -11
11 -25 -21 -44 -24 -15 -27 -20 -14 -25 27 -10 38 -7 31 9 -4 11 1 15 19 15
13 0 27 5 30 10 9 15 25 12 25 -5 0 -8 -7 -15 -15 -15 -18 0 -19 -12 -3 -28
16 -16 28 -15 28 3 0 8 5 15 11 15 6 0 8 -7 5 -17 -4 -9 -1 -20 5 -24 7 -4 9
-14 6 -22 -5 -13 -10 -14 -31 -4 -14 7 -27 20 -30 29 -5 20 -37 25 -34 6 2 -7
14 -23 27 -36 17 -17 21 -26 12 -35 -18 -18 -13 -22 34 -23 42 -1 60 9 33 18
-7 3 -9 12 -5 22 7 17 9 16 32 -8 30 -33 35 -33 36 2 1 24 2 23 8 -8 8 -41 -2
-59 -23 -41 -11 9 -16 9 -21 0 -5 -7 -22 -9 -46 -6 -44 6 -60 -8 -33 -28 23
-18 61 -19 66 -3 4 12 28 3 28 -10 0 -12 -56 -42 -79 -42 -25 0 -27 -12 -6
-30 12 -10 18 -10 32 1 13 11 17 11 20 2 7 -21 17 -15 31 16 9 21 18 28 32 24
16 -4 20 0 20 17 0 16 -4 20 -16 16 -10 -4 -14 -1 -12 6 6 17 29 21 48 8 13
-8 13 -11 1 -19 -11 -7 -11 -10 2 -17 8 -5 17 -20 19 -34 l3 -25 13 22 c10 18
9 24 -4 37 -8 9 -12 20 -9 26 12 20 22 9 32 -35 8 -33 7 -45 -1 -45 -7 0 -12
-9 -13 -21 -2 -17 1 -19 13 -8 13 10 17 10 25 -2 13 -21 11 -32 -6 -25 -8 3
-15 1 -15 -4 0 -11 58 -40 82 -40 11 0 16 -5 13 -10 -4 -6 -15 -8 -26 -5 -20
7 -27 -9 -9 -20 16 -10 12 -35 -6 -35 -9 0 -14 -6 -11 -12 2 -7 -3 -18 -11
-24 -13 -9 -13 -16 -1 -50 8 -21 14 -45 14 -53 0 -23 22 -24 28 -1 6 25 -2 60
-15 60 -11 0 -1 40 14 55 6 7 9 3 8 -10 -4 -39 0 -55 15 -55 8 0 15 7 15 15 0
23 13 18 35 -15 11 -16 23 -30 28 -30 4 0 7 -4 7 -10 0 -21 -31 -9 -40 15 -11
30 -30 33 -37 5 -3 -11 -9 -20 -14 -20 -5 0 -9 -7 -9 -16 0 -13 3 -14 14 -5
11 9 16 9 22 0 4 -7 0 -17 -9 -24 -23 -17 -21 -50 5 -75 l22 -20 -22 -21 c-12
-11 -19 -25 -16 -31 5 -8 11 -6 18 4 6 8 21 20 33 27 14 7 20 17 16 27 -3 8 2
21 13 29 18 13 18 14 -6 23 -30 11 -41 7 -33 -13 6 -18 -8 -20 -25 -3 -16 16
-15 28 3 28 9 0 18 7 21 15 4 8 15 15 26 15 14 0 18 -5 14 -15 -7 -19 4 -19
32 1 12 8 22 11 22 5 0 -5 -4 -12 -9 -16 -6 -3 -17 -19 -25 -36 -15 -29 -14
-31 4 -36 11 -3 21 -8 21 -12 7 -32 5 -70 -3 -88 -12 -25 3 -53 29 -53 11 0
12 -8 7 -35 -5 -26 -3 -35 7 -36 8 -1 3 -4 -10 -8 -35 -9 -41 -34 -7 -25 24 6
26 4 20 -23 -4 -21 -1 -33 12 -44 13 -11 18 -11 21 -1 3 6 14 12 25 12 15 0
18 -5 13 -22 -18 -61 -30 -78 -55 -77 -20 0 -21 2 -7 7 18 8 51 61 42 70 -2 3
-17 -9 -33 -26 -16 -17 -32 -28 -36 -25 -3 3 -6 1 -6 -7 0 -9 -3 -10 -13 -2
-10 8 -16 6 -25 -9 -10 -16 -10 -20 3 -25 8 -4 22 -4 30 -1 8 4 17 2 20 -2 2
-5 -4 -11 -15 -14 -11 -3 -20 -10 -20 -17 0 -13 57 -4 77 12 7 5 17 7 22 4 12
-8 3 -36 -11 -36 -5 0 -17 -7 -25 -16 -13 -12 -13 -15 -2 -14 36 5 50 -2 64
-37 18 -42 13 -67 -13 -61 -9 3 -30 -3 -47 -12 -22 -12 -30 -24 -31 -49 -2
-36 19 -39 24 -3 2 12 10 22 18 22 18 0 18 -8 -1 -26 -8 -9 -15 -24 -15 -35 0
-16 -5 -19 -20 -14 -15 5 -18 3 -14 -9 5 -12 -1 -16 -24 -16 -17 0 -33 -6 -35
-12 -4 -10 -8 -10 -15 1 -11 16 -32 6 -32 -15 0 -14 14 -15 122 -5 4 1 10 10
13 21 3 11 11 20 17 20 6 0 5 -7 -3 -17 -13 -15 -12 -16 9 -11 17 5 22 2 22
-13 0 -10 -7 -19 -15 -19 -8 0 -15 -9 -15 -21 0 -11 -4 -17 -10 -14 -6 4 -8
15 -5 26 5 14 3 17 -9 13 -11 -4 -16 -19 -16 -45 0 -22 -5 -39 -11 -39 -7 0
-9 10 -5 25 8 30 -3 32 -33 6 -13 -11 -28 -22 -34 -24 -6 -2 -7 -8 -3 -15 5
-9 12 -9 26 0 15 10 22 10 32 0 9 -9 6 -18 -15 -40 -31 -32 -34 -42 -12 -42 8
0 15 7 15 16 0 10 7 14 23 12 16 -2 22 2 22 15 0 10 8 23 18 28 14 8 17 6 17
-15 0 -15 8 -30 19 -35 19 -11 26 -57 10 -67 -5 -3 -9 2 -9 11 0 9 -15 22 -35
31 -43 18 -45 17 -45 -1 0 -9 -9 -15 -21 -15 -13 0 -23 -8 -26 -21 -5 -17 -11
-20 -34 -15 -32 6 -36 1 -15 -20 20 -19 56 -18 72 4 12 16 13 16 20 -2 4 -10
3 -21 -3 -25 -5 -3 -7 -17 -3 -30 l6 -24 18 27 c9 15 15 34 12 42 -3 9 -1 12
4 9 6 -3 10 1 10 9 0 18 26 22 32 5 3 -9 10 -9 27 0 18 10 25 10 35 0 8 -9 8
-10 -1 -5 -6 3 -14 2 -18 -4 -3 -5 -15 -10 -26 -10 -22 0 -25 -20 -6 -39 10
-11 6 -12 -23 -7 l-35 7 23 -20 23 -20 -23 -23 c-20 -20 -21 -23 -5 -26 23 -5
22 -22 -2 -22 -11 0 -22 -8 -24 -17 -4 -14 -5 -12 -6 5 -1 13 -7 22 -17 22
-11 0 -15 -6 -11 -20 3 -13 0 -20 -8 -20 -21 0 -26 16 -15 45 7 19 15 25 26
21 19 -7 44 10 44 31 0 22 -50 8 -74 -20 -10 -12 -28 -22 -39 -22 -16 0 -21
-6 -20 -22 1 -32 2 -36 12 -52 8 -12 13 -12 24 -3 11 9 22 10 41 2 27 -10 27
-30 0 -30 -8 0 -14 -6 -14 -12 0 -8 -3 -9 -8 -3 -10 15 -104 17 -99 2 2 -7 21
-11 45 -10 40 2 41 1 31 -23 -5 -14 -7 -30 -3 -35 7 -12 34 -12 34 1 0 6 -4
10 -10 10 -5 0 -10 5 -10 10 0 6 9 10 20 10 21 0 46 -35 31 -44 -11 -7 -3 -46
9 -46 5 0 11 6 13 13 3 6 6 2 6 -10 1 -15 -3 -21 -13 -17 -8 3 -17 1 -21 -5
-9 -15 -26 -14 -23 2 2 7 -3 19 -10 27 -7 8 -19 24 -27 35 -21 31 -29 10 -10
-27 39 -73 39 -78 3 -78 -27 0 -62 -35 -54 -55 8 -22 30 -14 34 13 2 12 10 22
17 22 27 0 25 -18 -5 -50 -31 -33 -38 -50 -20 -50 14 0 13 -27 -1 -32 -7 -2
-10 -9 -8 -14 6 -15 71 4 66 19 -2 7 -11 11 -19 9 -26 -4 -29 26 -6 48 12 11
25 20 30 20 4 0 8 8 8 18 0 9 5 24 10 32 8 11 10 7 8 -17 -1 -17 4 -38 11 -47
17 -21 7 -33 -13 -17 -23 19 -38 5 -24 -22 33 -65 34 -67 13 -67 -8 0 -12 -6
-9 -14 4 -11 0 -13 -18 -9 -13 4 -26 10 -29 16 -4 5 -15 5 -28 -2 -19 -11 -21
-9 -21 14 0 22 -3 25 -26 19 -20 -5 -25 -3 -22 7 3 8 17 14 31 14 28 0 30 4
20 30 -3 9 -12 14 -19 11 -8 -3 -14 -1 -14 5 0 6 -14 -4 -32 -22 -19 -22 -33
-29 -35 -21 -3 6 -9 12 -14 12 -5 0 -4 -9 3 -20 10 -16 10 -24 0 -40 -15 -24
-16 -43 -1 -34 8 5 8 1 0 -14 -15 -28 -14 -45 3 -39 12 5 66 -40 66 -55 0 -3
-11 -3 -25 0 -15 2 -25 0 -25 -7 0 -6 5 -11 10 -11 19 0 -55 -89 -74 -90 -16
0 -15 2 5 20 21 18 22 21 8 32 -21 18 -30 46 -16 51 9 3 9 8 -1 19 -10 13 -10
19 4 32 20 20 6 41 -31 49 -28 5 -34 -7 -8 -17 14 -6 14 -8 -5 -22 -26 -18
-46 -9 -39 17 6 22 -11 26 -19 4 -3 -8 4 -28 16 -45 12 -16 18 -35 15 -41 -4
-6 2 -13 14 -16 11 -3 27 -15 35 -28 14 -21 13 -24 -2 -29 -9 -4 -28 -13 -41
-21 -14 -7 -30 -11 -35 -7 -6 4 -2 8 9 10 28 6 45 21 45 43 0 26 -12 24 -40
-6 -29 -31 -66 -35 -50 -6 14 27 13 31 -8 31 -13 0 -18 -7 -18 -23 1 -17 -4
-21 -21 -19 -26 4 -31 -13 -7 -22 12 -5 15 -14 10 -36 -3 -17 -4 -30 -2 -30
20 0 36 16 36 35 0 18 4 22 20 18 23 -6 24 -8 10 -34 -8 -15 -7 -19 5 -19 8 0
15 -5 15 -11 0 -7 9 -9 21 -6 15 4 19 2 15 -10 -3 -8 -6 -19 -6 -25 0 -7 -5
-6 -14 1 -11 9 -16 9 -21 0 -4 -6 -4 -14 1 -18 15 -10 35 -62 29 -72 -11 -17
-22 -9 -22 17 0 24 -16 43 -37 44 -4 0 -6 -9 -3 -20 3 -11 1 -20 -4 -20 -5 0
-9 8 -9 18 0 9 -3 28 -6 42 -6 20 -4 23 6 13 19 -18 45 4 29 23 -9 11 -16 11
-40 -2 -29 -15 -38 -37 -19 -49 17 -11 11 -25 -11 -25 -15 0 -19 -4 -15 -16 4
-10 2 -14 -6 -10 -7 3 -21 9 -31 12 -15 5 -18 13 -13 35 4 22 2 29 -9 29 -8 0
-15 5 -15 12 0 9 -3 9 -12 0 -8 -8 -8 -15 1 -26 7 -8 11 -23 8 -33 -4 -14 -5
-14 -6 4 -1 25 -21 42 -21 19 0 -9 -7 -16 -15 -16 -17 0 -20 16 -5 25 12 8 13
45 1 45 -5 0 -11 -8 -15 -17 -15 -44 -64 -108 -84 -111 -12 -2 -22 -8 -22 -13
0 -5 -6 -9 -14 -9 -21 0 -30 -20 -16 -33 9 -9 16 -6 31 15 13 18 25 24 39 21
16 -4 19 -2 13 12 -4 13 -3 16 6 11 8 -5 14 -1 18 13 3 11 9 18 15 15 5 -3 6
-14 3 -25 -4 -13 -2 -19 9 -19 10 0 15 8 13 22 -1 16 4 23 18 25 11 1 14 0 8
-3 -15 -7 -17 -64 -3 -64 6 0 16 11 22 25 13 29 26 32 44 8 18 -24 18 -38 -1
-23 -8 6 -20 8 -26 4 -9 -5 -7 -11 7 -22 18 -13 17 -14 -9 -8 -26 6 -28 5 -25
-21 2 -16 8 -27 16 -26 16 4 15 -5 -2 -23 -19 -19 -26 -18 -26 4 0 24 -29 82
-40 82 -14 0 -24 -22 -13 -29 14 -9 -19 -36 -50 -39 -15 -1 -27 2 -27 8 0 5
-5 10 -11 10 -6 0 -8 -9 -4 -20 5 -14 2 -20 -9 -20 -11 0 -16 9 -16 26 l0 27
-25 -27 c-13 -14 -29 -26 -35 -26 -5 0 -10 -5 -10 -12 0 -6 -10 -22 -22 -35
-27 -29 -16 -43 13 -17 l22 19 -7 -29 c-6 -26 -5 -28 9 -16 21 18 30 6 10 -14
-21 -20 -51 -21 -59 -1 -8 22 -24 18 -31 -6 -6 -17 -9 -19 -16 -8 -5 8 -2 20
6 29 11 12 12 19 3 28 -8 8 -5 14 16 22 17 6 26 16 24 27 -4 24 -28 28 -28 5
0 -31 -45 -35 -61 -5 -7 13 -18 22 -25 19 -7 -3 -15 0 -18 7 -3 9 -8 8 -15 -3
-15 -21 -14 -30 4 -35 8 -3 22 -7 31 -10 13 -4 14 -8 5 -19 -15 -17 0 -29 24
-19 12 4 16 2 14 -6 -3 -7 -8 -12 -12 -12 -4 1 -15 1 -26 1 -11 0 -23 12 -31
30 -13 32 -37 40 -46 15 -4 -8 -13 -15 -22 -15 -12 0 -13 -3 -4 -12 7 -7 12
-20 12 -30 0 -10 5 -18 11 -18 7 0 9 10 7 25 -6 31 -1 31 27 1 26 -28 17 -36
-37 -36 -21 0 -31 6 -35 20 -3 11 -11 20 -18 20 -7 0 -18 7 -25 15 -19 23 -27
18 -28 -15 -1 -31 21 -42 32 -17 4 6 4 2 2 -10 -3 -16 2 -23 18 -25 11 -2 -4
-4 -35 -4 -45 0 -54 3 -41 12 15 11 11 46 -5 43 -40 -7 -12 37 29 45 33 7 30
19 -9 30 -15 5 -28 1 -43 -14 -19 -19 -24 -20 -51 -8 -16 7 -29 16 -29 20 0 5
-4 8 -10 8 -21 0 -9 -18 20 -30 28 -12 41 -30 21 -30 -5 0 -14 -13 -20 -30 -5
-16 -15 -30 -20 -30 -14 0 -14 13 1 28 16 16 -5 62 -28 62 -16 0 -15 -2 1 -20
16 -18 17 -23 5 -45 -9 -16 -17 -22 -23 -16 -5 5 -16 7 -23 4 -8 -3 -14 1 -14
8 0 11 -2 11 -9 0 -8 -12 -12 -12 -24 -2 -10 8 -17 9 -22 1 -4 -7 -13 -7 -28
1 -20 12 -37 15 -84 18 -20 1 -22 5 -16 51 4 35 2 50 -6 50 -6 0 -14 -7 -17
-15 -4 -8 -12 -15 -20 -15 -8 0 -14 -9 -14 -20 0 -11 5 -20 12 -20 6 0 9 -2 6
-5 -3 -3 -12 -3 -20 0 -19 8 -12 44 11 62 9 6 13 15 9 18 -13 13 -35 -3 -49
-34 -14 -31 -36 -45 -25 -15 4 12 2 15 -9 10 -19 -7 -20 18 -2 36 12 11 12 16
0 26 -11 11 -14 10 -20 -5 -11 -30 -53 -56 -53 -33 0 6 7 10 15 10 8 0 15 9
15 20 0 11 -4 20 -10 20 -5 0 -10 -5 -10 -11 0 -5 -5 -7 -10 -4 -6 4 -17 1
-25 -5 -12 -10 -15 -9 -15 6 0 11 -11 31 -23 45 -24 27 -57 44 -57 30 0 -5 7
-11 15 -15 8 -3 15 -10 15 -16 0 -8 -6 -8 -20 0 -11 6 -20 18 -20 28 0 14 -2
15 -10 2 -8 -12 -10 -12 -16 3 -3 9 -12 17 -20 17 -8 0 -14 10 -14 25 0 14 -4
25 -10 25 -5 0 -10 -7 -10 -16 0 -8 -5 -12 -10 -9 -6 4 -10 16 -8 28 2 15 -4
25 -19 32 -28 12 -30 25 -3 25 13 0 20 7 20 20 0 10 -9 24 -20 30 -22 12 -27
1 -8 -18 7 -7 9 -13 5 -13 -4 -1 -10 -2 -14 -3 -5 -1 -14 -5 -20 -9 -15 -9
-33 -1 -33 15 0 5 7 8 15 5 19 -8 29 10 11 20 -7 4 -15 17 -17 27 -4 19 -5 19
-22 2 -21 -22 -23 -21 -30 25 -4 28 -1 38 15 48 17 10 18 15 7 21 -7 5 -18 5
-25 0 -6 -6 -14 -7 -18 -3 -4 4 -11 1 -15 -6 -5 -8 -14 -10 -21 -6 -10 6 -9
10 4 17 20 11 21 28 0 28 -8 0 -12 5 -9 10 4 6 4 18 1 26 -5 12 -10 13 -27 3
-17 -9 -23 -8 -30 2 -11 18 -11 32 0 25 5 -4 20 -2 33 3 l23 9 -27 10 c-14 6
-29 16 -33 22 -6 9 -10 9 -16 -1 -4 -7 -11 -10 -16 -6 -4 4 -2 17 6 28 11 19
10 20 -8 14 -18 -5 -21 -2 -21 19 0 16 -6 26 -15 26 -8 0 -15 9 -15 20 0 11 5
20 10 20 19 0 10 15 -18 31 -33 19 -62 97 -40 110 7 5 19 9 26 9 6 0 12 5 12
11 0 7 -9 9 -24 5 -18 -4 -28 0 -40 19 -9 13 -16 31 -16 38 0 8 -8 29 -17 47
-12 24 -13 35 -5 38 17 5 15 32 -3 38 -23 9 -19 44 6 44 11 0 17 4 14 10 -4 6
-16 10 -28 8 -19 -3 -22 2 -22 37 0 24 -6 45 -15 53 -13 12 -13 13 3 8 21 -7
22 2 0 26 -11 12 -12 18 -3 18 8 0 11 9 8 25 -4 18 -1 25 11 26 14 1 14 2 -1
6 -9 2 -21 17 -26 33 -9 24 -8 28 4 23 8 -3 14 1 14 11 0 9 -5 15 -11 14 -6
-2 -14 3 -16 10 -3 7 5 12 21 12 14 0 26 5 26 10 0 6 -9 10 -20 10 -10 0 -24
9 -30 19 -13 25 -13 44 0 36 5 -3 10 -1 10 4 0 6 -5 11 -11 11 -14 0 -1 62 15
72 7 5 6 8 -3 8 -11 0 -11 4 2 18 15 17 15 19 0 35 -16 16 -16 19 1 48 15 25
16 33 5 39 -10 7 -10 14 -1 35 7 14 12 37 12 50 0 14 5 25 11 25 7 0 9 11 6
28 -3 16 0 41 8 56 8 14 12 33 9 40 -3 8 -1 17 5 21 6 3 11 19 11 35 0 35 13
45 40 30 23 -12 29 4 6 17 -20 11 -24 47 -7 66 7 10 10 17 6 17 -5 0 0 9 10
20 10 11 24 20 32 20 7 0 13 5 13 10 0 6 -9 10 -20 10 -17 0 -19 4 -14 28 4
15 13 34 20 43 8 8 14 28 14 42 0 15 5 27 10 27 6 0 10 9 10 21 0 27 37 79 56
79 8 0 14 5 14 10 0 6 -7 10 -15 10 -20 0 -19 19 1 27 8 3 13 12 9 20 -3 10
-1 13 8 10 24 -9 49 19 47 55 -3 50 -1 55 16 33 15 -19 16 -18 11 15 -2 19 -1
42 4 50 4 8 11 24 14 35 5 13 9 15 12 8 3 -7 17 -13 31 -13 23 1 25 2 10 11
-10 5 -18 17 -18 25 0 22 48 101 65 108 8 3 15 15 15 26 0 24 8 25 32 3 24
-21 36 -9 15 15 -21 23 -22 33 -2 26 9 -4 15 0 15 10 0 9 5 16 10 16 6 0 10 7
10 15 0 9 9 15 21 15 16 0 20 -5 16 -20 -4 -15 0 -20 14 -20 18 0 18 1 -2 34
l-20 34 20 15 c12 7 18 16 15 20 -3 3 4 11 16 17 12 7 36 27 52 46 27 31 32
33 43 18 9 -13 14 -14 19 -5 4 6 3 18 -3 25 -8 10 -6 17 7 27 35 29 129 89
139 89 6 0 16 7 24 16 17 21 89 57 89 44 0 -20 21 -9 30 16 7 18 15 24 29 19
10 -3 24 1 31 10 16 19 40 19 40 0 0 -8 5 -15 10 -15 6 0 10 9 10 20 0 11 6
20 13 21 6 0 21 2 31 4 10 2 28 -3 40 -10 14 -10 26 -11 36 -5 10 7 11 10 3
10 -7 0 -13 5 -13 10 0 6 17 10 38 10 34 0 40 -4 57 -37 10 -21 20 -32 22 -25
3 7 0 19 -7 26 -8 11 -8 16 1 21 8 6 7 10 -2 16 -11 7 -10 9 4 9 9 0 17 -5 17
-10z m275 -70 c3 -5 1 -10 -4 -10 -6 0 -11 5 -11 10 0 6 2 10 4 10 3 0 8 -4
11 -10z m259 -212 c-3 -4 -10 -6 -15 -3 -11 7 -12 49 -2 59 9 9 24 -44 17 -56z
m96 -28 c0 -5 -2 -10 -4 -10 -3 0 -8 5 -11 10 -3 6 -1 10 4 10 6 0 11 -4 11
-10z m123 -162 c8 -28 0 -37 -10 -12 -3 10 -11 22 -17 26 -7 5 -5 8 5 8 9 0
19 -10 22 -22z m187 -195 c0 -5 -5 -15 -10 -23 -8 -12 -10 -11 -10 8 0 12 5
22 10 22 6 0 10 -3 10 -7z m70 -197 c0 -5 -7 -3 -15 4 -8 7 -12 17 -9 22 7 10
24 -9 24 -26z m170 -320 c0 -5 -7 -3 -15 4 -8 7 -12 17 -9 22 7 10 24 -9 24
-26z m-24 -63 c-10 -10 -19 5 -10 18 6 11 8 11 12 0 2 -7 1 -15 -2 -18z m54
-48 c0 -9 -6 -12 -15 -9 -8 4 -15 10 -15 15 0 5 7 9 15 9 8 0 15 -7 15 -15z
m-6 -76 c-3 -6 -1 -15 6 -19 8 -5 7 -9 -4 -13 -12 -5 -16 0 -16 18 0 14 5 25
11 25 5 0 7 -5 3 -11z m56 -160 c0 -6 -4 -7 -10 -4 -5 3 -10 11 -10 16 0 6 5
7 10 4 6 -3 10 -11 10 -16z m-4 -250 c15 -30 15 -31 -1 -25 -9 3 -19 6 -21 6
-2 0 -4 11 -4 25 0 33 6 32 26 -6z m5 -61 c9 -4 22 -1 28 5 8 8 11 7 11 -6 0
-13 -8 -16 -40 -14 -22 1 -40 7 -40 13 0 15 13 26 19 16 3 -5 13 -11 22 -14z
m16 -57 c-1 -12 -7 -17 -19 -13 -21 5 -24 18 -5 25 22 9 26 7 24 -12z m-37
-69 c0 -28 -14 -42 -38 -35 -27 7 -29 23 -2 23 14 0 20 7 20 21 0 11 5 17 10
14 6 -3 10 -14 10 -23z m60 2 c0 -8 -5 -12 -10 -9 -6 4 -8 11 -5 16 9 14 15
11 15 -7z m-10 -44 c0 -5 -10 -10 -21 -10 -17 0 -20 -5 -17 -25 6 -27 -9 -35
-19 -10 -3 9 3 25 12 35 19 21 45 27 45 10z m7 -102 c-3 -8 -6 -5 -6 6 -1 11
2 17 5 13 3 -3 4 -12 1 -19z m-161 -15 c-10 -10 -19 5 -10 18 6 11 8 11 12 0
2 -7 1 -15 -2 -18z m124 -91 c0 -10 5 -23 12 -30 6 -6 9 -15 5 -19 -9 -9 -36
27 -37 50 0 9 5 17 10 17 6 0 10 -8 10 -18z m-48 -150 c4 -26 2 -28 -34 -29
-21 -1 -38 2 -38 8 0 5 12 9 26 9 17 0 28 6 31 20 7 27 10 25 15 -8z m-54 -78
c-9 -9 -21 -13 -27 -10 -20 13 -11 26 16 26 25 0 26 -1 11 -16z m72 -17 c0 -2
-10 -12 -21 -23 -22 -19 -22 -19 -10 4 10 18 31 31 31 19z m-55 -17 c3 -5 -1
-10 -10 -10 -9 0 -13 5 -10 10 3 6 8 10 10 10 2 0 7 -4 10 -10z m21 -53 c7
-20 -14 -69 -29 -64 -6 2 -13 11 -15 20 -2 12 1 15 12 11 19 -7 22 16 4 34 -9
9 -8 12 5 12 10 0 20 -6 23 -13z m-246 -280 c0 -5 -10 -7 -22 -5 -17 2 -24 11
-26 32 l-4 30 26 -25 c14 -13 26 -28 26 -32z m22 -36 c-25 -26 -49 -32 -56
-15 -4 9 6 19 27 28 40 16 53 11 29 -13z m78 5 c0 -9 -9 -14 -20 -13 -22 1
-27 13 -7 20 21 9 27 7 27 -7z m-54 -63 c-10 -10 -19 5 -10 18 6 11 8 11 12 0
2 -7 1 -15 -2 -18z m-196 -28 c0 -8 -4 -15 -9 -15 -13 0 -22 16 -14 24 11 11
23 6 23 -9z m204 -3 c2 -4 -4 -13 -15 -20 -21 -13 -22 -12 -13 12 7 17 20 21
28 8z m-42 -76 c-3 -5 -13 2 -23 15 -27 35 -23 48 5 19 13 -14 21 -29 18 -34z
m-60 -18 c-15 -15 -24 -6 -16 16 5 12 10 14 17 7 8 -8 8 -14 -1 -23z m27 -44
c-11 -14 -14 -13 -22 1 -6 12 -4 20 10 30 15 12 18 11 21 -1 2 -8 -2 -22 -9
-30z m-109 -1 c0 -7 -4 -13 -10 -13 -5 0 -10 -10 -11 -22 l0 -23 -9 23 c-8 18
-15 21 -35 16 -18 -5 -25 -2 -25 9 0 18 12 23 57 23 20 0 33 -5 33 -13z m30
-28 c0 -8 7 -15 15 -15 8 0 15 -4 15 -10 0 -9 -4 -10 -27 -10 -11 0 -23 50
-12 50 5 0 9 -7 9 -15z m-17 -54 c6 -25 -15 -34 -40 -16 -17 13 -17 14 2 28
23 18 31 15 38 -12z m-147 -126 c-10 -15 -20 -24 -24 -20 -4 3 0 10 8 15 11 7
11 11 1 24 -18 22 -3 42 17 23 14 -14 13 -18 -2 -42z m-43 -15 c6 -22 0 -25
-22 -11 -8 5 -11 16 -8 26 8 20 23 13 30 -15z m-37 -47 c-7 -7 -26 7 -26 19 0
6 6 6 15 -2 9 -7 13 -15 11 -17z m-124 -15 c-7 -7 -12 -20 -12 -30 0 -21 -7
-23 -25 -5 -14 15 -8 31 15 40 26 9 35 8 22 -5z m-146 -38 c16 0 19 -16 3 -25
-13 -9 -15 -6 -23 25 -3 14 -3 19 0 13 3 -7 12 -13 20 -13z m67 -19 c6 -25
-11 -41 -42 -40 -24 2 -24 2 -3 6 15 3 22 11 22 29 0 29 16 32 23 5z m-523
-51 c0 -5 -5 -10 -11 -10 -5 0 -7 5 -4 10 3 6 8 10 11 10 2 0 4 -4 4 -10z"/>
<path d="M3120 4774 c0 -8 5 -12 10 -9 6 3 10 10 10 16 0 5 -4 9 -10 9 -5 0
-10 -7 -10 -16z"/>
<path d="M3198 4753 c6 -2 18 -2 25 0 6 3 1 5 -13 5 -14 0 -19 -2 -12 -5z"/>
<path d="M2966 4735 c-3 -8 -1 -15 4 -15 6 0 10 7 10 15 0 8 -2 15 -4 15 -2 0
-6 -7 -10 -15z"/>
<path d="M3265 4740 c-3 -5 -1 -10 4 -10 6 0 11 5 11 10 0 6 -2 10 -4 10 -3 0
-8 -4 -11 -10z"/>
<path d="M3295 4720 c-3 -5 1 -10 9 -10 9 0 16 5 16 10 0 6 -4 10 -9 10 -6 0
-13 -4 -16 -10z"/>
<path d="M2700 4710 c0 -5 5 -10 10 -10 6 0 10 5 10 10 0 6 -4 10 -10 10 -5 0
-10 -4 -10 -10z"/>
<path d="M2660 4690 c0 -5 4 -10 9 -10 6 0 13 5 16 10 3 6 -1 10 -9 10 -9 0
-16 -4 -16 -10z"/>
<path d="M3150 4684 c0 -8 5 -12 10 -9 6 3 10 10 10 16 0 5 -4 9 -10 9 -5 0
-10 -7 -10 -16z"/>
<path d="M3335 4690 c-3 -5 -1 -10 4 -10 6 0 11 5 11 10 0 6 -2 10 -4 10 -3 0
-8 -4 -11 -10z"/>
<path d="M2990 4680 c0 -5 5 -10 10 -10 6 0 10 5 10 10 0 6 -4 10 -10 10 -5 0
-10 -4 -10 -10z"/>
<path d="M3060 4680 c0 -5 7 -10 16 -10 8 0 12 5 9 10 -3 6 -10 10 -16 10 -5
0 -9 -4 -9 -10z"/>
<path d="M3205 4680 c3 -5 8 -10 11 -10 2 0 4 5 4 10 0 6 -5 10 -11 10 -5 0
-7 -4 -4 -10z"/>
<path d="M3420 4661 c0 -6 5 -13 10 -16 6 -3 10 1 10 9 0 9 -4 16 -10 16 -5 0
-10 -4 -10 -9z"/>
<path d="M2900 4646 c0 -2 7 -7 16 -10 8 -3 12 -2 9 4 -6 10 -25 14 -25 6z"/>
<path d="M3140 4641 c0 -6 4 -13 10 -16 6 -3 7 1 4 9 -7 18 -14 21 -14 7z"/>
<path d="M3350 4625 c7 -8 16 -15 21 -15 5 0 6 7 3 15 -4 8 -13 15 -21 15 -13
0 -13 -3 -3 -15z"/>
<path d="M2725 4620 c3 -5 8 -10 11 -10 2 0 4 5 4 10 0 6 -5 10 -11 10 -5 0
-7 -4 -4 -10z"/>
<path d="M2775 4610 c-3 -5 -2 -10 4 -10 5 0 13 5 16 10 3 6 2 10 -4 10 -5 0
-13 -4 -16 -10z"/>
<path d="M3060 4600 c0 -5 5 -10 10 -10 6 0 10 5 10 10 0 6 -4 10 -10 10 -5 0
-10 -4 -10 -10z"/>
<path d="M3227 4594 c5 -13 53 -6 53 7 0 5 -13 8 -29 7 -17 -1 -27 -7 -24 -14z"/>
<path d="M3310 4586 c0 -16 18 -31 27 -22 3 3 -2 12 -11 21 -14 14 -16 14 -16
1z"/>
<path d="M2820 4579 c0 -5 5 -7 10 -4 6 3 10 8 10 11 0 2 -4 4 -10 4 -5 0 -10
-5 -10 -11z"/>
<path d="M3390 4576 c0 -8 -6 -16 -12 -19 -7 -2 -10 -8 -6 -12 8 -9 38 18 38
34 0 6 -4 11 -10 11 -5 0 -10 -6 -10 -14z"/>
<path d="M2845 4550 c-3 -5 -1 -10 4 -10 6 0 11 5 11 10 0 6 -2 10 -4 10 -3 0
-8 -4 -11 -10z"/>
<path d="M3160 4550 c0 -5 5 -10 10 -10 6 0 10 5 10 10 0 6 -4 10 -10 10 -5 0
-10 -4 -10 -10z"/>
<path d="M3440 4550 c0 -5 5 -10 10 -10 6 0 10 5 10 10 0 6 -4 10 -10 10 -5 0
-10 -4 -10 -10z"/>
<path d="M3467 4533 c-13 -13 -7 -20 18 -20 20 0 23 2 14 13 -13 15 -22 17
-32 7z"/>
<path d="M2680 4510 c0 -5 5 -10 11 -10 5 0 7 5 4 10 -3 6 -8 10 -11 10 -2 0
-4 -4 -4 -10z"/>
<path d="M3250 4510 c0 -5 5 -10 11 -10 5 0 7 5 4 10 -3 6 -8 10 -11 10 -2 0
-4 -4 -4 -10z"/>
<path d="M3305 4510 c3 -5 8 -10 11 -10 2 0 4 5 4 10 0 6 -5 10 -11 10 -5 0
-7 -4 -4 -10z"/>
<path d="M2560 4500 c0 -5 5 -10 10 -10 6 0 10 5 10 10 0 6 -4 10 -10 10 -5 0
-10 -4 -10 -10z"/>
<path d="M3377 4494 c-13 -14 -7 -22 24 -33 41 -14 44 -14 29 4 -7 8 -18 15
-25 15 -8 0 -15 5 -17 11 -2 5 -7 7 -11 3z"/>
<path d="M3470 4490 c0 -5 5 -10 10 -10 6 0 10 5 10 10 0 6 -4 10 -10 10 -5 0
-10 -4 -10 -10z"/>
<path d="M3540 4480 c0 -5 5 -10 10 -10 6 0 10 5 10 10 0 6 -4 10 -10 10 -5 0
-10 -4 -10 -10z"/>
<path d="M2481 4454 c0 -11 3 -14 6 -6 3 7 2 16 -1 19 -3 4 -6 -2 -5 -13z"/>
<path d="M2807 4454 c-4 -4 -7 -14 -7 -23 0 -11 3 -12 11 -4 6 6 10 16 7 23
-2 6 -7 8 -11 4z"/>
<path d="M3610 4444 c0 -8 5 -12 10 -9 6 4 8 11 5 16 -9 14 -15 11 -15 -7z"/>
<path d="M2367 4439 c8 -8 16 -8 30 0 16 9 14 10 -11 11 -22 0 -27 -3 -19 -11z"/>
<path d="M3025 4440 c-3 -5 -1 -10 4 -10 6 0 11 5 11 10 0 6 -2 10 -4 10 -3 0
-8 -4 -11 -10z"/>
<path d="M3573 4408 c-5 -7 -7 -24 -3 -38 6 -25 6 -24 18 9 7 19 12 36 12 37
0 9 -18 3 -27 -8z"/>
<path d="M3345 4380 c-3 -5 -1 -10 4 -10 6 0 11 5 11 10 0 6 -2 10 -4 10 -3 0
-8 -4 -11 -10z"/>
<path d="M3610 4380 c0 -5 5 -10 10 -10 6 0 10 5 10 10 0 6 -4 10 -10 10 -5 0
-10 -4 -10 -10z"/>
<path d="M3681 4358 c-1 -12 -9 -18 -23 -18 -21 -1 -22 -1 -5 -11 23 -14 41 1
34 27 -4 17 -5 17 -6 2z"/>
<path d="M3130 4350 c0 -5 7 -10 15 -10 8 0 15 5 15 10 0 6 -7 10 -15 10 -8 0
-15 -4 -15 -10z"/>
<path d="M2400 4340 c0 -5 5 -10 11 -10 5 0 7 5 4 10 -3 6 -8 10 -11 10 -2 0
-4 -4 -4 -10z"/>
<path d="M3300 4339 c0 -5 5 -7 10 -4 6 3 10 8 10 11 0 2 -4 4 -10 4 -5 0 -10
-5 -10 -11z"/>
<path d="M3495 4320 c-3 -5 -1 -10 4 -10 6 0 11 5 11 10 0 6 -2 10 -4 10 -3 0
-8 -4 -11 -10z"/>
<path d="M3660 4291 c0 -6 5 -13 10 -16 6 -3 10 1 10 9 0 9 -4 16 -10 16 -5 0
-10 -4 -10 -9z"/>
<path d="M2345 4280 c3 -5 8 -10 11 -10 2 0 4 5 4 10 0 6 -5 10 -11 10 -5 0
-7 -4 -4 -10z"/>
<path d="M3566 4281 c-4 -7 -5 -15 -2 -18 9 -9 19 4 14 18 -4 11 -6 11 -12 0z"/>
<path d="M2200 4260 c0 -5 5 -10 10 -10 6 0 10 5 10 10 0 6 -4 10 -10 10 -5 0
-10 -4 -10 -10z"/>
<path d="M2485 4250 c-3 -5 -1 -10 4 -10 6 0 11 5 11 10 0 6 -2 10 -4 10 -3 0
-8 -4 -11 -10z"/>
<path d="M3710 4245 c0 -17 2 -18 24 -9 23 9 20 24 -4 24 -11 0 -20 -7 -20
-15z"/>
<path d="M3647 4223 c-10 -9 -8 -33 2 -33 5 0 11 9 14 20 5 20 -3 26 -16 13z"/>
<path d="M2230 4200 c0 -5 5 -10 10 -10 6 0 10 5 10 10 0 6 -4 10 -10 10 -5 0
-10 -4 -10 -10z"/>
<path d="M3497 4203 c-10 -9 -9 -23 2 -23 5 0 11 7 15 15 5 15 -5 20 -17 8z"/>
<path d="M3580 4183 c0 -19 11 -43 21 -43 13 0 11 14 -6 36 -8 10 -15 14 -15
7z"/>
<path d="M2150 4160 c18 -12 30 -13 30 -2 0 4 -10 9 -22 9 -18 2 -20 0 -8 -7z"/>
<path d="M3660 4159 c0 -5 5 -7 10 -4 6 3 10 8 10 11 0 2 -4 4 -10 4 -5 0 -10
-5 -10 -11z"/>
<path d="M2370 4150 c0 -5 5 -10 10 -10 6 0 10 5 10 10 0 6 -4 10 -10 10 -5 0
-10 -4 -10 -10z"/>
<path d="M3892 4149 c3 -8 -5 -22 -16 -32 -15 -13 -17 -20 -8 -23 6 -3 12 -12
12 -19 0 -7 -6 -15 -12 -18 -7 -2 -10 -8 -6 -12 4 -4 13 -3 20 3 7 5 28 14 46
19 42 11 43 29 2 25 -29 -3 -32 -1 -25 15 12 30 11 46 -4 51 -8 3 -12 -1 -9
-9z"/>
<path d="M2280 4130 c0 -5 5 -10 10 -10 6 0 10 5 10 10 0 6 -4 10 -10 10 -5 0
-10 -4 -10 -10z"/>
<path d="M3932 4128 c5 -15 28 -23 28 -10 0 5 -7 13 -16 16 -10 4 -14 1 -12
-6z"/>
<path d="M3730 4107 c0 -9 12 -14 31 -15 29 -1 30 0 13 13 -24 18 -44 19 -44
2z"/>
<path d="M3676 4085 c-4 -16 -3 -32 3 -38 15 -15 24 14 13 43 l-9 24 -7 -29z"/>
<path d="M3830 4080 c0 -5 5 -10 10 -10 6 0 10 5 10 10 0 6 -4 10 -10 10 -5 0
-10 -4 -10 -10z"/>
<path d="M2820 4070 c0 -5 5 -10 11 -10 5 0 7 5 4 10 -3 6 -8 10 -11 10 -2 0
-4 -4 -4 -10z"/>
<path d="M2100 4060 c0 -5 7 -10 15 -10 8 0 15 5 15 10 0 6 -7 10 -15 10 -8 0
-15 -4 -15 -10z"/>
<path d="M3030 4060 c0 -5 5 -10 11 -10 5 0 7 5 4 10 -3 6 -8 10 -11 10 -2 0
-4 -4 -4 -10z"/>
<path d="M3800 4051 c0 -24 13 -33 34 -25 20 8 21 24 1 24 -8 0 -15 5 -15 10
0 6 -4 10 -10 10 -5 0 -10 -9 -10 -19z"/>
<path d="M2170 4050 c0 -5 4 -10 9 -10 6 0 13 5 16 10 3 6 -1 10 -9 10 -9 0
-16 -4 -16 -10z"/>
<path d="M3905 4034 c-40 -20 -40 -21 -2 -20 17 0 40 -4 50 -8 16 -8 16 -6 6
18 -14 30 -15 31 -54 10z"/>
<path d="M3980 4036 c0 -9 7 -12 20 -9 11 3 20 9 20 14 0 5 -9 9 -20 9 -11 0
-20 -6 -20 -14z"/>
<path d="M3710 4010 c0 -5 7 -7 15 -4 8 4 15 8 15 10 0 2 -7 4 -15 4 -8 0 -15
-4 -15 -10z"/>
<path d="M4010 4013 c-21 -8 -28 -22 -23 -44 10 -38 53 -9 53 35 0 17 -5 18
-30 9z"/>
<path d="M3815 3989 c-10 -15 3 -25 16 -12 7 7 7 13 1 17 -6 3 -14 1 -17 -5z"/>
<path d="M2075 3980 c3 -5 10 -10 16 -10 5 0 9 5 9 10 0 6 -7 10 -16 10 -8 0
-12 -4 -9 -10z"/>
<path d="M2163 3977 c4 -10 7 -24 7 -30 0 -8 3 -8 11 0 9 9 7 16 -7 30 -17 17
-18 17 -11 0z"/>
<path d="M2830 3980 c0 -5 5 -10 10 -10 6 0 10 5 10 10 0 6 -4 10 -10 10 -5 0
-10 -4 -10 -10z"/>
<path d="M3863 3980 c-33 -13 -29 -32 5 -24 34 9 42 13 42 25 0 11 -18 11 -47
-1z"/>
<path d="M3925 3979 c-4 -6 -5 -13 -2 -16 7 -7 27 6 27 18 0 12 -17 12 -25 -2z"/>
<path d="M3585 3950 c3 -5 8 -10 11 -10 2 0 4 5 4 10 0 6 -5 10 -11 10 -5 0
-7 -4 -4 -10z"/>
<path d="M3355 3940 c-3 -5 1 -10 9 -10 9 0 16 5 16 10 0 6 -4 10 -9 10 -6 0
-13 -4 -16 -10z"/>
<path d="M3460 3940 c0 -5 5 -10 10 -10 6 0 10 5 10 10 0 6 -4 10 -10 10 -5 0
-10 -4 -10 -10z"/>
<path d="M3775 3940 c3 -5 8 -10 11 -10 2 0 4 5 4 10 0 6 -5 10 -11 10 -5 0
-7 -4 -4 -10z"/>
<path d="M3805 3930 c3 -5 8 -10 11 -10 2 0 4 5 4 10 0 6 -5 10 -11 10 -5 0
-7 -4 -4 -10z"/>
<path d="M2090 3920 c0 -5 5 -10 10 -10 6 0 10 5 10 10 0 6 -4 10 -10 10 -5 0
-10 -4 -10 -10z"/>
<path d="M3545 3920 c-3 -5 -1 -10 4 -10 6 0 11 5 11 10 0 6 -2 10 -4 10 -3 0
-8 -4 -11 -10z"/>
<path d="M3890 3920 c0 -5 5 -10 10 -10 6 0 10 5 10 10 0 6 -4 10 -10 10 -5 0
-10 -4 -10 -10z"/>
<path d="M3930 3911 c0 -12 5 -21 10 -21 6 0 10 6 10 14 0 8 -4 18 -10 21 -5
3 -10 -3 -10 -14z"/>
<path d="M2025 3897 c-4 -10 -5 -21 -1 -24 10 -10 18 4 13 24 -4 17 -4 17 -12
0z"/>
<path d="M3335 3900 c-3 -5 -1 -10 4 -10 6 0 11 5 11 10 0 6 -2 10 -4 10 -3 0
-8 -4 -11 -10z"/>
<path d="M3750 3900 c0 -5 4 -10 10 -10 5 0 7 -7 4 -15 -5 -11 -2 -13 10 -9
19 7 20 16 4 32 -15 15 -28 16 -28 2z"/>
<path d="M3380 3891 c0 -5 5 -13 10 -16 6 -3 10 -2 10 4 0 5 -4 13 -10 16 -5
3 -10 2 -10 -4z"/>
<path d="M3980 3871 c0 -12 -6 -21 -15 -21 -8 0 -15 -4 -15 -10 0 -5 16 -10
35 -10 34 0 35 1 24 23 -7 12 -11 24 -10 27 1 2 -2 6 -8 8 -6 2 -11 -6 -11
-17z"/>
<path d="M3480 3870 c0 -5 7 -10 15 -10 8 0 15 5 15 10 0 6 -7 10 -15 10 -8 0
-15 -4 -15 -10z"/>
<path d="M3725 3870 c3 -5 11 -10 16 -10 6 0 7 5 4 10 -3 6 -11 10 -16 10 -6
0 -7 -4 -4 -10z"/>
<path d="M3935 3870 c-3 -5 -1 -10 4 -10 6 0 11 5 11 10 0 6 -2 10 -4 10 -3 0
-8 -4 -11 -10z"/>
<path d="M3540 3860 c-13 -8 -12 -10 3 -10 9 0 17 5 17 10 0 12 -1 12 -20 0z"/>
<path d="M3625 3851 c-3 -5 2 -11 10 -15 8 -3 17 -1 20 3 3 5 -2 11 -10 15 -8
3 -17 1 -20 -3z"/>
<path d="M3830 3838 c0 -5 4 -8 9 -8 5 0 16 -3 25 -6 10 -4 16 -1 16 9 0 10
-9 14 -25 13 -14 0 -25 -4 -25 -8z"/>
<path d="M3511 3814 c0 -11 3 -14 6 -6 3 7 2 16 -1 19 -3 4 -6 -2 -5 -13z"/>
<path d="M3800 3820 c0 -5 5 -10 10 -10 6 0 10 5 10 10 0 6 -4 10 -10 10 -5 0
-10 -4 -10 -10z"/>
<path d="M3960 3810 c0 -5 4 -10 9 -10 6 0 13 5 16 10 3 6 -1 10 -9 10 -9 0
-16 -4 -16 -10z"/>
<path d="M3290 3800 c0 -5 5 -10 10 -10 6 0 10 5 10 10 0 6 -4 10 -10 10 -5 0
-10 -4 -10 -10z"/>
<path d="M3679 3794 c-12 -14 -11 -16 5 -13 11 2 21 10 24 17 5 17 -13 15 -29
-4z"/>
<path d="M4011 3786 c-11 -13 -10 -17 3 -22 22 -8 30 1 19 21 -9 15 -11 15
-22 1z"/>
<path d="M3970 3780 c0 -5 5 -10 10 -10 6 0 10 5 10 10 0 6 -4 10 -10 10 -5 0
-10 -4 -10 -10z"/>
<path d="M3867 3773 c-8 -7 11 -33 23 -33 5 0 6 9 3 20 -5 20 -15 25 -26 13z"/>
<path d="M3902 3771 c2 -7 7 -12 11 -12 12 1 9 15 -3 20 -7 2 -11 -2 -8 -8z"/>
<path d="M3946 3741 c4 -20 2 -30 -10 -34 -9 -4 -16 -11 -16 -16 0 -7 9 -7 23
-2 12 5 22 13 21 20 -1 6 -2 22 -2 36 -1 14 -6 25 -12 25 -5 0 -7 -13 -4 -29z"/>
<path d="M4060 3754 c0 -8 5 -12 10 -9 6 3 10 10 10 16 0 5 -4 9 -10 9 -5 0
-10 -7 -10 -16z"/>
<path d="M1926 3744 c-8 -21 -8 -24 3 -24 12 0 22 28 12 35 -5 3 -12 -2 -15
-11z"/>
<path d="M3570 3740 c0 -5 5 -10 11 -10 5 0 7 5 4 10 -3 6 -8 10 -11 10 -2 0
-4 -4 -4 -10z"/>
<path d="M3686 3742 c-3 -6 -1 -14 5 -17 15 -10 25 3 12 16 -7 7 -13 7 -17 1z"/>
<path d="M3775 3740 c3 -5 8 -10 11 -10 2 0 4 5 4 10 0 6 -5 10 -11 10 -5 0
-7 -4 -4 -10z"/>
<path d="M3925 3740 c-3 -5 -1 -10 4 -10 6 0 11 5 11 10 0 6 -2 10 -4 10 -3 0
-8 -4 -11 -10z"/>
<path d="M3430 3730 c0 -5 5 -10 10 -10 6 0 10 5 10 10 0 6 -4 10 -10 10 -5 0
-10 -4 -10 -10z"/>
<path d="M3095 3720 c-3 -5 -1 -10 4 -10 6 0 11 5 11 10 0 6 -2 10 -4 10 -3 0
-8 -4 -11 -10z"/>
<path d="M3460 3720 c0 -5 5 -10 10 -10 6 0 10 5 10 10 0 6 -4 10 -10 10 -5 0
-10 -4 -10 -10z"/>
<path d="M3990 3715 c0 -11 9 -14 35 -10 26 3 35 0 35 -10 0 -8 7 -15 15 -15
27 0 16 28 -16 39 -44 15 -69 14 -69 -4z"/>
<path d="M3770 3710 c0 -5 5 -10 11 -10 5 0 7 5 4 10 -3 6 -8 10 -11 10 -2 0
-4 -4 -4 -10z"/>
<path d="M3840 3711 c0 -6 5 -13 10 -16 6 -3 10 1 10 9 0 9 -4 16 -10 16 -5 0
-10 -4 -10 -9z"/>
<path d="M2945 3690 c3 -5 8 -10 11 -10 2 0 4 5 4 10 0 6 -5 10 -11 10 -5 0
-7 -4 -4 -10z"/>
<path d="M3447 3684 c3 -7 9 -14 14 -14 14 0 10 17 -5 23 -10 4 -13 1 -9 -9z"/>
<path d="M1935 3680 c3 -5 8 -10 11 -10 2 0 4 5 4 10 0 6 -5 10 -11 10 -5 0
-7 -4 -4 -10z"/>
<path d="M3370 3679 c0 -5 5 -7 10 -4 6 3 10 8 10 11 0 2 -4 4 -10 4 -5 0 -10
-5 -10 -11z"/>
<path d="M3525 3680 c3 -5 8 -10 11 -10 2 0 4 5 4 10 0 6 -5 10 -11 10 -5 0
-7 -4 -4 -10z"/>
<path d="M3997 3684 c-4 -4 -7 -14 -7 -23 0 -11 3 -12 11 -4 6 6 10 16 7 23
-2 6 -7 8 -11 4z"/>
<path d="M1885 3670 c-3 -5 -1 -10 4 -10 6 0 11 5 11 10 0 6 -2 10 -4 10 -3 0
-8 -4 -11 -10z"/>
<path d="M4176 3665 c4 -8 12 -15 20 -15 8 0 14 7 14 15 0 8 -9 15 -20 15 -13
0 -18 -5 -14 -15z"/>
<path d="M3820 3650 c0 -11 6 -20 14 -20 9 0 12 7 9 20 -3 11 -9 20 -14 20 -5
0 -9 -9 -9 -20z"/>
<path d="M3900 3659 c0 -5 5 -7 10 -4 6 3 10 8 10 11 0 2 -4 4 -10 4 -5 0 -10
-5 -10 -11z"/>
<path d="M4042 3653 c2 -10 11 -19 21 -21 24 -5 21 15 -4 28 -18 10 -20 9 -17
-7z"/>
<path d="M3050 3650 c0 -5 5 -10 10 -10 6 0 10 5 10 10 0 6 -4 10 -10 10 -5 0
-10 -4 -10 -10z"/>
<path d="M1900 3640 c0 -5 5 -10 10 -10 6 0 10 5 10 10 0 6 -4 10 -10 10 -5 0
-10 -4 -10 -10z"/>
<path d="M3775 3630 c-4 -7 -1 -16 6 -21 17 -10 26 8 11 23 -6 6 -12 6 -17 -2z"/>
<path d="M3945 3630 c-3 -5 -3 -10 2 -11 4 0 0 -4 -10 -8 -16 -6 -16 -9 8 -31
l25 -23 0 41 c0 40 -11 54 -25 32z"/>
<path d="M3996 3618 c9 -31 7 -30 40 -16 l29 12 -27 4 c-16 2 -28 8 -28 13 0
5 -5 9 -11 9 -6 0 -8 -9 -3 -22z"/>
<path d="M4135 3631 c-3 -6 1 -13 8 -18 7 -4 16 -16 20 -25 10 -27 24 -22 30
10 3 15 5 27 4 28 -13 8 -57 12 -62 5z"/>
<path d="M3867 3610 c3 -11 9 -20 14 -20 11 0 11 3 3 24 -9 23 -23 20 -17 -4z"/>
<path d="M4095 3620 c-3 -5 -1 -10 4 -10 6 0 11 5 11 10 0 6 -2 10 -4 10 -3 0
-8 -4 -11 -10z"/>
<path d="M3310 3604 c0 -8 5 -12 10 -9 6 4 8 11 5 16 -9 14 -15 11 -15 -7z"/>
<path d="M3525 3610 c3 -5 8 -10 11 -10 2 0 4 5 4 10 0 6 -5 10 -11 10 -5 0
-7 -4 -4 -10z"/>
<path d="M3770 3579 c0 -5 5 -7 10 -4 6 3 10 8 10 11 0 2 -4 4 -10 4 -5 0 -10
-5 -10 -11z"/>
<path d="M4110 3583 c-22 -8 -53 -43 -46 -51 4 -3 16 0 28 7 16 10 22 10 28 1
6 -9 13 -9 26 -1 11 6 13 11 6 11 -7 0 -12 7 -10 16 3 19 -9 25 -32 17z"/>
<path d="M4040 3570 c0 -5 5 -10 10 -10 6 0 10 5 10 10 0 6 -4 10 -10 10 -5 0
-10 -4 -10 -10z"/>
<path d="M3842 3533 c-12 -38 -8 -54 7 -37 13 14 22 62 13 68 -5 3 -14 -11
-20 -31z"/>
<path d="M4177 3544 c4 -10 -1 -17 -16 -21 -11 -3 -21 -11 -21 -17 0 -35 36
-26 53 13 10 25 11 26 14 4 5 -29 23 -30 23 -3 0 13 -10 24 -26 30 -33 13 -34
13 -27 -6z"/>
<path d="M3920 3535 c-7 -9 -11 -18 -8 -20 3 -3 11 1 18 10 7 9 11 18 8 20 -3
3 -11 -1 -18 -10z"/>
<path d="M3385 3530 c3 -5 8 -10 11 -10 2 0 4 5 4 10 0 6 -5 10 -11 10 -5 0
-7 -4 -4 -10z"/>
<path d="M3620 3526 c0 -9 5 -16 10 -16 6 0 10 4 10 9 0 6 -4 13 -10 16 -5 3
-10 -1 -10 -9z"/>
<path d="M3690 3530 c0 -5 5 -10 10 -10 6 0 10 5 10 10 0 6 -4 10 -10 10 -5 0
-10 -4 -10 -10z"/>
<path d="M4020 3524 c0 -8 5 -12 10 -9 6 3 10 10 10 16 0 5 -4 9 -10 9 -5 0
-10 -7 -10 -16z"/>
<path d="M3968 3505 c-23 -30 -24 -53 -3 -35 8 7 15 19 15 26 0 8 5 14 10 14
6 0 10 5 10 10 0 17 -14 11 -32 -15z"/>
<path d="M2655 3510 c3 -5 8 -10 11 -10 2 0 4 5 4 10 0 6 -5 10 -11 10 -5 0
-7 -4 -4 -10z"/>
<path d="M3770 3501 c0 -6 -7 -11 -16 -11 -8 0 -12 -4 -9 -10 9 -15 45 -12 45
4 0 8 -4 18 -10 21 -5 3 -10 1 -10 -4z"/>
<path d="M4090 3490 c0 -5 5 -10 10 -10 6 0 10 5 10 10 0 6 -4 10 -10 10 -5 0
-10 -4 -10 -10z"/>
<path d="M1920 3470 c0 -5 5 -10 10 -10 6 0 10 5 10 10 0 6 -4 10 -10 10 -5 0
-10 -4 -10 -10z"/>
<path d="M3897 3458 c-6 -21 -2 -36 7 -27 10 11 16 49 8 49 -5 0 -12 -10 -15
-22z"/>
<path d="M4100 3461 c-7 -13 -7 -22 0 -26 5 -3 10 0 10 7 1 9 5 7 14 -4 18
-24 26 -22 26 6 0 13 -7 27 -16 30 -22 8 -22 8 -34 -13z"/>
<path d="M4173 3464 c-9 -23 11 -38 26 -20 13 16 7 36 -10 36 -5 0 -12 -7 -16
-16z"/>
<path d="M3280 3449 c0 -5 5 -7 10 -4 6 3 10 8 10 11 0 2 -4 4 -10 4 -5 0 -10
-5 -10 -11z"/>
<path d="M3860 3450 c0 -5 5 -10 10 -10 6 0 10 5 10 10 0 6 -4 10 -10 10 -5 0
-10 -4 -10 -10z"/>
<path d="M4033 3452 c-31 -5 -29 -22 2 -22 14 0 25 -4 25 -10 0 -5 5 -10 10
-10 14 0 13 13 -2 31 -7 8 -23 13 -35 11z"/>
<path d="M1810 3434 c0 -8 5 -12 10 -9 6 4 8 11 5 16 -9 14 -15 11 -15 -7z"/>
<path d="M2175 3440 c-3 -5 -1 -10 4 -10 6 0 11 5 11 10 0 6 -2 10 -4 10 -3 0
-8 -4 -11 -10z"/>
<path d="M3810 3440 c0 -5 5 -10 11 -10 5 0 7 5 4 10 -3 6 -8 10 -11 10 -2 0
-4 -4 -4 -10z"/>
<path d="M3750 3419 c0 -5 5 -7 10 -4 6 3 10 8 10 11 0 2 -4 4 -10 4 -5 0 -10
-5 -10 -11z"/>
<path d="M4203 3415 c-4 -12 -8 -13 -19 -4 -18 15 -29 6 -20 -16 4 -11 15 -15
33 -13 15 2 28 -2 30 -9 3 -8 -4 -13 -16 -13 -23 0 -47 -35 -31 -45 6 -3 13 0
16 9 3 8 19 18 36 21 22 5 28 11 23 23 -4 10 -9 25 -12 34 -7 23 -32 31 -40
13z"/>
<path d="M3455 3410 c-3 -5 -1 -10 4 -10 6 0 11 5 11 10 0 6 -2 10 -4 10 -3 0
-8 -4 -11 -10z"/>
<path d="M3630 3400 c0 -5 5 -10 11 -10 5 0 7 5 4 10 -3 6 -8 10 -11 10 -2 0
-4 -4 -4 -10z"/>
<path d="M3930 3399 c0 -5 5 -7 10 -4 6 3 10 8 10 11 0 2 -4 4 -10 4 -5 0 -10
-5 -10 -11z"/>
<path d="M3502 3388 c6 -18 28 -21 28 -4 0 9 -7 16 -16 16 -9 0 -14 -5 -12
-12z"/>
<path d="M3720 3380 c0 -5 5 -10 11 -10 5 0 7 5 4 10 -3 6 -8 10 -11 10 -2 0
-4 -4 -4 -10z"/>
<path d="M4040 3385 c0 -13 39 -47 50 -43 6 2 3 12 -10 26 -19 20 -40 29 -40
17z"/>
<path d="M3995 3370 c4 -6 11 -8 16 -5 14 9 11 15 -7 15 -8 0 -12 -5 -9 -10z"/>
<path d="M4100 3370 c0 -5 5 -10 10 -10 6 0 10 5 10 10 0 6 -4 10 -10 10 -5 0
-10 -4 -10 -10z"/>
<path d="M3750 3355 c-14 -16 -10 -18 14 -9 9 3 16 10 16 15 0 14 -16 11 -30
-6z"/>
<path d="M4142 3354 c4 -21 22 -23 26 -1 2 10 -3 17 -13 17 -10 0 -15 -6 -13
-16z"/>
<path d="M3605 3350 c3 -5 11 -10 16 -10 6 0 7 5 4 10 -3 6 -11 10 -16 10 -6
0 -7 -4 -4 -10z"/>
<path d="M1850 3340 c0 -5 5 -10 10 -10 6 0 10 5 10 10 0 6 -4 10 -10 10 -5 0
-10 -4 -10 -10z"/>
<path d="M3950 3340 c0 -5 5 -10 10 -10 6 0 10 5 10 10 0 6 -4 10 -10 10 -5 0
-10 -4 -10 -10z"/>
<path d="M3845 3330 c-3 -5 1 -10 9 -10 9 0 16 5 16 10 0 6 -4 10 -9 10 -6 0
-13 -4 -16 -10z"/>
<path d="M4015 3330 c-3 -5 -1 -10 4 -10 6 0 11 5 11 10 0 6 -2 10 -4 10 -3 0
-8 -4 -11 -10z"/>
<path d="M4097 3324 c-8 -8 1 -24 14 -24 5 0 9 7 9 15 0 15 -12 20 -23 9z"/>
<path d="M1800 3300 c-20 -12 -10 -19 14 -10 11 3 15 9 10 13 -6 3 -16 2 -24
-3z"/>
<path d="M3680 3299 c0 -5 5 -7 10 -4 6 3 10 8 10 11 0 2 -4 4 -10 4 -5 0 -10
-5 -10 -11z"/>
<path d="M4140 3300 c0 -5 5 -10 10 -10 6 0 10 5 10 10 0 6 -4 10 -10 10 -5 0
-10 -4 -10 -10z"/>
<path d="M2888 3293 c7 -3 16 -2 19 1 4 3 -2 6 -13 5 -11 0 -14 -3 -6 -6z"/>
<path d="M4015 3290 c3 -5 8 -10 11 -10 2 0 4 5 4 10 0 6 -5 10 -11 10 -5 0
-7 -4 -4 -10z"/>
<path d="M3470 3280 c0 -5 5 -10 10 -10 6 0 10 5 10 10 0 6 -4 10 -10 10 -5 0
-10 -4 -10 -10z"/>
<path d="M3877 3277 c-3 -8 -1 -20 4 -28 5 -9 9 -9 9 -2 0 6 3 18 6 27 3 9 2
16 -4 16 -5 0 -12 -6 -15 -13z"/>
<path d="M4056 3281 c-4 -7 -5 -15 -2 -18 9 -9 19 4 14 18 -4 11 -6 11 -12 0z"/>
<path d="M2955 3270 c-3 -5 -1 -10 4 -10 6 0 11 5 11 10 0 6 -2 10 -4 10 -3 0
-8 -4 -11 -10z"/>
<path d="M3760 3275 c0 -5 5 -17 10 -25 5 -8 10 -10 10 -5 0 6 -5 17 -10 25
-5 8 -10 11 -10 5z"/>
<path d="M3815 3270 c3 -5 8 -10 11 -10 2 0 4 5 4 10 0 6 -5 10 -11 10 -5 0
-7 -4 -4 -10z"/>
<path d="M3950 3274 c0 -17 17 -36 24 -26 3 5 -1 15 -9 22 -8 7 -15 9 -15 4z"/>
<path d="M4100 3273 c-28 -11 -40 -31 -32 -52 7 -20 8 -20 25 9 10 16 22 30
28 30 5 0 9 5 9 10 0 11 -7 12 -30 3z"/>
<path d="M3370 3260 c0 -5 5 -10 10 -10 6 0 10 5 10 10 0 6 -4 10 -10 10 -5 0
-10 -4 -10 -10z"/>
<path d="M4010 3250 c0 -5 5 -10 11 -10 5 0 7 5 4 10 -3 6 -8 10 -11 10 -2 0
-4 -4 -4 -10z"/>
<path d="M4150 3246 c0 -8 -8 -17 -19 -21 -10 -3 -27 -15 -37 -27 -19 -21 -19
-21 0 -14 12 4 23 2 27 -6 10 -16 39 20 32 39 -3 7 2 16 11 19 20 8 21 24 1
24 -8 0 -15 -6 -15 -14z"/>
<path d="M4196 3245 c4 -8 8 -15 10 -15 2 0 4 7 4 15 0 8 -4 15 -10 15 -5 0
-7 -7 -4 -15z"/>
<path d="M1760 3230 c0 -5 5 -10 10 -10 6 0 10 5 10 10 0 6 -4 10 -10 10 -5 0
-10 -4 -10 -10z"/>
<path d="M4170 3216 c0 -13 39 -30 49 -21 5 6 -29 34 -41 35 -5 0 -8 -6 -8
-14z"/>
<path d="M3800 3200 c0 -5 5 -10 10 -10 6 0 10 5 10 10 0 6 -4 10 -10 10 -5 0
-10 -4 -10 -10z"/>
<path d="M4018 3203 c7 -3 16 -2 19 1 4 3 -2 6 -13 5 -11 0 -14 -3 -6 -6z"/>
<path d="M1840 3180 c0 -5 5 -10 10 -10 6 0 10 5 10 10 0 6 -4 10 -10 10 -5 0
-10 -4 -10 -10z"/>
<path d="M3895 3170 c-3 -5 -1 -10 4 -10 6 0 11 5 11 10 0 6 -2 10 -4 10 -3 0
-8 -4 -11 -10z"/>
<path d="M3985 3170 c-3 -5 -1 -10 4 -10 6 0 11 5 11 10 0 6 -2 10 -4 10 -3 0
-8 -4 -11 -10z"/>
<path d="M4207 3173 c-12 -11 -8 -23 8 -23 8 0 15 -7 15 -16 0 -10 6 -14 15
-11 8 4 17 2 20 -3 4 -6 22 -10 41 -10 39 0 44 16 17 49 -16 19 -22 20 -53 11
-23 -7 -36 -7 -38 0 -4 11 -16 13 -25 3z"/>
<path d="M3360 3159 c0 -5 5 -7 10 -4 6 3 10 8 10 11 0 2 -4 4 -10 4 -5 0 -10
-5 -10 -11z"/>
<path d="M3730 3157 c0 -9 -7 -17 -15 -17 -8 0 -15 -4 -15 -10 0 -14 11 -12
34 5 16 12 17 18 8 27 -9 9 -12 8 -12 -5z"/>
<path d="M4040 3160 c0 -5 5 -10 10 -10 6 0 10 5 10 10 0 6 -4 10 -10 10 -5 0
-10 -4 -10 -10z"/>
<path d="M4160 3160 c0 -5 5 -10 10 -10 6 0 10 5 10 10 0 6 -4 10 -10 10 -5 0
-10 -4 -10 -10z"/>
<path d="M3620 3149 c0 -5 5 -7 10 -4 6 3 10 8 10 11 0 2 -4 4 -10 4 -5 0 -10
-5 -10 -11z"/>
<path d="M1805 3140 c3 -5 11 -10 16 -10 6 0 7 5 4 10 -3 6 -11 10 -16 10 -6
0 -7 -4 -4 -10z"/>
<path d="M2685 3140 c-3 -5 -1 -10 4 -10 6 0 11 5 11 10 0 6 -2 10 -4 10 -3 0
-8 -4 -11 -10z"/>
<path d="M4005 3139 c-10 -15 3 -25 16 -12 7 7 7 13 1 17 -6 3 -14 1 -17 -5z"/>
<path d="M4085 3140 c-3 -5 -2 -17 3 -26 8 -15 10 -15 16 1 5 14 9 15 21 5 12
-10 15 -10 15 3 0 23 -43 36 -55 17z"/>
<path d="M2330 3130 c0 -5 5 -10 10 -10 6 0 10 5 10 10 0 6 -4 10 -10 10 -5 0
-10 -4 -10 -10z"/>
<path d="M3840 3119 c0 -11 5 -17 10 -14 6 3 10 13 10 21 0 8 -4 14 -10 14 -5
0 -10 -9 -10 -21z"/>
<path d="M3930 3129 c0 -5 5 -7 10 -4 6 3 10 8 10 11 0 2 -4 4 -10 4 -5 0 -10
-5 -10 -11z"/>
<path d="M4157 3123 c-12 -11 -8 -23 8 -23 8 0 15 7 15 15 0 16 -12 20 -23 8z"/>
<path d="M4196 3113 c-12 -13 -6 -33 15 -44 15 -8 24 -8 32 0 8 8 6 11 -6 11
-9 0 -17 6 -17 14 0 17 -14 28 -24 19z"/>
<path d="M1785 3100 c-3 -5 1 -10 10 -10 9 0 13 5 10 10 -3 6 -8 10 -10 10 -2
0 -7 -4 -10 -10z"/>
<path d="M3580 3100 c0 -5 5 -10 10 -10 6 0 10 5 10 10 0 6 -4 10 -10 10 -5 0
-10 -4 -10 -10z"/>
<path d="M3640 3090 c0 -5 5 -10 10 -10 6 0 10 5 10 10 0 6 -4 10 -10 10 -5 0
-10 -4 -10 -10z"/>
<path d="M4000 3090 c0 -5 5 -10 10 -10 6 0 10 5 10 10 0 6 -4 10 -10 10 -5 0
-10 -4 -10 -10z"/>
<path d="M4027 3059 c-10 -11 -16 -24 -12 -27 3 -4 10 0 14 7 6 9 18 11 35 7
15 -4 26 -2 26 4 0 5 -7 10 -15 10 -8 0 -15 5 -15 10 0 16 -14 12 -33 -11z"/>
<path d="M4140 3060 c0 -5 5 -10 10 -10 6 0 10 5 10 10 0 6 -4 10 -10 10 -5 0
-10 -4 -10 -10z"/>
<path d="M3560 3040 c0 -5 5 -10 10 -10 6 0 10 5 10 10 0 6 -4 10 -10 10 -5 0
-10 -4 -10 -10z"/>
<path d="M4205 3040 c-3 -5 -15 -10 -26 -10 -10 0 -19 -4 -19 -10 0 -10 14
-14 38 -11 6 1 12 -5 12 -14 0 -8 5 -15 10 -15 6 0 10 16 10 35 0 34 -12 46
-25 25z"/>
<path d="M3975 3020 c3 -5 8 -10 11 -10 2 0 4 5 4 10 0 6 -5 10 -11 10 -5 0
-7 -4 -4 -10z"/>
<path d="M4060 3020 c0 -5 5 -10 11 -10 5 0 7 5 4 10 -3 6 -8 10 -11 10 -2 0
-4 -4 -4 -10z"/>
<path d="M4114 3005 c-12 -48 16 -45 31 3 5 16 2 22 -9 22 -9 0 -18 -11 -22
-25z"/>
<path d="M3415 3010 c-3 -5 -1 -10 4 -10 6 0 11 5 11 10 0 6 -2 10 -4 10 -3 0
-8 -4 -11 -10z"/>
<path d="M3178 3003 c7 -3 16 -2 19 1 4 3 -2 6 -13 5 -11 0 -14 -3 -6 -6z"/>
<path d="M3680 3000 c0 -5 5 -10 10 -10 6 0 10 5 10 10 0 6 -4 10 -10 10 -5 0
-10 -4 -10 -10z"/>
<path d="M1830 2990 c0 -5 5 -10 10 -10 6 0 10 5 10 10 0 6 -4 10 -10 10 -5 0
-10 -4 -10 -10z"/>
<path d="M3620 2990 c0 -5 5 -10 11 -10 5 0 7 5 4 10 -3 6 -8 10 -11 10 -2 0
-4 -4 -4 -10z"/>
<path d="M3760 2970 c0 -5 5 -10 10 -10 6 0 10 5 10 10 0 6 -4 10 -10 10 -5 0
-10 -4 -10 -10z"/>
<path d="M4160 2970 c0 -5 5 -10 10 -10 6 0 10 5 10 10 0 6 -4 10 -10 10 -5 0
-10 -4 -10 -10z"/>
<path d="M4051 2956 c-9 -11 -9 -16 0 -21 10 -7 28 10 29 28 0 12 -17 8 -29
-7z"/>
<path d="M3986 2939 c-12 -11 -15 -19 -7 -19 13 0 41 24 41 34 0 11 -15 5 -34
-15z"/>
<path d="M1730 2935 c0 -24 34 -36 56 -20 10 7 15 17 11 22 -5 4 -14 0 -22
-10 -12 -16 -13 -16 -18 3 -6 23 -27 27 -27 5z"/>
<path d="M3380 2929 c0 -5 5 -7 10 -4 6 3 10 8 10 11 0 2 -4 4 -10 4 -5 0 -10
-5 -10 -11z"/>
<path d="M3845 2930 c3 -5 8 -10 11 -10 2 0 4 5 4 10 0 6 -5 10 -11 10 -5 0
-7 -4 -4 -10z"/>
<path d="M4070 2914 c0 -16 23 -44 35 -44 20 0 19 13 -3 33 -19 17 -32 22 -32
11z"/>
<path d="M3720 2890 c0 -5 5 -10 10 -10 6 0 10 5 10 10 0 6 -4 10 -10 10 -5 0
-10 -4 -10 -10z"/>
<path d="M3995 2890 c-3 -5 -1 -10 4 -10 6 0 11 5 11 10 0 6 -2 10 -4 10 -3 0
-8 -4 -11 -10z"/>
<path d="M4025 2890 c-3 -5 1 -10 10 -10 9 0 13 5 10 10 -3 6 -8 10 -10 10 -2
0 -7 -4 -10 -10z"/>
<path d="M4165 2890 c-4 -6 5 -10 19 -10 14 0 26 5 26 10 0 6 -9 10 -19 10
-11 0 -23 -4 -26 -10z"/>
<path d="M2485 2880 c-3 -5 -2 -10 4 -10 5 0 13 5 16 10 3 6 2 10 -4 10 -5 0
-13 -4 -16 -10z"/>
<path d="M1810 2870 c0 -5 5 -10 10 -10 6 0 10 5 10 10 0 6 -4 10 -10 10 -5 0
-10 -4 -10 -10z"/>
<path d="M4126 2865 c-7 -19 3 -47 15 -39 12 7 12 54 0 54 -5 0 -11 -7 -15
-15z"/>
<path d="M3815 2860 c3 -5 8 -10 11 -10 2 0 4 5 4 10 0 6 -5 10 -11 10 -5 0
-7 -4 -4 -10z"/>
<path d="M4053 2851 c-7 -10 -9 -22 -6 -25 13 -12 21 -5 21 19 0 30 0 30 -15
6z"/>
<path d="M3740 2838 c0 -7 5 -20 10 -28 8 -13 10 -12 10 3 0 9 0 20 1 24 0 4
-4 9 -10 11 -6 2 -11 -2 -11 -10z"/>
<path d="M3990 2841 c0 -8 44 -41 55 -41 3 0 5 5 5 10 0 6 -7 10 -15 10 -8 0
-15 4 -15 9 0 5 -7 11 -15 15 -8 3 -15 2 -15 -3z"/>
<path d="M4090 2830 c0 -5 5 -10 11 -10 5 0 7 5 4 10 -3 6 -8 10 -11 10 -2 0
-4 -4 -4 -10z"/>
<path d="M3873 2809 c-1 -12 3 -19 10 -16 15 5 16 29 2 34 -6 2 -11 -6 -12
-18z"/>
<path d="M3955 2800 c-3 -5 -1 -10 4 -10 6 0 11 5 11 10 0 6 -2 10 -4 10 -3 0
-8 -4 -11 -10z"/>
<path d="M3981 2781 c-6 -11 -7 -22 -2 -25 5 -3 11 4 14 16 8 30 1 35 -12 9z"/>
<path d="M4100 2796 c0 -13 23 -51 38 -62 13 -9 12 -12 -7 -17 -30 -8 -26 -26
6 -24 20 2 27 8 28 25 1 13 -2 25 -7 28 -4 3 -8 14 -8 25 0 12 -5 17 -10 14
-6 -4 -17 -1 -25 5 -8 7 -15 9 -15 6z"/>
<path d="M2360 2779 c0 -5 5 -7 10 -4 6 3 10 8 10 11 0 2 -4 4 -10 4 -5 0 -10
-5 -10 -11z"/>
<path d="M4050 2770 c0 -5 4 -10 9 -10 6 0 13 5 16 10 3 6 -1 10 -9 10 -9 0
-16 -4 -16 -10z"/>
<path d="M3895 2760 c-3 -5 -1 -10 4 -10 6 0 11 5 11 10 0 6 -2 10 -4 10 -3 0
-8 -4 -11 -10z"/>
<path d="M3725 2750 c-3 -5 -1 -10 4 -10 6 0 11 5 11 10 0 6 -2 10 -4 10 -3 0
-8 -4 -11 -10z"/>
<path d="M4023 2745 c4 -8 2 -17 -3 -20 -6 -4 -10 -11 -10 -17 0 -6 3 -8 7 -5
3 4 12 2 20 -5 25 -20 39 6 19 36 -18 28 -42 36 -33 11z"/>
<path d="M4090 2741 c0 -6 5 -13 10 -16 6 -3 10 1 10 9 0 9 -4 16 -10 16 -5 0
-10 -4 -10 -9z"/>
<path d="M1800 2719 c0 -5 5 -7 10 -4 6 3 10 8 10 11 0 2 -4 4 -10 4 -5 0 -10
-5 -10 -11z"/>
<path d="M3795 2710 c-3 -5 1 -10 10 -10 9 0 13 5 10 10 -3 6 -8 10 -10 10 -2
0 -7 -4 -10 -10z"/>
<path d="M3950 2681 c-10 -19 -8 -20 22 -14 49 9 51 15 11 27 -16 5 -25 2 -33
-13z"/>
<path d="M3880 2680 c0 -5 5 -10 10 -10 6 0 10 5 10 10 0 6 -4 10 -10 10 -5 0
-10 -4 -10 -10z"/>
<path d="M4020 2660 c0 -5 5 -10 11 -10 5 0 7 5 4 10 -3 6 -8 10 -11 10 -2 0
-4 -4 -4 -10z"/>
<path d="M1840 2636 c0 -9 5 -16 10 -16 6 0 10 4 10 9 0 6 -4 13 -10 16 -5 3
-10 -1 -10 -9z"/>
<path d="M1770 2620 c0 -5 5 -10 10 -10 6 0 10 5 10 10 0 6 -4 10 -10 10 -5 0
-10 -4 -10 -10z"/>
<path d="M4100 2620 c0 -5 5 -10 10 -10 6 0 10 5 10 10 0 6 -4 10 -10 10 -5 0
-10 -4 -10 -10z"/>
<path d="M2700 2610 c0 -5 5 -10 10 -10 6 0 10 5 10 10 0 6 -4 10 -10 10 -5 0
-10 -4 -10 -10z"/>
<path d="M4030 2610 c0 -5 5 -10 11 -10 5 0 7 5 4 10 -3 6 -8 10 -11 10 -2 0
-4 -4 -4 -10z"/>
<path d="M4143 2606 c8 -21 -30 -53 -45 -38 -17 17 -48 15 -48 -3 0 -40 76
-38 116 2 24 24 24 26 7 39 -23 17 -37 18 -30 0z"/>
<path d="M2835 2600 c3 -5 8 -10 11 -10 2 0 4 5 4 10 0 6 -5 10 -11 10 -5 0
-7 -4 -4 -10z"/>
<path d="M3980 2595 c0 -8 5 -15 10 -15 6 0 10 7 10 15 0 8 -4 15 -10 15 -5 0
-10 -7 -10 -15z"/>
<path d="M3885 2590 c3 -5 8 -10 11 -10 2 0 4 5 4 10 0 6 -5 10 -11 10 -5 0
-7 -4 -4 -10z"/>
<path d="M1785 2580 c3 -5 10 -10 16 -10 5 0 9 5 9 10 0 6 -7 10 -16 10 -8 0
-12 -4 -9 -10z"/>
<path d="M1820 2559 c0 -5 5 -7 10 -4 6 3 10 8 10 11 0 2 -4 4 -10 4 -5 0 -10
-5 -10 -11z"/>
<path d="M3800 2560 c0 -5 5 -10 11 -10 5 0 7 5 4 10 -3 6 -8 10 -11 10 -2 0
-4 -4 -4 -10z"/>
<path d="M1880 2546 c0 -8 5 -18 10 -21 6 -3 10 3 10 14 0 12 -4 21 -10 21 -5
0 -10 -6 -10 -14z"/>
<path d="M3720 2535 c0 -8 5 -15 10 -15 6 0 10 7 10 15 0 8 -4 15 -10 15 -5 0
-10 -7 -10 -15z"/>
<path d="M3850 2532 c0 -6 28 -32 34 -32 3 0 6 8 6 18 0 11 -7 18 -20 18 -11
0 -20 -2 -20 -4z"/>
<path d="M4005 2530 c-19 -7 -19 -7 2 -18 28 -15 33 -15 33 2 0 20 -11 25 -35
16z"/>
<path d="M3805 2510 c3 -5 8 -10 11 -10 2 0 4 5 4 10 0 6 -5 10 -11 10 -5 0
-7 -4 -4 -10z"/>
<path d="M3940 2510 c0 -5 5 -10 10 -10 6 0 10 5 10 10 0 6 -4 10 -10 10 -5 0
-10 -4 -10 -10z"/>
<path d="M1835 2490 c-3 -5 -2 -10 4 -10 5 0 13 5 16 10 3 6 2 10 -4 10 -5 0
-13 -4 -16 -10z"/>
<path d="M3977 2483 c-10 -9 -9 -23 2 -23 5 0 11 7 15 15 5 15 -5 20 -17 8z"/>
<path d="M4050 2474 c0 -6 10 -14 23 -18 34 -9 39 -7 35 11 -3 19 -58 26 -58
7z"/>
<path d="M3695 2461 c-3 -5 -1 -12 5 -16 5 -3 10 1 10 9 0 18 -6 21 -15 7z"/>
<path d="M3625 2450 c3 -5 8 -10 11 -10 2 0 4 5 4 10 0 6 -5 10 -11 10 -5 0
-7 -4 -4 -10z"/>
<path d="M3770 2450 c0 -5 5 -10 10 -10 6 0 10 5 10 10 0 6 -4 10 -10 10 -5 0
-10 -4 -10 -10z"/>
<path d="M3950 2440 c0 -5 9 -14 20 -20 16 -8 20 -8 20 4 0 7 -7 17 -16 20
-21 8 -24 8 -24 -4z"/>
<path d="M2570 2430 c0 -5 5 -10 11 -10 5 0 7 5 4 10 -3 6 -8 10 -11 10 -2 0
-4 -4 -4 -10z"/>
<path d="M4021 2427 c-6 -8 -6 -18 -1 -26 7 -12 11 -12 24 2 20 19 20 23 2 30
-8 3 -19 0 -25 -6z"/>
<path d="M2095 2420 c3 -5 8 -10 11 -10 2 0 4 5 4 10 0 6 -5 10 -11 10 -5 0
-7 -4 -4 -10z"/>
<path d="M3800 2409 c0 -5 5 -7 10 -4 6 3 10 8 10 11 0 2 -4 4 -10 4 -5 0 -10
-5 -10 -11z"/>
<path d="M1810 2398 c0 -7 4 -19 9 -26 7 -11 10 -10 15 3 3 9 4 21 0 26 -8 13
-24 11 -24 -3z"/>
<path d="M3500 2400 c0 -5 5 -10 10 -10 6 0 10 5 10 10 0 6 -4 10 -10 10 -5 0
-10 -4 -10 -10z"/>
<path d="M3912 2399 c2 -7 10 -15 17 -17 8 -3 12 1 9 9 -2 7 -10 15 -17 17 -8
3 -12 -1 -9 -9z"/>
<path d="M1905 2380 c3 -5 8 -10 11 -10 2 0 4 5 4 10 0 6 -5 10 -11 10 -5 0
-7 -4 -4 -10z"/>
<path d="M3720 2380 c0 -5 7 -10 15 -10 8 0 15 5 15 10 0 6 -7 10 -15 10 -8 0
-15 -4 -15 -10z"/>
<path d="M3885 2380 c-3 -5 -1 -10 4 -10 6 0 11 5 11 10 0 6 -2 10 -4 10 -3 0
-8 -4 -11 -10z"/>
<path d="M3980 2380 c0 -5 5 -10 10 -10 6 0 10 5 10 10 0 6 -4 10 -10 10 -5 0
-10 -4 -10 -10z"/>
<path d="M2750 2360 c0 -5 5 -10 10 -10 6 0 10 5 10 10 0 6 -4 10 -10 10 -5 0
-10 -4 -10 -10z"/>
<path d="M4020 2360 c0 -5 6 -10 14 -10 8 0 18 5 21 10 3 6 -3 10 -14 10 -12
0 -21 -4 -21 -10z"/>
<path d="M1848 2349 c-19 -11 -24 -29 -8 -29 5 0 14 9 20 20 12 23 12 23 -12
9z"/>
<path d="M4073 2353 c-33 -6 -28 -23 7 -23 20 0 30 5 30 15 0 8 -3 14 -7 14
-5 -1 -18 -4 -30 -6z"/>
<path d="M3814 2335 c3 -9 6 -19 6 -21 0 -2 7 -4 16 -4 22 0 13 34 -10 38 -14
3 -17 0 -12 -13z"/>
<path d="M3985 2330 c-4 -6 0 -17 9 -25 18 -18 22 -19 29 -2 6 16 -29 41 -38
27z"/>
<path d="M1916 2321 c-4 -7 -5 -15 -2 -18 9 -9 19 4 14 18 -4 11 -6 11 -12 0z"/>
<path d="M2230 2320 c0 -5 5 -10 10 -10 6 0 10 5 10 10 0 6 -4 10 -10 10 -5 0
-10 -4 -10 -10z"/>
<path d="M3935 2320 c-7 -12 2 -30 16 -30 12 0 12 27 0 35 -5 3 -12 1 -16 -5z"/>
<path d="M3860 2294 c0 -8 5 -12 10 -9 6 3 10 10 10 16 0 5 -4 9 -10 9 -5 0
-10 -7 -10 -16z"/>
<path d="M4080 2290 c0 -5 5 -10 10 -10 6 0 10 5 10 10 0 6 -4 10 -10 10 -5 0
-10 -4 -10 -10z"/>
<path d="M3650 2280 c0 -5 5 -10 10 -10 6 0 10 5 10 10 0 6 -4 10 -10 10 -5 0
-10 -4 -10 -10z"/>
<path d="M3770 2280 c0 -5 4 -10 9 -10 6 0 13 5 16 10 3 6 -1 10 -9 10 -9 0
-16 -4 -16 -10z"/>
<path d="M4110 2282 c0 -19 12 -42 22 -42 14 0 5 43 -9 48 -7 2 -13 -1 -13 -6z"/>
<path d="M4020 2269 c0 -5 5 -7 10 -4 6 3 10 8 10 11 0 2 -4 4 -10 4 -5 0 -10
-5 -10 -11z"/>
<path d="M4052 2258 c-21 -21 -15 -40 11 -32 29 9 31 10 24 29 -8 18 -19 19
-35 3z"/>
<path d="M3917 2253 c-4 -3 -7 -11 -7 -17 0 -6 5 -5 12 2 6 6 9 14 7 17 -3 3
-9 2 -12 -2z"/>
<path d="M1857 2228 c4 -7 8 -22 8 -32 0 -11 6 -21 13 -23 7 -3 12 5 12 21 0
20 5 26 21 26 35 0 13 16 -26 18 -28 2 -35 0 -28 -10z"/>
<path d="M1945 2220 c-3 -5 -1 -10 4 -10 6 0 11 5 11 10 0 6 -2 10 -4 10 -3 0
-8 -4 -11 -10z"/>
<path d="M3801 2220 c0 -8 4 -24 9 -35 l9 -20 0 20 c0 11 -4 27 -9 35 -9 13
-10 13 -9 0z"/>
<path d="M3745 2210 c3 -5 8 -10 11 -10 2 0 4 5 4 10 0 6 -5 10 -11 10 -5 0
-7 -4 -4 -10z"/>
<path d="M3880 2210 c0 -5 5 -10 11 -10 5 0 7 5 4 10 -3 6 -8 10 -11 10 -2 0
-4 -4 -4 -10z"/>
<path d="M3225 2200 c3 -5 8 -10 11 -10 2 0 4 5 4 10 0 6 -5 10 -11 10 -5 0
-7 -4 -4 -10z"/>
<path d="M1916 2190 c-15 -5 -16 -9 -7 -14 7 -5 18 -3 24 3 14 14 6 20 -17 11z"/>
<path d="M4020 2194 c0 -8 32 -33 43 -34 5 0 7 6 5 13 -3 6 -9 12 -14 12 -5 0
-15 4 -21 8 -7 5 -13 5 -13 1z"/>
<path d="M3397 2174 c-4 -4 -7 -14 -7 -23 0 -11 3 -12 11 -4 6 6 10 16 7 23
-2 6 -7 8 -11 4z"/>
<path d="M3680 2170 c0 -5 5 -10 11 -10 5 0 7 5 4 10 -3 6 -8 10 -11 10 -2 0
-4 -4 -4 -10z"/>
<path d="M3878 2173 c7 -3 16 -2 19 1 4 3 -2 6 -13 5 -11 0 -14 -3 -6 -6z"/>
<path d="M3950 2172 c0 -4 9 -13 20 -20 23 -14 26 -7 6 14 -16 15 -26 18 -26
6z"/>
<path d="M1920 2146 c0 -8 4 -17 9 -20 10 -7 23 19 14 28 -11 11 -23 6 -23 -8z"/>
<path d="M2005 2150 c-3 -5 1 -10 10 -10 9 0 13 5 10 10 -3 6 -8 10 -10 10 -2
0 -7 -4 -10 -10z"/>
<path d="M3790 2156 c0 -2 7 -6 15 -10 8 -3 15 -1 15 4 0 6 -7 10 -15 10 -8 0
-15 -2 -15 -4z"/>
<path d="M2070 2141 c0 -6 5 -13 10 -16 6 -3 10 1 10 9 0 9 -4 16 -10 16 -5 0
-10 -4 -10 -9z"/>
<path d="M2790 2140 c0 -5 5 -10 10 -10 6 0 10 5 10 10 0 6 -4 10 -10 10 -5 0
-10 -4 -10 -10z"/>
<path d="M3996 2134 c-8 -22 -8 -24 8 -24 12 0 26 20 26 36 0 12 -29 2 -34
-12z"/>
<path d="M3110 2130 c0 -5 5 -10 11 -10 5 0 7 5 4 10 -3 6 -8 10 -11 10 -2 0
-4 -4 -4 -10z"/>
<path d="M3630 2119 c0 -5 5 -7 10 -4 6 3 10 8 10 11 0 2 -4 4 -10 4 -5 0 -10
-5 -10 -11z"/>
<path d="M2260 2100 c0 -5 5 -10 11 -10 5 0 7 5 4 10 -3 6 -8 10 -11 10 -2 0
-4 -4 -4 -10z"/>
<path d="M2555 2100 c3 -5 8 -10 11 -10 2 0 4 5 4 10 0 6 -5 10 -11 10 -5 0
-7 -4 -4 -10z"/>
<path d="M1947 2093 c-12 -11 -8 -23 8 -23 8 0 15 7 15 15 0 16 -12 20 -23 8z"/>
<path d="M3470 2085 c0 -8 5 -15 10 -15 6 0 10 7 10 15 0 8 -4 15 -10 15 -5 0
-10 -7 -10 -15z"/>
<path d="M3750 2084 c0 -8 5 -12 10 -9 6 3 10 10 10 16 0 5 -4 9 -10 9 -5 0
-10 -7 -10 -16z"/>
<path d="M2000 2080 c0 -5 5 -10 11 -10 5 0 7 5 4 10 -3 6 -8 10 -11 10 -2 0
-4 -4 -4 -10z"/>
<path d="M3860 2075 c0 -8 2 -15 4 -15 2 0 11 -3 20 -6 23 -9 20 13 -4 26 -16
9 -20 8 -20 -5z"/>
<path d="M3917 2063 c-4 -3 -7 -13 -7 -21 0 -12 3 -12 15 -2 8 7 15 16 15 21
0 11 -14 12 -23 2z"/>
<path d="M4157 2043 c-10 -9 -9 -23 2 -23 5 0 11 7 15 15 5 15 -5 20 -17 8z"/>
<path d="M3080 2030 c0 -5 5 -10 10 -10 6 0 10 5 10 10 0 6 -4 10 -10 10 -5 0
-10 -4 -10 -10z"/>
<path d="M3850 2030 c0 -5 7 -10 15 -10 8 0 15 5 15 10 0 6 -7 10 -15 10 -8 0
-15 -4 -15 -10z"/>
<path d="M2000 2020 c0 -5 7 -10 15 -10 8 0 15 5 15 10 0 6 -7 10 -15 10 -8 0
-15 -4 -15 -10z"/>
<path d="M3178 2023 c7 -3 16 -2 19 1 4 3 -2 6 -13 5 -11 0 -14 -3 -6 -6z"/>
<path d="M3600 2020 c0 -5 5 -10 11 -10 5 0 7 5 4 10 -3 6 -8 10 -11 10 -2 0
-4 -4 -4 -10z"/>
<path d="M3931 2016 c-8 -9 -11 -19 -7 -23 9 -9 29 13 24 27 -2 8 -8 7 -17 -4z"/>
<path d="M3670 2009 c0 -5 5 -7 10 -4 6 3 10 8 10 11 0 2 -4 4 -10 4 -5 0 -10
-5 -10 -11z"/>
<path d="M3810 2006 c0 -8 5 -18 10 -21 6 -3 10 3 10 14 0 12 -4 21 -10 21 -5
0 -10 -6 -10 -14z"/>
<path d="M2680 2000 c0 -5 5 -10 10 -10 6 0 10 5 10 10 0 6 -4 10 -10 10 -5 0
-10 -4 -10 -10z"/>
<path d="M3310 2000 c0 -5 5 -10 10 -10 6 0 10 5 10 10 0 6 -4 10 -10 10 -5 0
-10 -4 -10 -10z"/>
<path d="M2585 1970 c3 -5 13 -10 21 -10 8 0 12 5 9 10 -3 6 -13 10 -21 10 -8
0 -12 -4 -9 -10z"/>
<path d="M3685 1970 c4 -6 11 -8 16 -5 14 9 11 15 -7 15 -8 0 -12 -5 -9 -10z"/>
<path d="M3433 1963 c-21 -8 -15 -22 7 -16 11 3 20 9 20 14 0 10 -8 10 -27 2z"/>
<path d="M3625 1950 c3 -5 8 -10 11 -10 2 0 4 5 4 10 0 6 -5 10 -11 10 -5 0
-7 -4 -4 -10z"/>
<path d="M3725 1940 c3 -5 11 -10 16 -10 6 0 7 5 4 10 -3 6 -11 10 -16 10 -6
0 -7 -4 -4 -10z"/>
<path d="M3530 1930 c0 -5 5 -10 11 -10 5 0 7 5 4 10 -3 6 -8 10 -11 10 -2 0
-4 -4 -4 -10z"/>
<path d="M3780 1932 c0 -4 -11 -20 -25 -35 -31 -33 -18 -36 18 -4 27 23 36 47
17 47 -5 0 -10 -3 -10 -8z"/>
<path d="M2950 1920 c0 -5 5 -10 11 -10 5 0 7 5 4 10 -3 6 -8 10 -11 10 -2 0
-4 -4 -4 -10z"/>
<path d="M3465 1910 c3 -5 8 -10 11 -10 2 0 4 5 4 10 0 6 -5 10 -11 10 -5 0
-7 -4 -4 -10z"/>
<path d="M3580 1910 c0 -5 5 -10 10 -10 6 0 10 5 10 10 0 6 -4 10 -10 10 -5 0
-10 -4 -10 -10z"/>
<path d="M3970 1912 c-8 -4 -16 -19 -18 -34 -3 -24 0 -28 20 -27 13 0 17 3 11
6 -18 7 -16 32 2 39 8 4 15 10 15 15 0 10 -9 11 -30 1z"/>
<path d="M2092 1895 c-17 -19 -1 -19 24 0 14 11 15 14 4 14 -8 0 -21 -6 -28
-14z"/>
<path d="M3670 1899 c0 -5 5 -7 10 -4 6 3 10 8 10 11 0 2 -4 4 -10 4 -5 0 -10
-5 -10 -11z"/>
<path d="M2615 1890 c4 -6 11 -8 16 -5 14 9 11 15 -7 15 -8 0 -12 -5 -9 -10z"/>
<path d="M3800 1890 c0 -11 40 -50 51 -50 14 0 3 30 -17 45 -22 17 -34 19 -34
5z"/>
<path d="M3600 1880 c0 -5 5 -10 11 -10 5 0 7 5 4 10 -3 6 -8 10 -11 10 -2 0
-4 -4 -4 -10z"/>
<path d="M3120 1870 c0 -5 5 -10 10 -10 6 0 10 5 10 10 0 6 -4 10 -10 10 -5 0
-10 -4 -10 -10z"/>
<path d="M3521 1866 c-16 -19 -11 -29 8 -17 7 5 12 14 9 21 -3 9 -8 7 -17 -4z"/>
<path d="M3644 1844 c3 -9 6 -21 6 -27 0 -7 5 -4 11 6 11 18 5 37 -13 37 -5 0
-7 -7 -4 -16z"/>
<path d="M3712 1842 c-13 -4 -23 -10 -23 -14 1 -5 1 -12 1 -18 0 -5 5 -10 10
-10 6 0 10 7 10 15 0 8 6 15 14 15 8 0 18 5 21 10 7 11 1 11 -33 2z"/>
<path d="M2670 1830 c0 -5 5 -10 11 -10 5 0 7 5 4 10 -3 6 -8 10 -11 10 -2 0
-4 -4 -4 -10z"/>
<path d="M3410 1821 c0 -12 5 -21 10 -21 6 0 10 6 10 14 0 8 -4 18 -10 21 -5
3 -10 -3 -10 -14z"/>
<path d="M3580 1830 c0 -5 5 -10 11 -10 5 0 7 5 4 10 -3 6 -8 10 -11 10 -2 0
-4 -4 -4 -10z"/>
<path d="M2175 1820 c4 -6 11 -8 16 -5 14 9 11 15 -7 15 -8 0 -12 -5 -9 -10z"/>
<path d="M3340 1820 c0 -5 5 -10 10 -10 6 0 10 5 10 10 0 6 -4 10 -10 10 -5 0
-10 -4 -10 -10z"/>
<path d="M2128 1803 c7 -3 16 -2 19 1 4 3 -2 6 -13 5 -11 0 -14 -3 -6 -6z"/>
<path d="M3145 1790 c3 -5 8 -10 11 -10 2 0 4 5 4 10 0 6 -5 10 -11 10 -5 0
-7 -4 -4 -10z"/>
<path d="M3230 1790 c0 -5 5 -10 10 -10 6 0 10 5 10 10 0 6 -4 10 -10 10 -5 0
-10 -4 -10 -10z"/>
<path d="M2790 1779 c0 -5 5 -7 10 -4 6 3 10 8 10 11 0 2 -4 4 -10 4 -5 0 -10
-5 -10 -11z"/>
<path d="M2170 1770 c0 -5 5 -10 10 -10 6 0 10 5 10 10 0 6 -4 10 -10 10 -5 0
-10 -4 -10 -10z"/>
<path d="M2260 1764 c0 -8 5 -12 10 -9 6 3 10 10 10 16 0 5 -4 9 -10 9 -5 0
-10 -7 -10 -16z"/>
<path d="M2415 1770 c-3 -5 -1 -10 4 -10 6 0 11 5 11 10 0 6 -2 10 -4 10 -3 0
-8 -4 -11 -10z"/>
<path d="M3699 1770 c-7 -5 -10 -12 -6 -16 4 -4 2 -13 -5 -21 -13 -16 -6 -25
24 -29 20 -2 23 3 23 32 0 36 -13 48 -36 34z"/>
<path d="M2970 1760 c0 -5 5 -10 11 -10 5 0 7 5 4 10 -3 6 -8 10 -11 10 -2 0
-4 -4 -4 -10z"/>
<path d="M3600 1750 c0 -14 38 -55 45 -48 9 9 -4 33 -25 46 -13 8 -20 8 -20 2z"/>
<path d="M2725 1740 c-3 -5 -1 -10 4 -10 6 0 11 5 11 10 0 6 -2 10 -4 10 -3 0
-8 -4 -11 -10z"/>
<path d="M3546 1741 c-3 -5 1 -11 9 -15 8 -3 15 -1 15 4 0 13 -18 22 -24 11z"/>
<path d="M3427 1733 c-4 -3 -7 -11 -7 -17 0 -6 5 -5 12 2 6 6 9 14 7 17 -3 3
-9 2 -12 -2z"/>
<path d="M2320 1718 c0 -11 12 -10 30 2 12 7 10 9 -8 7 -12 0 -22 -5 -22 -9z"/>
<path d="M3080 1710 c0 -5 5 -10 10 -10 6 0 10 5 10 10 0 6 -4 10 -10 10 -5 0
-10 -4 -10 -10z"/>
<path d="M3115 1710 c-3 -5 -1 -10 4 -10 6 0 11 5 11 10 0 6 -2 10 -4 10 -3 0
-8 -4 -11 -10z"/>
<path d="M3450 1710 c0 -5 5 -10 10 -10 6 0 10 5 10 10 0 6 -4 10 -10 10 -5 0
-10 -4 -10 -10z"/>
<path d="M2265 1700 c-3 -5 -1 -10 4 -10 6 0 11 5 11 10 0 6 -2 10 -4 10 -3 0
-8 -4 -11 -10z"/>
<path d="M3540 1701 c0 -6 5 -13 10 -16 6 -4 8 -11 5 -16 -4 -5 -1 -9 4 -9 6
0 11 11 11 25 0 16 -6 25 -15 25 -8 0 -15 -4 -15 -9z"/>
<path d="M2540 1690 c0 -5 5 -10 11 -10 5 0 7 5 4 10 -3 6 -8 10 -11 10 -2 0
-4 -4 -4 -10z"/>
<path d="M3340 1690 c0 -5 7 -10 16 -10 8 0 12 5 9 10 -3 6 -10 10 -16 10 -5
0 -9 -4 -9 -10z"/>
<path d="M2800 1680 c0 -5 5 -10 10 -10 6 0 10 5 10 10 0 6 -4 10 -10 10 -5 0
-10 -4 -10 -10z"/>
<path d="M2235 1670 c-3 -5 -1 -10 4 -10 6 0 11 5 11 10 0 6 -2 10 -4 10 -3 0
-8 -4 -11 -10z"/>
<path d="M2286 1665 c-11 -8 -17 -18 -13 -21 10 -11 37 4 37 21 0 18 0 18 -24
0z"/>
<path d="M3470 1670 c0 -5 5 -10 11 -10 5 0 7 5 4 10 -3 6 -8 10 -11 10 -2 0
-4 -4 -4 -10z"/>
<path d="M3510 1673 c0 -5 7 -18 15 -29 12 -16 14 -16 15 -3 0 9 -7 22 -15 29
-8 7 -15 8 -15 3z"/>
<path d="M3701 1658 c-5 -13 -7 -25 -5 -27 7 -7 34 21 34 35 0 22 -20 16 -29
-8z"/>
<path d="M2364 1661 c3 -5 15 -11 26 -14 17 -4 19 -3 9 9 -12 15 -44 20 -35 5z"/>
<path d="M2595 1660 c3 -5 11 -10 16 -10 6 0 7 5 4 10 -3 6 -11 10 -16 10 -6
0 -7 -4 -4 -10z"/>
<path d="M2756 1651 c-4 -5 -2 -12 3 -15 5 -4 12 -2 15 3 4 5 2 12 -3 15 -5 4
-12 2 -15 -3z"/>
<path d="M3375 1650 c3 -5 8 -10 11 -10 2 0 4 5 4 10 0 6 -5 10 -11 10 -5 0
-7 -4 -4 -10z"/>
<path d="M2490 1640 c0 -5 5 -10 11 -10 5 0 7 5 4 10 -3 6 -8 10 -11 10 -2 0
-4 -4 -4 -10z"/>
<path d="M3250 1640 c0 -5 5 -10 11 -10 5 0 7 5 4 10 -3 6 -8 10 -11 10 -2 0
-4 -4 -4 -10z"/>
<path d="M2951 1624 c0 -11 3 -14 6 -6 3 7 2 16 -1 19 -3 4 -6 -2 -5 -13z"/>
<path d="M3285 1620 c-3 -5 3 -10 14 -10 12 0 21 5 21 10 0 6 -6 10 -14 10 -8
0 -18 -4 -21 -10z"/>
<path d="M3494 1605 c0 -14 7 -25 14 -25 16 0 12 42 -4 47 -7 2 -11 -6 -10
-22z"/>
<path d="M2300 1614 c0 -7 27 -34 34 -34 4 0 1 9 -6 20 -12 19 -28 27 -28 14z"/>
<path d="M2342 1609 c2 -7 10 -15 17 -17 8 -3 12 1 9 9 -2 7 -10 15 -17 17 -8
3 -12 -1 -9 -9z"/>
<path d="M2470 1610 c0 -5 5 -10 10 -10 6 0 10 5 10 10 0 6 -4 10 -10 10 -5 0
-10 -4 -10 -10z"/>
<path d="M3160 1610 c0 -5 5 -10 10 -10 6 0 10 5 10 10 0 6 -4 10 -10 10 -5 0
-10 -4 -10 -10z"/>
<path d="M3195 1610 c3 -5 11 -10 16 -10 6 0 7 5 4 10 -3 6 -11 10 -16 10 -6
0 -7 -4 -4 -10z"/>
<path d="M3406 1602 c-8 -14 30 -44 51 -40 15 3 12 7 -14 26 -17 12 -34 18
-37 14z"/>
<path d="M2575 1590 c-3 -5 -1 -10 4 -10 6 0 11 5 11 10 0 6 -2 10 -4 10 -3 0
-8 -4 -11 -10z"/>
<path d="M2702 1575 c-13 -29 -8 -32 15 -9 10 10 12 19 6 25 -6 6 -14 0 -21
-16z"/>
<path d="M3375 1590 c3 -5 8 -10 11 -10 2 0 4 5 4 10 0 6 -5 10 -11 10 -5 0
-7 -4 -4 -10z"/>
<path d="M2400 1579 c0 -5 5 -7 10 -4 6 3 10 8 10 11 0 2 -4 4 -10 4 -5 0 -10
-5 -10 -11z"/>
<path d="M3250 1580 c0 -5 5 -10 10 -10 6 0 10 5 10 10 0 6 -4 10 -10 10 -5 0
-10 -4 -10 -10z"/>
<path d="M2450 1570 c0 -5 5 -10 11 -10 5 0 7 5 4 10 -3 6 -8 10 -11 10 -2 0
-4 -4 -4 -10z"/>
<path d="M2490 1570 c0 -5 5 -10 10 -10 6 0 10 5 10 10 0 6 -4 10 -10 10 -5 0
-10 -4 -10 -10z"/>
<path d="M2790 1556 c0 -8 5 -18 10 -21 6 -3 10 1 10 9 0 8 -4 18 -10 21 -5 3
-10 -1 -10 -9z"/>
<path d="M3362 1558 c-17 -17 -15 -38 3 -38 8 0 15 5 15 10 0 7 6 7 19 0 14
-7 22 -7 26 1 4 6 -2 13 -14 16 -12 3 -21 9 -21 14 0 13 -14 11 -28 -3z"/>
<path d="M2856 1544 c-3 -8 -10 -13 -15 -9 -5 3 -12 1 -16 -5 -4 -6 6 -10 24
-10 24 0 31 4 31 20 0 24 -15 27 -24 4z"/>
<path d="M2930 1550 c-9 -6 -10 -10 -3 -10 6 0 15 5 18 10 8 12 4 12 -15 0z"/>
<path d="M2988 1553 c7 -3 16 -2 19 1 4 3 -2 6 -13 5 -11 0 -14 -3 -6 -6z"/>
<path d="M2510 1540 c0 -5 5 -10 10 -10 6 0 10 5 10 10 0 6 -4 10 -10 10 -5 0
-10 -4 -10 -10z"/>
<path d="M2595 1540 c-3 -5 1 -10 10 -10 9 0 13 5 10 10 -3 6 -8 10 -10 10 -2
0 -7 -4 -10 -10z"/>
<path d="M2630 1533 c0 -9 3 -13 7 -10 3 4 12 2 20 -4 18 -15 17 -1 -1 17 -19
18 -26 18 -26 -3z"/>
<path d="M3255 1540 c3 -5 8 -10 11 -10 2 0 4 5 4 10 0 6 -5 10 -11 10 -5 0
-7 -4 -4 -10z"/>
<path d="M2420 1532 c0 -13 39 -32 45 -22 3 5 -3 14 -14 19 -23 13 -31 14 -31
3z"/>
<path d="M3305 1520 c10 -11 22 -20 27 -20 5 0 4 9 -2 20 -6 11 -18 20 -27 20
-14 0 -14 -2 2 -20z"/>
<path d="M2701 1519 c-17 -7 -21 -13 -14 -20 11 -11 53 8 53 23 0 10 -9 9 -39
-3z"/>
<path d="M2770 1520 c0 -5 5 -10 10 -10 6 0 10 5 10 10 0 6 -4 10 -10 10 -5 0
-10 -4 -10 -10z"/>
<path d="M3517 1523 c-17 -4 -21 -25 -4 -24 4 1 16 1 28 1 11 0 19 5 17 12 -5
14 -17 17 -41 11z"/>
<path d="M2610 1504 c0 -8 5 -12 10 -9 6 4 8 11 5 16 -9 14 -15 11 -15 -7z"/>
<path d="M3074 1504 c3 -9 6 -18 6 -20 0 -3 4 -3 10 1 11 7 2 35 -12 35 -6 0
-7 -7 -4 -16z"/>
<path d="M3172 1511 c2 -7 7 -12 11 -12 12 1 9 15 -3 20 -7 2 -11 -2 -8 -8z"/>
<path d="M2575 1500 c3 -5 8 -10 11 -10 2 0 4 5 4 10 0 6 -5 10 -11 10 -5 0
-7 -4 -4 -10z"/>
<path d="M2901 1494 c0 -11 3 -14 6 -6 3 7 2 16 -1 19 -3 4 -6 -2 -5 -13z"/>
<path d="M2930 1495 c-7 -9 -8 -15 -2 -15 5 0 12 7 16 15 3 8 4 15 2 15 -2 0
-9 -7 -16 -15z"/>
<path d="M3220 1500 c0 -5 9 -10 20 -10 11 0 20 5 20 10 0 6 -9 10 -20 10 -11
0 -20 -4 -20 -10z"/>
<path d="M2740 1485 c0 -8 5 -15 10 -15 6 0 10 7 10 15 0 8 -4 15 -10 15 -5 0
-10 -7 -10 -15z"/>
<path d="M3130 1492 c1 -16 29 -44 39 -37 17 10 13 21 -14 33 -14 6 -25 8 -25
4z"/>
<path d="M3286 1474 c-9 -33 -6 -36 17 -19 10 7 15 19 11 29 -9 24 -21 20 -28
-10z"/>
<path d="M3382 1487 c-12 -7 -19 -16 -16 -20 13 -12 29 -7 42 13 14 23 7 25
-26 7z"/>
<path d="M2810 1482 c0 -5 6 -16 13 -27 10 -13 16 -15 21 -6 4 6 2 18 -4 26
-13 16 -30 20 -30 7z"/>
<path d="M2780 1465 c0 -8 5 -15 10 -15 6 0 10 7 10 15 0 8 -4 15 -10 15 -5 0
-10 -7 -10 -15z"/>
<path d="M2990 1461 c0 -12 5 -21 10 -21 6 0 10 6 10 14 0 8 -4 18 -10 21 -5
3 -10 -3 -10 -14z"/>
<path d="M3060 1460 c0 -5 5 -10 10 -10 6 0 10 5 10 10 0 6 -4 10 -10 10 -5 0
-10 -4 -10 -10z"/>
<path d="M2697 1439 c-9 -33 3 -49 34 -49 33 0 39 19 9 27 -11 3 -20 11 -20
19 0 22 -17 25 -23 3z"/>
<path d="M2860 1445 c0 -8 5 -15 10 -15 6 0 10 7 10 15 0 8 -4 15 -10 15 -5 0
-10 -7 -10 -15z"/>
<path d="M3100 1441 c0 -6 4 -12 10 -16 5 -3 7 -12 3 -20 -7 -21 11 -19 31 3
15 18 15 19 -9 30 -31 14 -35 15 -35 3z"/>
<path d="M2755 1430 c3 -5 8 -10 11 -10 2 0 4 5 4 10 0 6 -5 10 -11 10 -5 0
-7 -4 -4 -10z"/>
<path d="M2810 1414 c0 -8 5 -12 10 -9 6 3 10 10 10 16 0 5 -4 9 -10 9 -5 0
-10 -7 -10 -16z"/>
<path d="M2680 1387 c0 -8 7 -17 15 -21 8 -3 15 -2 15 3 0 5 -7 14 -15 21 -12
10 -15 10 -15 -3z"/>
<path d="M2775 1390 c3 -5 1 -10 -5 -10 -7 0 -10 -5 -8 -12 5 -13 48 -18 48
-5 -1 19 -14 37 -27 37 -8 0 -11 -4 -8 -10z"/>
<path d="M2830 1374 c0 -10 6 -14 14 -11 7 3 19 0 25 -6 16 -16 26 0 11 18
-17 20 -50 19 -50 -1z"/>
</g>
</svg>
