<?xml version="1.0" standalone="no"?>
<!DOCTYPE svg PUBLIC "-//W3C//DTD SVG 20010904//EN"
 "http://www.w3.org/TR/2001/REC-SVG-20010904/DTD/svg10.dtd">
<svg version="1.0" xmlns="http://www.w3.org/2000/svg"
 width="1000.000000pt" height="1333.000000pt" viewBox="0 0 1000.000000 1333.000000"
 preserveAspectRatio="xMidYMid meet">

<g transform="translate(0.000000,1333.000000) scale(0.100000,-0.100000)"
fill="#000000" stroke="none">
<path d="M4336 11264 c-171 -31 -366 -115 -497 -213 -135 -102 -280 -282 -346
-428 -41 -92 -83 -223 -90 -280 -3 -29 -7 -53 -8 -53 -2 0 -57 18 -122 40
-302 101 -601 105 -831 13 -98 -39 -175 -87 -249 -156 -187 -175 -274 -423
-260 -741 10 -217 52 -376 155 -581 70 -141 123 -222 204 -316 l66 -75 -49
-99 c-98 -205 -175 -487 -199 -732 -6 -62 -10 -195 -10 -296 1 -113 -3 -202
-10 -228 -7 -24 -48 -114 -91 -201 -108 -212 -131 -301 -132 -498 -1 -159 9
-226 55 -370 78 -245 216 -443 409 -587 49 -36 89 -68 89 -70 0 -2 -15 -24
-34 -49 -149 -196 -254 -568 -254 -904 0 -154 9 -243 39 -385 136 -636 634
-1217 1276 -1487 l122 -51 16 -48 c24 -72 104 -187 171 -247 70 -63 192 -127
275 -144 l60 -12 -6 -71 c-11 -140 -16 -189 -18 -191 -3 -2 -462 20 -659 32
-115 8 -181 -6 -239 -48 -49 -35 -89 -114 -89 -176 0 -111 91 -207 204 -215
39 -2 50 -8 81 -44 99 -116 282 -121 511 -14 99 47 164 92 251 175 60 56 64
58 102 52 21 -3 81 -22 132 -42 162 -62 265 -55 348 26 80 78 77 210 -8 265
-50 33 -95 39 -187 25 -74 -11 -248 -50 -286 -65 -17 -7 -18 4 -18 133 l0 141
33 5 c147 21 185 31 256 67 67 34 151 99 151 118 0 4 40 -3 90 -16 142 -35
299 -54 520 -60 122 -3 207 -10 209 -16 9 -24 80 -93 128 -123 74 -48 190 -92
295 -112 l90 -17 -6 -59 c-3 -32 -6 -92 -6 -133 0 -41 -4 -72 -9 -69 -5 3 -53
-1 -107 -8 -127 -18 -333 -18 -426 1 -219 44 -332 5 -368 -126 -38 -143 97
-320 246 -321 37 0 43 -4 54 -30 16 -38 81 -97 134 -121 131 -57 314 -36 464
53 76 46 171 143 210 215 l32 61 36 -18 c121 -62 286 -13 346 103 29 57 30
148 1 202 -73 139 -230 153 -408 36 -33 -22 -61 -38 -63 -37 -1 2 -4 60 -7
129 l-4 126 37 6 c119 18 223 61 337 138 134 90 223 185 287 306 l33 62 100
43 c493 213 927 570 1198 987 l56 85 82 13 c226 35 456 140 522 239 60 93 60
91 54 166 -11 128 -84 389 -160 574 l-26 64 29 36 c58 73 102 203 140 407 51
276 31 569 -60 880 -40 138 -58 175 -92 195 -25 13 -31 13 -55 0 -22 -12 -31
-29 -43 -73 -8 -31 -17 -57 -20 -57 -3 0 -14 30 -24 67 -39 133 -140 312 -191
335 -37 17 -70 -2 -85 -49 -17 -53 -77 -170 -109 -212 l-26 -35 -6 64 c-5 50
-11 68 -30 82 -32 27 -53 20 -204 -70 -168 -98 -235 -135 -240 -130 -2 2 14
30 36 63 86 129 167 331 202 505 30 146 40 279 34 464 -7 210 -9 223 -48 420
-53 262 -128 493 -266 816 -148 347 -259 559 -370 702 -44 58 -46 62 -34 92
35 87 41 113 66 331 13 108 13 323 0 416 -41 300 -148 524 -333 700 -157 150
-328 219 -543 219 -246 0 -447 -92 -628 -287 -64 -69 -81 -83 -81 -65 0 42
-60 208 -107 294 -165 302 -459 513 -798 572 -104 18 -300 18 -399 0z m401
-168 c299 -63 536 -243 670 -511 36 -70 116 -315 134 -407 14 -70 24 -88 48
-88 23 1 100 74 155 147 143 190 392 323 605 323 365 -1 642 -320 690 -795 13
-124 14 -262 4 -458 l-6 -136 -26 20 c-229 177 -451 258 -821 300 -159 18
-614 16 -800 -4 -327 -36 -528 -73 -730 -134 -504 -152 -893 -398 -1231 -778
-65 -73 -261 -255 -291 -271 -95 -49 -353 42 -561 197 -297 223 -507 616 -507
949 0 210 83 451 200 582 83 94 231 173 366 197 75 14 269 15 344 2 103 -17
428 -107 445 -122 18 -18 64 -10 79 14 7 12 26 76 41 142 80 353 252 593 525
734 215 111 443 144 667 97z m803 -1716 c0 -5 -2 -10 -4 -10 -3 0 -8 5 -11 10
-3 6 -1 10 4 10 6 0 11 -4 11 -10z m84 2 c2 -4 -11 -6 -30 -4 -19 2 -34 6 -34
8 0 8 59 4 64 -4z m456 4 c0 -2 -15 -6 -34 -8 -19 -2 -32 0 -30 4 5 8 64 12
64 4z m-624 -15 c-3 -5 -15 -7 -26 -4 -28 7 -25 13 6 13 14 0 23 -4 20 -9z
m754 5 c0 -2 -9 -6 -20 -9 -11 -3 -18 -1 -14 4 5 9 34 13 34 5z m-860 -23 c0
-15 -2 -15 -9 -4 -8 12 -12 13 -25 1 -14 -11 -16 -10 -10 4 8 22 44 21 44 -1z
m950 7 c0 -5 -7 -7 -15 -4 -8 4 -15 8 -15 10 0 2 7 4 15 4 8 0 15 -4 15 -10z
m-1027 -7 c-7 -2 -19 -2 -25 0 -7 3 -2 5 12 5 14 0 19 -2 13 -5z m837 -3 c5 9
8 8 12 -2 4 -9 -3 -14 -22 -14 -23 -1 -26 1 -17 11 7 8 13 9 16 3 2 -6 6 -6
11 2z m250 2 c0 -4 -9 -8 -19 -8 -11 0 -17 4 -15 8 3 4 12 8 20 8 8 0 14 -4
14 -8z m-1165 -12 c-3 -5 -10 -10 -16 -10 -5 0 -9 5 -9 10 0 6 7 10 16 10 8 0
12 -4 9 -10z m1262 -6 c-3 -3 -12 -4 -19 -1 -8 3 -5 6 6 6 11 1 17 -2 13 -5z
m-1351 -16 c4 -6 3 -8 -4 -4 -6 3 -18 -4 -26 -16 -9 -12 -16 -17 -16 -11 0 7
5 15 10 18 6 4 8 11 5 16 -4 5 1 9 9 9 8 0 18 -5 22 -12z m1434 -2 c0 -2 -7
-7 -16 -10 -8 -3 -12 -2 -9 4 6 10 25 14 25 6z m20 -26 c-12 -23 -16 -24 -26
-8 -4 7 -3 8 4 4 7 -4 12 -1 12 8 0 9 5 16 10 16 7 0 7 -6 0 -20z m-1650 -4
c0 -2 -7 -7 -16 -10 -8 -3 -12 -2 -9 4 6 10 25 14 25 6z m1720 -6 c0 -5 -2
-10 -4 -10 -3 0 -8 5 -11 10 -3 6 -1 10 4 10 6 0 11 -4 11 -10z m-1569 -17
c13 -16 12 -17 -3 -4 -10 7 -18 15 -18 17 0 8 8 3 21 -13z m-269 -10 c-6 -2
-10 -8 -7 -13 4 -7 -12 -7 -35 0 -7 2 33 19 45 19 6 -1 4 -3 -3 -6z m1963 -31
c-3 -3 -11 0 -18 7 -9 10 -8 11 6 5 10 -3 15 -9 12 -12z m-2051 -8 c5 -14 4
-15 -9 -4 -17 14 -19 20 -6 20 5 0 12 -7 15 -16z m1990 -5 c-3 -5 -10 -7 -15
-3 -5 3 -7 10 -3 15 3 5 10 7 15 3 5 -3 7 -10 3 -15z m-2034 1 c-8 -5 -22 -9
-30 -9 -10 0 -8 3 5 9 27 12 43 12 25 0z m95 1 c3 -5 2 -12 -3 -15 -5 -3 -9 1
-9 9 0 17 3 19 12 6z m-134 -28 c13 -17 13 -17 -6 -3 -11 8 -22 16 -24 17 -2
2 0 3 6 3 6 0 17 -8 24 -17z m2114 8 c3 -5 2 -12 -3 -15 -5 -3 -9 1 -9 9 0 17
3 19 12 6z m-2205 -25 c0 -3 -4 -8 -10 -11 -5 -3 -10 -1 -10 4 0 6 5 11 10 11
6 0 10 -2 10 -4z m-83 -38 c-2 -7 3 -19 12 -27 9 -7 4 -6 -11 3 -31 18 -42 20
-33 6 4 -6 -1 -7 -12 -3 -14 6 -13 9 12 19 38 16 37 16 32 2z m2387 -9 c-3 -5
-10 -7 -15 -3 -5 3 -7 10 -3 15 3 5 10 7 15 3 5 -3 7 -10 3 -15z m46 5 c0 -8
-19 -13 -24 -6 -3 5 1 9 9 9 8 0 15 -2 15 -3z m88 -57 c61 -62 62 -62 39 -76
-17 -11 -19 -11 -9 0 14 15 16 33 3 25 -4 -3 -16 3 -26 14 -10 11 -14 20 -9
20 5 0 -10 18 -34 40 -24 22 -39 40 -35 40 5 0 37 -28 71 -63z m-2611 20 c0
-8 -6 -14 -14 -14 -17 0 -17 14 0 20 6 3 12 6 13 6 0 1 1 -5 1 -12z m-103 -53
c3 -8 2 -12 -4 -9 -6 3 -10 10 -10 16 0 14 7 11 14 -7z m-29 -4 c-3 -5 -12
-10 -18 -10 -7 0 -6 4 3 10 19 12 23 12 15 0z m2675 -10 c0 -5 -2 -10 -4 -10
-3 0 -8 5 -11 10 -3 6 -1 10 4 10 6 0 11 -4 11 -10z m-2706 -18 c3 -5 -1 -9
-9 -9 -8 0 -15 4 -15 9 0 4 4 8 9 8 6 0 12 -4 15 -8z m-39 -21 c-3 -6 -11 -8
-17 -5 -6 4 -5 9 3 15 16 10 23 4 14 -10z m-40 -20 c-3 -6 -11 -9 -16 -6 -5 4
-9 1 -9 -6 0 -7 -3 -9 -7 -5 -5 4 1 14 11 22 21 15 32 12 21 -5z m2946 2 c13
-16 12 -17 -3 -4 -10 7 -18 15 -18 17 0 8 8 3 21 -13z m35 -50 c-7 -7 -26 7
-26 19 0 6 6 6 15 -2 9 -7 13 -15 11 -17z m-16 -24 c15 -28 5 -23 -15 7 -9 15
-12 23 -6 20 6 -4 16 -16 21 -27z m-3080 11 c0 -5 -5 -10 -11 -10 -5 0 -7 5
-4 10 3 6 8 10 11 10 2 0 4 -4 4 -10z m3115 -10 c3 -6 -1 -7 -9 -4 -18 7 -21
14 -7 14 6 0 13 -4 16 -10z m-3111 -8 c16 8 18 8 10 -1 -17 -18 -51 -21 -51
-5 0 10 4 11 10 5 7 -7 17 -6 31 1z m76 -18 c0 -8 -19 -13 -24 -6 -3 5 1 9 9
9 8 0 15 -2 15 -3z m-164 -19 c-1 -8 -8 -21 -16 -28 -10 -10 -11 -9 -4 3 5 8
9 18 10 23 3 14 4 17 8 17 2 0 3 -7 2 -15z m-44 -25 c-13 -11 -21 -24 -18 -29
4 -5 -3 -7 -16 -3 -15 3 -19 2 -14 -7 4 -6 4 -11 -1 -10 -20 3 -27 -2 -13 -11
13 -9 13 -10 0 -10 -13 0 -13 -1 0 -11 12 -8 11 -9 -5 -7 -12 2 -19 -2 -17
-10 1 -8 -2 -11 -8 -7 -8 5 -7 12 2 23 11 14 10 15 -7 8 -27 -10 -11 6 56 55
57 41 80 51 41 19z m3281 -20 c4 0 5 5 2 10 -3 6 -4 10 -1 10 16 0 13 -21 -5
-30 -15 -8 -19 -9 -15 -1 4 6 2 11 -3 11 -6 0 -11 5 -11 12 0 9 3 9 12 0 7 -7
16 -12 21 -12z m55 -75 c-3 -3 -9 2 -12 12 -6 14 -5 15 5 6 7 -7 10 -15 7 -18z
m-3454 7 c3 -5 -1 -9 -9 -9 -8 0 -12 4 -9 9 3 4 7 8 9 8 2 0 6 -4 9 -8z m-54
-65 c-21 -19 -22 -19 -7 -1 22 27 22 40 0 23 -16 -13 -17 -12 -4 4 10 12 17
15 25 7 7 -7 3 -17 -14 -33z m-30 10 c0 -2 -12 -14 -27 -28 l-28 -24 24 28
c23 25 31 32 31 24z m3556 -42 c-1 -8 -5 -17 -8 -21 -5 -4 -4 16 1 34 3 9 9
-1 7 -13z m34 -6 c0 -6 -4 -7 -10 -4 -5 3 -10 11 -10 16 0 6 5 7 10 4 6 -3 10
-11 10 -16z m-3684 -38 c-16 -16 -25 -34 -22 -40 4 -6 1 -9 -7 -5 -8 3 -25 -7
-38 -23 -13 -16 -31 -33 -39 -37 -8 -5 16 23 55 63 38 39 72 71 74 71 3 0 -8
-13 -23 -29z m3670 7 c4 -7 3 -10 -1 -5 -5 4 -18 -1 -29 -10 -21 -18 -21 -18
-2 5 22 26 23 26 32 10z m25 -21 c-6 -8 -9 -16 -6 -19 3 -2 -2 -5 -9 -5 -11 0
-13 5 -5 19 5 10 15 18 21 18 7 0 7 -4 -1 -13z m-3838 -139 c-4 -7 -8 -17 -8
-22 0 -5 -8 -10 -19 -12 -16 -2 -16 0 5 22 24 26 35 32 22 12z m3861 -24 c3
-8 2 -12 -4 -9 -6 3 -10 10 -10 16 0 14 7 11 14 -7z m66 -14 c0 -5 -2 -10 -4
-10 -3 0 -8 5 -11 10 -3 6 -1 10 4 10 6 0 11 -4 11 -10z m-4869 -37 c13 -16
12 -17 -3 -4 -10 7 -18 15 -18 17 0 8 8 3 21 -13z m889 13 c0 -2 -8 -10 -17
-17 -16 -13 -17 -12 -4 4 13 16 21 21 21 13z m-856 -34 c3 -5 -1 -9 -9 -9 -8
0 -12 4 -9 9 3 4 7 8 9 8 2 0 6 -4 9 -8z m910 -11 c3 -5 -2 -8 -12 -7 -11 1
-16 -6 -15 -18 1 -13 -2 -15 -10 -7 -7 7 -6 15 3 26 14 17 26 19 34 6z m-965
-14 c8 -10 7 -14 -2 -14 -8 0 -14 6 -14 14 0 7 1 13 2 13 2 0 8 -6 14 -13z
m85 5 c3 -5 -1 -9 -9 -9 -8 0 -12 4 -9 9 3 4 7 8 9 8 2 0 6 -4 9 -8z m-117
-15 c0 -8 -6 -14 -13 -14 -7 0 -10 6 -7 14 3 7 8 13 12 13 4 0 8 -6 8 -13z
m909 -9 c4 -7 4 -10 -1 -6 -4 4 -17 2 -29 -4 -19 -10 -20 -10 -7 5 16 20 27
21 37 5z m4058 -4 c9 -24 2 -26 -12 -4 -7 11 -8 20 -3 20 5 0 12 -7 15 -16z
m-4749 -36 c14 -6 25 -15 25 -20 0 -7 -31 8 -59 29 -10 7 10 2 34 -9z m639 -3
c-4 -8 -11 -15 -16 -15 -6 0 -5 6 2 15 7 8 14 15 16 15 2 0 1 -7 -2 -15z m37
-2 c13 -16 12 -17 -3 -4 -10 7 -18 15 -18 17 0 8 8 3 21 -13z m-705 -28 c1 -9
1 -15 -1 -13 -2 1 -3 6 -2 10 1 4 -7 14 -18 23 -18 15 -19 16 -1 7 11 -5 21
-17 22 -27z m4804 6 c0 -5 -7 -12 -16 -15 -14 -5 -15 -4 -4 9 14 17 20 19 20
6z m-4169 -14 c-6 -8 -7 -17 -3 -21 4 -4 3 -6 -3 -5 -5 2 -21 -3 -35 -10 -18
-10 -16 -5 10 17 38 33 49 40 31 19z m-511 -16 c0 -4 -6 -8 -13 -8 -8 0 -14 6
-14 13 0 7 6 10 14 7 7 -3 13 -8 13 -12z m-359 -28 c13 -16 12 -17 -3 -4 -10
7 -18 15 -18 17 0 8 8 3 21 -13z m439 -10 c0 -3 -3 -3 -6 0 -4 3 -14 2 -24 -3
-22 -12 -34 -1 -19 16 8 10 16 11 30 3 10 -5 19 -13 19 -16z m4570 2 c9 -11
10 -19 3 -26 -8 -8 -11 -6 -10 7 1 12 -4 19 -15 18 -10 -1 -15 2 -12 7 8 13
20 11 34 -6z m-4220 -20 c5 3 11 1 14 -4 4 -5 -2 -8 -11 -7 -9 2 -18 8 -19 15
-1 6 0 7 3 1 2 -5 9 -8 13 -5z m-263 -1 c-3 -3 -12 -4 -19 -1 -8 3 -5 6 6 6
11 1 17 -2 13 -5z m200 -10 c-3 -3 -12 -4 -19 -1 -8 3 -5 6 6 6 11 1 17 -2 13
-5z m-736 -19 c11 6 11 5 2 -5 -12 -14 -33 -6 -33 13 0 8 3 7 9 -2 5 -8 14
-10 22 -6z m-41 -62 c-11 -17 -11 -17 -6 0 3 10 7 26 7 35 1 15 2 15 6 0 2
-10 -1 -25 -7 -35z m41 4 c-10 -9 -11 -8 -5 6 3 10 9 15 12 12 3 -3 0 -11 -7
-18z m5119 -7 c0 -5 -5 -10 -11 -10 -5 0 -7 5 -4 10 3 6 8 10 11 10 2 0 4 -4
4 -10z m-10 -26 c0 -8 -19 -13 -24 -6 -3 5 1 9 9 9 8 0 15 -2 15 -3z m-5115
-19 c0 -5 -12 -10 -27 -10 -16 -1 -28 4 -28 10 0 6 12 11 28 10 15 0 27 -5 27
-10z m-58 -47 c-3 -8 -6 -5 -6 6 -1 11 2 17 5 13 3 -3 4 -12 1 -19z m-3 -33
c-4 -8 -8 -15 -10 -15 -2 0 -4 7 -4 15 0 8 4 15 10 15 5 0 7 -7 4 -15z m-4
-49 c0 -3 -4 -8 -10 -11 -5 -3 -10 -1 -10 4 0 6 5 11 10 11 6 0 10 -2 10 -4z
m-1 -99 c8 -10 7 -14 -4 -14 -8 0 -12 4 -9 8 2 4 -2 10 -8 12 -8 4 -9 6 -2 6
6 1 17 -5 23 -12z m5293 -32 c4 -20 2 -23 -8 -14 -7 6 -10 17 -7 25 7 20 10
18 15 -11z m-5325 -17 c-3 -8 -6 -5 -6 6 -1 11 2 17 5 13 3 -3 4 -12 1 -19z
m-10 -100 c-3 -7 -5 -2 -5 12 0 14 2 19 5 13 2 -7 2 -19 0 -25z m5370 -20 c-3
-8 -6 -5 -6 6 -1 11 2 17 5 13 3 -3 4 -12 1 -19z m-5332 -8 c3 -6 -1 -7 -9 -4
-18 7 -21 14 -7 14 6 0 13 -4 16 -10z m5345 -20 c0 -5 -2 -10 -4 -10 -3 0 -8
5 -11 10 -3 6 -1 10 4 10 6 0 11 -4 11 -10z m10 -40 c0 -5 -5 -10 -11 -10 -5
0 -7 5 -4 10 3 6 8 10 11 10 2 0 4 -4 4 -10z m-5385 -30 c4 -6 11 -7 17 -4 7
4 8 2 4 -5 -6 -9 -12 -9 -24 1 -10 7 -19 14 -21 15 -2 2 1 3 7 3 6 0 14 -5 17
-10z m5356 -53 c-10 -9 -11 -8 -5 6 3 10 9 15 12 12 3 -3 0 -11 -7 -18z m49
-7 c0 -5 -5 -10 -11 -10 -5 0 -7 5 -4 10 3 6 8 10 11 10 2 0 4 -4 4 -10z
m-5389 -47 c10 -11 10 -14 2 -9 -8 4 -13 2 -13 -6 0 -10 -3 -9 -9 2 -6 8 -7
18 -5 22 7 11 10 10 25 -9z m5397 -8 c-3 -3 -9 2 -12 12 -6 14 -5 15 5 6 7 -7
10 -15 7 -18z m-5093 -25 c3 -6 -1 -7 -9 -4 -18 7 -21 14 -7 14 6 0 13 -4 16
-10z m-308 -22 c2 -17 0 -19 -7 -8 -5 8 -6 18 -4 22 8 12 10 10 11 -14z m358
-6 c-3 -3 -11 0 -18 7 -9 10 -8 11 6 5 10 -3 15 -9 12 -12z m5052 -4 c-3 -8
-6 -5 -6 6 -1 11 2 17 5 13 3 -3 4 -12 1 -19z m-5077 -3 c0 -1 -8 -5 -18 -7
-11 -3 -19 0 -19 7 0 7 8 10 19 7 10 -2 18 -6 18 -7z m-58 -19 c14 8 11 4 -42
-41 -19 -17 -29 -23 -22 -14 6 9 8 20 4 24 -4 5 -1 4 7 0 11 -6 13 -4 8 9 -10
25 1 40 18 26 8 -7 20 -8 27 -4z m308 -1 c-7 -8 -17 -12 -23 -8 -6 4 -3 9 9
14 27 11 28 11 14 -6z m53 -29 c3 3 4 -1 3 -10 -1 -8 -5 -18 -8 -21 -7 -7 -31
23 -34 42 -2 12 0 12 15 -1 10 -9 20 -13 24 -10z m4787 -16 c0 -13 -5 -18 -15
-14 -11 5 -13 10 -5 19 5 6 6 16 2 20 -4 5 -1 5 6 1 6 -4 12 -16 12 -26z
m-3030 10 c0 -5 -5 -10 -11 -10 -5 0 -7 5 -4 10 3 6 8 10 11 10 2 0 4 -4 4
-10z m135 0 c-3 -5 -12 -10 -18 -10 -7 0 -6 4 3 10 19 12 23 12 15 0z m-220
-9 c-9 -8 -36 -10 -30 -2 2 4 11 8 20 8 8 0 13 -3 10 -6z m-1781 -35 c58 -37
91 -189 66 -297 -35 -150 -127 -235 -224 -208 -64 18 -109 90 -123 200 -16
120 22 253 82 293 55 36 154 42 199 12z m1806 20 c0 -2 -7 -7 -16 -10 -8 -3
-12 -2 -9 4 6 10 25 14 25 6z m-2140 -26 c0 -5 -5 -10 -11 -10 -5 0 -7 5 -4
10 3 6 8 10 11 10 2 0 4 -4 4 -10z m2445 -5 c6 0 10 -4 10 -10 0 -5 4 -17 9
-25 5 -8 -5 -2 -22 14 -33 31 -41 43 -19 29 6 -4 17 -8 22 -8z m-365 2 c0 -2
-15 -18 -33 -35 -22 -21 -34 -28 -34 -18 0 8 4 13 8 11 10 -7 30 21 21 30 -4
5 -2 5 5 1 6 -3 14 -2 18 4 6 9 15 14 15 7z m3160 -32 c0 -8 -2 -15 -4 -15 -2
0 -6 7 -10 15 -3 8 -1 15 4 15 6 0 10 -7 10 -15z m-5260 -17 c0 -5 -9 -4 -20
2 -11 6 -20 12 -20 14 0 2 9 2 20 -1 11 -3 20 -9 20 -15z m2373 -16 c11 -9 29
-35 41 -57 19 -36 21 -56 21 -185 0 -131 -3 -150 -24 -200 -14 -30 -28 -59
-32 -64 -7 -8 -164 -28 -239 -30 -33 -1 -36 1 -60 59 -21 52 -25 75 -25 175 1
105 3 120 29 177 32 70 98 139 143 149 15 3 33 7 38 8 20 5 90 -16 108 -32z
m-2548 -12 c10 -11 16 -20 13 -20 -3 0 -13 9 -23 20 -10 11 -16 20 -13 20 3 0
13 -9 23 -20z m2685 10 c0 -5 -2 -10 -4 -10 -3 0 -8 5 -11 10 -3 6 -1 10 4 10
6 0 11 -4 11 -10z m-1994 -9 c-4 -5 -1 -12 4 -14 6 -3 5 -4 -2 -3 -15 3 -23
26 -8 26 6 0 9 -4 6 -9z m-703 -17 c3 -3 3 -13 0 -21 -5 -12 -7 -12 -14 -1
-15 23 -4 40 14 22z m174 -36 c-3 -8 -6 -5 -6 6 -1 11 2 17 5 13 3 -3 4 -12 1
-19z m-193 -24 c3 -8 2 -12 -4 -9 -6 3 -10 10 -10 16 0 14 7 11 14 -7z m2759
-14 c-3 -12 -8 -19 -11 -16 -5 6 5 36 12 36 2 0 2 -9 -1 -20z m-2764 -16 c4 3
8 -1 8 -9 0 -8 -5 -11 -10 -8 -5 3 -14 -1 -19 -8 -8 -11 -8 -10 -4 4 3 10 6
24 7 30 0 8 2 8 6 -1 2 -6 8 -10 12 -8z m188 -11 c-3 -2 -14 0 -24 7 -16 10
-16 11 0 6 9 -3 17 0 18 7 0 8 2 8 6 -1 3 -7 3 -16 0 -19z m1994 -4 c-5 -13
-10 -19 -10 -12 -1 15 10 45 15 40 3 -2 0 -15 -5 -28z m3299 -39 c0 -38 -3
-70 -7 -70 -5 0 -7 31 -5 70 2 38 6 70 8 70 2 0 4 -31 4 -70z m-2713 18 c-3
-8 -6 -5 -6 6 -1 11 2 17 5 13 3 -3 4 -12 1 -19z m-2002 -27 c3 -5 2 -12 -3
-15 -5 -3 -9 1 -9 9 0 17 3 19 12 6z m2018 -31 c-7 -28 -13 -25 -13 6 0 14 4
23 9 20 5 -3 7 -15 4 -26z m-2842 -13 c-10 -9 -11 -8 -5 6 3 10 9 15 12 12 3
-3 0 -11 -7 -18z m813 -18 c3 -3 -4 -5 -14 -6 -11 -1 -20 2 -20 7 0 8 25 8 34
-1z m-789 -9 c-4 -6 -1 -19 6 -28 11 -14 11 -15 -1 -5 -11 10 -17 10 -29 0
-14 -11 -14 -10 -2 6 7 9 10 17 5 17 -5 0 -2 5 6 10 19 13 23 12 15 0z m225
-12 c0 -18 -2 -20 -9 -8 -6 8 -7 18 -5 22 9 14 14 9 14 -14z m1967 -65 c-2
-16 -4 -3 -4 27 0 30 2 43 4 28 2 -16 2 -40 0 -55z m-2227 63 c0 -2 -7 -9 -15
-16 -13 -11 -14 -10 -9 4 5 14 24 23 24 12z m5540 -79 c0 -17 -3 -27 -7 -23
-4 4 -8 15 -8 24 0 9 -6 16 -13 14 -8 -1 -11 1 -8 6 13 21 36 8 36 -21z
m-5246 -43 c3 -8 2 -12 -4 -9 -6 3 -10 10 -10 16 0 14 7 11 14 -7z m466 -20
c0 -8 -19 -13 -24 -6 -3 5 1 9 9 9 8 0 15 -2 15 -3z m1480 -9 c0 -8 -2 -15 -4
-15 -2 0 -6 7 -10 15 -3 8 -1 15 4 15 6 0 10 -7 10 -15z m3287 -7 c-3 -8 -6
-5 -6 6 -1 11 2 17 5 13 3 -3 4 -12 1 -19z m-5253 -9 c-3 -5 -10 -7 -15 -3 -5
3 -7 10 -3 15 3 5 10 7 15 3 5 -3 7 -10 3 -15z m456 7 c0 -2 -8 -10 -17 -17
-16 -13 -17 -12 -4 4 13 16 21 21 21 13z m-400 -21 c20 -24 6 -28 -15 -5 -10
11 -13 20 -8 20 6 0 16 -7 23 -15z m425 6 c3 -5 2 -12 -3 -15 -5 -3 -9 1 -9 9
0 17 3 19 12 6z m-782 -16 c-3 -9 -8 -14 -10 -11 -3 3 -2 9 2 15 9 16 15 13 8
-4z m212 -33 c-3 -3 -11 0 -18 7 -9 10 -8 11 6 5 10 -3 15 -9 12 -12z m72 12
c-3 -3 -12 -4 -19 -1 -8 3 -5 6 6 6 11 1 17 -2 13 -5z m2603 1 c0 -1 -9 -10
-19 -19 -19 -17 -19 -17 -15 1 3 11 12 20 20 20 8 0 14 -1 14 -2z m-2824 -17
c4 -7 4 -10 -1 -6 -14 13 -37 -13 -25 -27 8 -9 7 -14 -3 -18 -17 -6 -16 25 2
47 16 19 18 19 27 4z m644 8 c0 -2 -7 -7 -16 -10 -8 -3 -12 -2 -9 4 6 10 25
14 25 6z m2225 -5 c3 -5 2 -12 -3 -15 -5 -3 -9 1 -9 9 0 17 3 19 12 6z m-2768
-7 c-3 -3 -12 -4 -19 -1 -8 3 -5 6 6 6 11 1 17 -2 13 -5z m617 -12 c3 -5 -1
-9 -9 -9 -8 0 -12 4 -9 9 3 4 7 8 9 8 2 0 6 -4 9 -8z m2210 -8 c6 2 7 1 2 -2
-4 -2 -2 -8 5 -13 12 -7 11 -9 -1 -9 -8 0 -21 10 -29 23 -9 15 -9 18 -1 10 7
-6 18 -10 24 -9z m-694 2 c0 -2 -8 -10 -17 -17 -16 -13 -17 -12 -4 4 13 16 21
21 21 13z m657 -9 c3 -4 -5 -7 -20 -7 -14 0 -28 4 -31 8 -5 9 41 8 51 -1z
m-642 -17 c3 -5 1 -10 -4 -10 -6 0 -11 5 -11 10 0 6 2 10 4 10 3 0 8 -4 11
-10z m720 0 c3 -5 1 -10 -4 -10 -6 0 -11 5 -11 10 0 6 2 10 4 10 3 0 8 -4 11
-10z m-2742 -17 c-18 -2 -48 -2 -65 0 -18 2 -4 4 32 4 36 0 50 -2 33 -4z
m1952 -2 c-3 -5 3 -11 12 -13 11 -2 14 -6 8 -10 -15 -9 -39 7 -31 21 4 6 9 11
12 11 3 0 3 -4 -1 -9z m875 -11 c0 -4 -9 -6 -21 -3 -15 4 -17 8 -8 14 14 8 29
3 29 -11z m-3079 -7 c13 -16 12 -17 -3 -4 -10 7 -18 15 -18 17 0 8 8 3 21 -13z
m83 9 c3 -5 -8 -6 -25 -4 -16 2 -29 6 -29 8 0 8 49 4 54 -4z m26 -12 c-6 -11
-13 -20 -16 -20 -2 0 0 9 6 20 6 11 13 20 16 20 2 0 0 -9 -6 -20z m300 11 c0
-5 -9 -7 -20 -4 -11 3 -20 7 -20 9 0 2 9 4 20 4 11 0 20 -4 20 -9z m327 -6 c0
-8 -4 -12 -9 -9 -5 3 -6 10 -3 15 9 13 12 11 12 -6z m2417 7 c3 -5 -1 -9 -9
-9 -8 0 -12 4 -9 9 3 4 7 8 9 8 2 0 6 -4 9 -8z m-3001 -27 c-7 -21 -12 -19
-10 4 0 11 5 18 9 15 4 -3 5 -11 1 -19z m344 19 c-3 -3 -12 -4 -19 -1 -8 3 -5
6 6 6 11 1 17 -2 13 -5z m203 -4 c0 -5 -2 -10 -4 -10 -3 0 -8 5 -11 10 -3 6
-1 10 4 10 6 0 11 -4 11 -10z m4735 0 c3 -6 -1 -7 -9 -4 -18 7 -21 14 -7 14 6
0 13 -4 16 -10z m-5578 -25 c-7 -13 -14 -20 -15 -14 -2 5 2 16 8 24 18 21 20
18 7 -10z m218 16 c3 -5 2 -12 -3 -15 -5 -3 -9 1 -9 9 0 17 3 19 12 6z m571
-16 c0 -14 -1 -25 -1 -25 -1 0 -10 10 -21 22 -10 12 -14 18 -7 15 6 -4 14 -3
18 3 9 15 11 13 11 -15z m4831 -1 c-9 -9 -28 6 -21 18 4 6 10 6 17 -1 6 -6 8
-13 4 -17z m-5239 1 c-2 -5 -8 -10 -15 -11 -6 -1 -9 4 -6 12 6 16 27 15 21 -1z
m2902 3 c0 -4 5 -7 11 -5 6 1 13 -11 15 -28 2 -16 1 -23 -2 -15 -3 8 -17 24
-31 36 -17 15 -20 21 -9 21 9 0 16 -4 16 -9z m-3090 -2 c0 -2 -8 -10 -17 -17
-16 -13 -17 -12 -4 4 13 16 21 21 21 13z m286 -8 c4 -7 4 -10 -1 -6 -4 4 -17
3 -29 -3 -20 -10 -20 -10 -2 5 24 19 23 19 32 4z m1844 8 c0 -3 -4 -8 -10 -11
-5 -3 -10 -1 -10 4 0 6 5 11 10 11 6 0 10 -2 10 -4z m-1736 -14 c3 -5 -1 -9
-9 -9 -8 0 -12 4 -9 9 3 4 7 8 9 8 2 0 6 -4 9 -8z m402 -27 c-1 -8 -5 -17 -8
-21 -5 -4 -4 16 1 34 3 9 9 -1 7 -13z m121 9 c-3 -3 -12 -4 -19 -1 -8 3 -5 6
6 6 11 1 17 -2 13 -5z m220 -9 c0 -8 -4 -15 -9 -15 -10 0 -11 14 -1 23 9 10
10 9 10 -8z m58 6 c-3 -5 5 -17 17 -25 12 -9 17 -16 11 -16 -6 0 -16 7 -23 15
-7 8 -17 12 -24 8 -6 -4 -5 1 3 10 14 18 26 23 16 8z m59 -12 c-3 -5 -10 -7
-15 -3 -5 3 -7 10 -3 15 3 5 10 7 15 3 5 -3 7 -10 3 -15z m1139 4 c-7 -2 -21
-2 -30 0 -10 3 -4 5 12 5 17 0 24 -2 18 -5z m334 1 c-3 -3 -12 -4 -19 -1 -8 3
-5 6 6 6 11 1 17 -2 13 -5z m-427 -8 c0 -2 -7 -7 -16 -10 -8 -3 -12 -2 -9 4 6
10 25 14 25 6z m225 -16 c16 -17 16 -20 3 -15 -9 4 -19 13 -22 21 -7 19 -2 18
19 -6z m308 13 c-7 -2 -19 -2 -25 0 -7 3 -2 5 12 5 14 0 19 -2 13 -5z m-2114
-37 c-3 -3 -11 5 -18 17 -13 21 -12 21 5 5 10 -10 16 -20 13 -22z m1398 28
c-3 -3 -12 -4 -19 -1 -8 3 -5 6 6 6 11 1 17 -2 13 -5z m110 -1 c-9 -2 -14 -9
-11 -15 4 -7 2 -8 -4 -4 -20 12 -13 26 11 25 17 -1 18 -2 4 -6z m135 -19 c2
-7 -1 -14 -6 -15 -5 -2 -10 6 -11 19 -2 22 10 19 17 -4z m23 16 c-4 -7 3 -9
20 -6 15 3 25 2 21 -1 -9 -9 -38 -13 -48 -7 -8 5 -2 24 8 24 3 0 2 -5 -1 -10z
m250 1 c6 -1 3 -5 -5 -11 -9 -5 -19 -5 -26 0 -6 6 -15 6 -19 2 -5 -4 -5 -2 -2
5 4 6 15 10 25 8 9 -2 22 -4 27 -4z m308 2 c-7 -2 -21 -2 -30 0 -10 3 -4 5 12
5 17 0 24 -2 18 -5z m154 -14 c1 -12 1 -20 0 -18 -2 2 -9 12 -16 22 -11 14
-11 17 1 17 7 0 14 -10 15 -21z m-2327 7 c0 -2 -9 -6 -20 -9 -11 -3 -18 -1
-14 4 5 9 34 13 34 5z m1413 -17 c-8 -8 -13 -7 -18 2 -5 8 -4 10 3 5 7 -4 12
-2 12 5 0 7 3 9 7 6 4 -4 2 -12 -4 -18z m294 7 c0 -15 -21 -16 -34 -1 -4 4 -3
5 4 1 6 -3 14 -2 18 4 8 14 12 13 12 -4z m2913 8 c0 -8 -19 -13 -24 -6 -3 5 1
9 9 9 8 0 15 -2 15 -3z m-4179 -21 c13 -16 12 -17 -3 -4 -10 7 -18 15 -18 17
0 8 8 3 21 -13z m923 8 c-8 -8 -34 -10 -38 -2 -3 4 6 7 19 7 14 0 22 -2 19 -5z
m557 -8 c13 -16 12 -17 -3 -4 -10 7 -18 15 -18 17 0 8 8 3 21 -13z m-2904 -90
c-2 -21 -4 -6 -4 32 0 39 2 55 4 38 2 -18 2 -50 0 -70z m1573 71 c0 -8 -19
-13 -24 -6 -3 5 1 9 9 9 8 0 15 -2 15 -3z m-322 -11 c-10 -2 -28 -2 -40 0 -13
2 -5 4 17 4 22 1 32 -1 23 -4z m-98 -13 c-8 -5 -11 -10 -6 -10 5 0 3 -7 -4
-15 -7 -8 -18 -15 -24 -15 -6 0 -5 4 3 9 11 7 11 10 0 16 -9 6 -8 10 7 16 27
11 42 10 24 -1z m-300 -4 c0 -2 -8 -10 -17 -17 -16 -13 -17 -12 -4 4 13 16 21
21 21 13z m400 -3 c0 -1 -8 -7 -18 -12 -13 -7 -19 -6 -19 2 0 7 9 13 19 13 10
0 18 -1 18 -3z m255 -19 c0 -17 -3 -20 -12 -12 -7 6 -13 16 -13 23 0 6 6 12
13 12 6 0 12 -10 12 -23z m62 11 c0 -8 -4 -12 -9 -9 -5 3 -6 10 -3 15 9 13 12
11 12 -6z m-189 -49 c17 -16 32 -34 32 -40 0 -5 -6 -1 -14 10 -8 10 -20 19
-28 19 -7 1 -12 6 -11 13 3 14 -34 35 -47 27 -6 -3 -7 1 -4 10 7 18 15 13 72
-39z m-618 -21 c-24 -25 -46 -45 -49 -45 -3 0 15 20 39 45 24 25 46 45 49 45
3 0 -15 -20 -39 -45z m4798 15 c-12 -36 -24 -45 -32 -25 -3 8 0 14 6 12 7 -1
12 3 13 8 0 11 14 35 20 35 2 0 -1 -14 -7 -30z m-4568 -11 c0 -6 -4 -7 -10 -4
-5 3 -10 11 -10 16 0 6 5 7 10 4 6 -3 10 -11 10 -16z m-949 -6 c8 -9 9 -14 2
-10 -6 4 -13 1 -16 -5 -3 -7 -4 -3 -4 10 1 26 1 26 18 5z m5467 -75 c-10 -21
-21 -38 -23 -38 -3 0 2 14 11 31 13 26 14 37 4 58 -12 26 -12 26 8 6 19 -20
19 -21 0 -57z m-4606 40 c-11 -13 -21 -26 -21 -30 -1 -5 -4 -8 -7 -7 -3 1 -20
-12 -37 -27 -18 -16 -7 -3 23 29 30 31 56 57 59 57 2 0 -5 -10 -17 -22z m662
4 c3 -5 -1 -9 -9 -9 -8 0 -12 4 -9 9 3 4 7 8 9 8 2 0 6 -4 9 -8z m1 -32 c3 -5
1 -10 -4 -10 -6 0 -11 5 -11 10 0 6 2 10 4 10 3 0 8 -4 11 -10z m3885 -6 c0
-8 -19 -13 -24 -6 -3 5 1 9 9 9 8 0 15 -2 15 -3z m-3980 -65 c0 -11 -4 -18
-10 -14 -5 3 -7 12 -3 20 7 21 13 19 13 -6z m-663 -6 c-4 -3 1 -15 10 -26 10
-11 13 -17 6 -14 -6 4 -13 1 -16 -5 -3 -9 -7 -7 -12 5 -7 18 -1 47 11 47 4 0
4 -3 1 -7z m4663 -8 c0 -12 -19 -12 -23 0 -4 9 -1 12 9 8 7 -3 14 -7 14 -8z
m-4830 -1 c0 -8 -19 -13 -24 -6 -3 5 1 9 9 9 8 0 15 -2 15 -3z m794 -2 c3 -5
-1 -9 -9 -9 -8 0 -12 4 -9 9 3 4 7 8 9 8 2 0 6 -4 9 -8z m-1401 -17 c-3 -9 -8
-14 -10 -11 -3 3 -2 9 2 15 9 16 15 13 8 -4z m624 -17 c-3 -8 -6 -5 -6 6 -1
11 2 17 5 13 3 -3 4 -12 1 -19z m823 7 c0 -8 -4 -15 -10 -15 -5 0 -7 7 -4 15
4 8 8 15 10 15 2 0 4 -7 4 -15z m4865 -201 c13 -50 27 -135 31 -190 7 -109 19
-134 65 -134 38 0 73 33 113 109 39 73 38 74 60 -64 33 -203 -4 -548 -86 -805
-26 -81 -32 -92 -42 -77 -159 265 -339 488 -524 654 -156 139 -382 300 -467
333 l-30 12 60 22 c114 44 291 139 368 199 21 16 41 27 44 23 3 -3 -4 -35 -17
-72 -27 -80 -19 -114 28 -114 54 0 195 130 270 248 l47 74 28 -64 c16 -34 39
-104 52 -154z m-4907 181 c-3 -3 -9 2 -12 12 -6 14 -5 15 5 6 7 -7 10 -15 7
-18z m3992 -5 c-24 -34 -27 -36 -27 -15 0 8 4 12 8 10 3 -3 9 4 12 15 3 11 10
20 17 20 6 0 2 -13 -10 -30z m-5385 -10 c3 -5 1 -10 -4 -10 -6 0 -11 5 -11 10
0 6 2 10 4 10 3 0 8 -4 11 -10z m69 2 c3 -5 -1 -9 -9 -9 -8 0 -12 4 -9 9 3 4
7 8 9 8 2 0 6 -4 9 -8z m885 -16 c11 -10 27 -16 35 -13 9 4 18 2 21 -3 4 -6
-2 -10 -12 -10 -26 0 -121 28 -100 29 10 1 16 5 13 10 -10 16 22 6 43 -13z
m126 15 c3 -5 2 -12 -3 -15 -5 -3 -9 1 -9 9 0 17 3 19 12 6z m455 -6 c5 3 7
-3 6 -12 -5 -30 -26 -27 -25 4 0 15 3 22 6 15 2 -6 8 -10 13 -7z m-235 -4 c3
-5 2 -12 -3 -15 -5 -3 -9 1 -9 9 0 17 3 19 12 6z m-675 -5 c0 -2 -7 -9 -15
-16 -13 -11 -14 -10 -9 4 5 14 24 23 24 12z m767 -11 c0 -8 -4 -12 -9 -9 -5 3
-6 10 -3 15 9 13 12 11 12 -6z m-27 -1 c0 -8 -19 -13 -24 -6 -3 5 1 9 9 9 8 0
15 -2 15 -3z m224 -2 c3 -5 -1 -9 -9 -9 -8 0 -12 4 -9 9 3 4 7 8 9 8 2 0 6 -4
9 -8z m-549 -12 c3 -5 1 -10 -4 -10 -6 0 -11 5 -11 10 0 6 2 10 4 10 3 0 8 -4
11 -10z m105 -13 c8 -3 -2 -6 -24 -6 -33 -1 -37 1 -26 14 8 9 17 12 24 6 6 -4
18 -11 26 -14z m150 -3 c0 -2 -16 -4 -36 -4 -19 0 -33 4 -30 8 5 8 66 4 66 -4z
m4020 12 c0 -2 -8 -10 -17 -17 -16 -13 -17 -12 -4 4 13 16 21 21 21 13z m1
-34 c-17 -22 -38 -45 -48 -53 -16 -13 -17 -12 -5 3 8 9 10 23 6 29 -4 8 -3 9
5 5 6 -4 22 5 37 23 37 44 41 38 5 -7z m-3759 -5 c-7 -8 -8 -18 -4 -22 4 -5 1
-5 -5 -1 -10 5 -10 11 -1 26 7 11 14 17 17 15 2 -3 -1 -11 -7 -18z m-1525 -2
c0 -8 -4 -12 -9 -9 -5 3 -6 10 -3 15 9 13 12 11 12 -6z m673 -2 c0 -3 -6 -3
-12 0 -7 2 -19 -3 -26 -12 -11 -14 -12 -13 -2 6 6 14 16 20 25 17 8 -4 15 -8
15 -11z m101 -40 c13 -17 13 -17 -6 -3 -11 8 -22 16 -24 17 -2 2 0 3 6 3 6 0
17 -8 24 -17z m585 -58 c-46 -71 -276 -61 -431 18 l-44 22 217 0 c135 0 226 5
242 12 22 9 25 8 28 -9 2 -10 -4 -30 -12 -43z m-722 47 c3 -5 -1 -9 -9 -9 -8
0 -12 4 -9 9 3 4 7 8 9 8 2 0 6 -4 9 -8z m120 0 c3 -5 -1 -9 -9 -9 -8 0 -12 4
-9 9 3 4 7 8 9 8 2 0 6 -4 9 -8z m759 -33 c-15 -16 -22 -18 -28 -8 -5 7 -4 10
2 6 15 -9 36 19 27 35 -6 10 -4 11 7 0 11 -10 10 -16 -8 -33z m-682 -16 c11
-15 11 -16 -1 -6 -11 10 -17 10 -29 0 -14 -11 -14 -10 -2 6 7 9 15 17 16 17 1
0 9 -8 16 -17z m-783 -28 c-3 -3 -9 2 -12 12 -6 14 -5 15 5 6 7 -7 10 -15 7
-18z m1415 -10 c-3 -9 -8 -14 -10 -11 -3 3 -2 9 2 15 9 16 15 13 8 -4z m3597
-11 c0 -8 -19 -13 -24 -6 -3 5 1 9 9 9 8 0 15 -2 15 -3z m70 3 c0 -2 -13 -15
-28 -30 -20 -19 -29 -23 -29 -13 0 8 3 13 7 11 4 -3 15 4 25 15 17 19 25 24
25 17z m-4170 -32 c0 -2 -6 -5 -13 -8 -8 -3 -14 1 -14 8 0 7 6 11 14 8 7 -3
13 -6 13 -8z m491 -2 c13 -16 12 -17 -3 -4 -10 7 -18 15 -18 17 0 8 8 3 21
-13z m-541 -7 c0 -2 -8 -10 -17 -17 -16 -13 -17 -12 -4 4 13 16 21 21 21 13z
m4150 -19 c0 -2 -10 -12 -21 -23 -22 -19 -22 -19 -8 4 12 19 29 30 29 19z
m-3953 -24 c-4 -3 -1 -13 6 -22 11 -14 10 -14 -5 -2 -21 15 -23 31 -6 31 6 0
8 -3 5 -7z m73 -7 c0 -2 -9 -6 -20 -9 -11 -3 -18 -1 -14 4 5 9 34 13 34 5z
m108 -12 c-2 -10 3 -19 11 -22 9 -3 11 0 6 8 -6 9 -4 11 5 5 10 -6 10 -11 -3
-20 -9 -7 -13 -16 -9 -20 4 -5 1 -5 -6 -1 -7 5 -11 11 -8 14 3 3 1 11 -5 19
-6 7 -8 13 -3 13 5 0 2 5 -6 10 -13 8 -12 10 3 10 11 0 17 -6 15 -16z m3722 2
c0 -2 -7 -9 -15 -16 -13 -11 -14 -10 -9 4 5 14 24 23 24 12z m-4849 -29 c-8
-8 -14 -7 -23 2 -11 10 -9 11 6 5 15 -6 17 -4 11 6 -6 9 -4 11 4 5 9 -5 10
-10 2 -18z m4800 -10 c-10 -9 -11 -8 -5 6 3 10 9 15 12 12 3 -3 0 -11 -7 -18z
m-3854 -2 c0 -8 -4 -12 -9 -9 -5 3 -6 10 -3 15 9 13 12 11 12 -6z m138 6 c3
-5 2 -12 -3 -15 -5 -3 -9 1 -9 9 0 17 3 19 12 6z m-1050 -33 c5 4 5 2 2 -5 -4
-6 -1 -13 5 -16 7 -2 10 -7 7 -11 -3 -3 -16 6 -30 21 -13 15 -17 22 -8 15 9
-6 20 -8 24 -4z m4629 -9 c-3 -5 -10 -7 -15 -3 -5 3 -7 10 -3 15 3 5 10 7 15
3 5 -3 7 -10 3 -15z m-4566 -1 c-2 -7 4 -12 12 -10 12 3 13 1 3 -9 -15 -15
-40 2 -29 20 10 15 17 14 14 -1z m4613 -20 c-10 -11 -11 -9 -5 6 6 15 4 17 -6
11 -9 -6 -11 -4 -5 4 5 9 10 10 18 2 8 -8 7 -14 -2 -23z m336 17 c0 -8 -4 -12
-9 -9 -13 8 -10 -10 5 -25 10 -11 8 -11 -10 0 -21 12 -21 15 -6 31 19 22 20
22 20 3z m34 -12 c13 -16 12 -17 -3 -4 -10 7 -18 15 -18 17 0 8 8 3 21 -13z
m-421 -32 c0 -3 -8 -11 -19 -18 -16 -10 -18 -9 -16 10 1 12 3 23 4 24 2 5 31
-10 31 -16z m340 15 c0 -2 -8 -10 -17 -17 -16 -13 -17 -12 -4 4 13 16 21 21
21 13z m180 -52 c0 -2 -11 2 -25 8 -14 6 -25 15 -25 20 0 5 11 1 25 -8 14 -9
25 -18 25 -20z m-248 -7 c-25 -19 -29 -26 -19 -37 9 -11 8 -11 -7 0 -17 14
-17 15 10 37 16 13 33 23 38 23 6 0 -4 -10 -22 -23z m-4748 -3 c3 -8 2 -12 -4
-9 -6 3 -10 10 -10 16 0 14 7 11 14 -7z m4426 12 c0 -2 -7 -7 -16 -10 -8 -3
-12 -2 -9 4 6 10 25 14 25 6z m367 -3 c-4 -3 1 -12 11 -20 16 -12 16 -13 -2
-6 -14 5 -17 3 -11 -7 5 -8 4 -11 -3 -7 -5 4 -9 15 -7 25 5 23 4 22 12 22 3 0
3 -3 0 -7z m-448 -37 c-3 -3 -11 5 -18 17 -13 21 -12 21 5 5 10 -10 16 -20 13
-22z m41 25 c0 -5 -7 -12 -16 -15 -14 -5 -15 -4 -4 9 14 17 20 19 20 6z m670
-29 c0 -3 -3 -2 -7 1 -3 4 -13 1 -21 -6 -11 -8 -14 -8 -9 0 4 6 3 14 -3 18 -5
3 -10 11 -10 16 0 5 11 2 25 -7 14 -9 25 -19 25 -22z m-5070 -17 c13 -14 21
-25 18 -25 -2 0 -15 11 -28 25 -13 14 -21 25 -18 25 2 0 15 -11 28 -25z m4335
5 c-3 -5 -12 -10 -18 -10 -7 0 -6 4 3 10 19 12 23 12 15 0z m795 -31 c0 -5
-11 1 -25 13 -14 12 -25 23 -25 25 0 2 11 -4 25 -13 14 -9 25 -20 25 -25z
m-863 -1 c-15 -9 -19 -4 -11 16 5 14 9 15 15 5 5 -8 3 -17 -4 -21z m410 4 c-1
-16 -7 -29 -14 -29 -7 0 -10 4 -7 8 2 4 0 10 -6 14 -5 3 -10 1 -10 -6 0 -7 -3
-9 -7 -5 -6 5 31 44 43 46 1 0 1 -13 1 -28z m-4560 2 c-9 -10 -47 -12 -42 -3
4 5 11 7 16 4 5 -4 9 -1 9 5 0 6 5 8 11 5 6 -4 8 -9 6 -11z m4034 -5 c6 -13 7
-19 1 -15 -6 3 -12 0 -15 -6 -2 -7 -4 -1 -3 14 1 34 2 34 17 7z m49 -15 c0 -2
-9 0 -20 6 -11 6 -20 13 -20 16 0 2 9 0 20 -6 11 -6 20 -13 20 -16z m-4140 -6
c0 -6 -6 -5 -15 2 -8 7 -15 14 -15 16 0 2 7 1 15 -2 8 -4 15 -11 15 -16z
m4537 -13 c0 -8 -4 -12 -9 -9 -5 3 -6 10 -3 15 9 13 12 11 12 -6z m588 -17 c5
4 5 1 1 -6 -6 -10 -11 -10 -22 -1 -8 6 -14 14 -14 16 0 3 6 0 13 -6 8 -6 18
-7 22 -3z m-5049 -19 c19 -22 19 -22 -3 -8 -13 8 -23 17 -23 21 0 12 6 9 26
-13z m88 12 c3 -5 -2 -15 -12 -22 -15 -13 -16 -12 -4 3 10 13 10 17 0 21 -9 4
-9 6 -1 6 6 1 14 -3 17 -8z m3802 -3 c4 -7 3 -10 -1 -5 -5 4 -16 0 -25 -8 -14
-13 -17 -13 -17 0 0 8 4 12 8 9 4 -2 10 0 14 6 8 13 12 13 21 -2z m547 -2 c9
1 15 -1 12 -6 -8 -13 -38 -5 -43 11 -2 9 -1 10 5 3 4 -6 16 -10 26 -8z m676
-9 c8 -10 7 -14 -2 -14 -8 0 -14 6 -14 14 0 7 1 13 2 13 2 0 8 -6 14 -13z
m-4973 -14 c-2 -9 -9 -19 -17 -21 -11 -3 -11 -1 1 7 8 6 11 11 7 11 -5 0 -5 5
-2 10 9 15 14 12 11 -7z m-94 -7 c7 4 8 2 4 -5 -9 -13 -26 -5 -25 12 0 9 2 8
6 -1 2 -6 10 -9 15 -6z m3858 4 c0 -5 -5 -10 -11 -10 -5 0 -7 5 -4 10 3 6 8
10 11 10 2 0 4 -4 4 -10z m465 -19 l20 -25 -26 20 c-15 10 -25 23 -22 27 3 5
6 7 7 5 0 -2 10 -14 21 -27z m-495 9 c0 -5 -5 -10 -11 -10 -5 0 -7 5 -4 10 3
6 8 10 11 10 2 0 4 -4 4 -10z m1279 -4 c9 -11 9 -16 -1 -22 -7 -4 -10 -4 -6 1
4 4 3 14 -3 22 -6 7 -9 13 -6 13 2 0 10 -6 16 -14z m-5072 -10 c0 -8 -6 -12
-15 -9 -11 5 -11 7 0 14 7 5 13 9 14 9 0 0 1 -6 1 -14z m3758 4 c3 -5 1 -10
-4 -10 -6 0 -11 5 -11 10 0 6 2 10 4 10 3 0 8 -4 11 -10z m485 6 c0 -3 -4 -8
-10 -11 -5 -3 -10 -1 -10 4 0 6 5 11 10 11 6 0 10 -2 10 -4z m-4223 -28 c-3
-8 -6 -5 -6 6 -1 11 2 17 5 13 3 -3 4 -12 1 -19z m4176 -14 c1 -4 -6 -8 -15
-10 -18 -2 -20 16 -3 28 9 7 13 3 18 -18z m-4111 -6 c-2 -10 -6 -18 -7 -18 -1
0 -5 8 -7 18 -3 11 0 19 7 19 7 0 10 -8 7 -19z m3568 12 c0 -5 -8 -10 -17 -10
-15 0 -16 2 -3 10 19 12 20 12 20 0z m1476 -12 c12 -14 13 -18 3 -10 -9 6 -18
10 -21 7 -2 -3 -5 2 -5 10 0 19 0 19 23 -7z m-5071 2 c3 -6 -1 -7 -9 -4 -18 7
-21 14 -7 14 6 0 13 -4 16 -10z m3515 -11 c0 -5 -4 -9 -8 -9 -5 0 -9 7 -9 15
0 8 4 12 9 9 4 -3 8 -9 8 -15z m545 1 c-3 -5 -12 -10 -18 -10 -7 0 -6 4 3 10
19 12 23 12 15 0z m-760 -9 c3 -5 2 -12 -3 -15 -5 -3 -9 1 -9 9 0 17 3 19 12
6z m-3231 -10 c4 -5 -3 -7 -14 -4 -23 6 -26 13 -6 13 8 0 17 -4 20 -9z m3351
-9 c-3 -3 -11 0 -18 7 -9 10 -8 11 6 5 10 -3 15 -9 12 -12z m610 8 c4 -6 11
-7 17 -4 7 4 8 2 4 -5 -6 -9 -12 -9 -24 1 -10 7 -19 14 -21 15 -2 2 1 3 7 3 6
0 14 -5 17 -10z m-3889 -12 c4 -6 3 -8 -4 -4 -5 3 -13 0 -15 -6 -3 -8 -6 -6
-6 5 -1 19 14 23 25 5z m3239 2 c-3 -5 -12 -10 -18 -10 -7 0 -6 4 3 10 19 12
23 12 15 0z m612 -5 c0 -8 -4 -12 -9 -9 -5 3 -6 10 -3 15 9 13 12 11 12 -6z
m1233 -102 c63 -64 108 -111 99 -105 -9 7 -19 10 -22 7 -4 -3 -5 -2 -2 2 6 8
-35 53 -48 53 -5 0 -4 -7 3 -15 23 -28 4 -15 -26 17 -16 18 -21 26 -11 19 28
-22 20 3 -11 32 -19 18 -31 24 -38 17 -7 -7 -17 -3 -30 12 l-19 23 21 -18 c11
-9 23 -15 26 -11 7 6 -41 60 -52 57 -3 -1 -7 5 -7 13 0 8 1 14 1 14 1 0 53
-53 116 -117z m-5390 72 c-6 -8 -9 -19 -5 -25 4 -6 2 -9 -4 -8 -5 2 -17 -6
-26 -17 -9 -11 -6 -1 7 22 13 24 27 43 32 43 5 0 3 -7 -4 -15z m378 -10 c-3
-3 -9 2 -12 12 -6 14 -5 15 5 6 7 -7 10 -15 7 -18z m2581 2 c0 -9 -2 -8 -6 1
-2 6 -10 9 -15 6 -7 -4 -8 -2 -4 5 9 13 26 5 25 -12z m-2535 -2 c-4 -8 -11
-15 -16 -15 -6 0 -5 6 2 15 7 8 14 15 16 15 2 0 1 -7 -2 -15z m186 12 c0 -2
-10 -12 -22 -23 l-23 -19 19 23 c18 21 26 27 26 19z m3440 -7 c0 -5 -2 -10 -4
-10 -3 0 -8 5 -11 10 -3 6 -1 10 4 10 6 0 11 -4 11 -10z m-4008 -17 c-6 -3 -9
-10 -6 -15 4 -7 2 -8 -5 -4 -9 6 -9 11 0 22 6 8 15 12 18 8 3 -4 0 -9 -7 -11z
m468 11 c0 -8 -19 -13 -24 -6 -3 5 1 9 9 9 8 0 15 -2 15 -3z m3515 -4 c4 -6
-1 -7 -11 -3 -13 5 -15 3 -9 -7 5 -9 4 -11 -4 -6 -6 4 -9 12 -6 17 8 12 22 12
30 -1z m-3941 -21 c-6 -11 -24 -2 -24 11 0 5 7 7 15 4 8 -4 12 -10 9 -15z
m3066 5 c0 -2 -9 -4 -21 -4 -11 0 -18 4 -14 10 5 8 35 3 35 -6z m83 9 c-7 -2
-19 -2 -25 0 -7 3 -2 5 12 5 14 0 19 -2 13 -5z m847 -18 c-7 -9 -15 -13 -19
-10 -3 3 1 10 9 15 21 14 24 12 10 -5z m-3540 -5 c0 -5 -2 -10 -4 -10 -3 0 -8
5 -11 10 -3 6 -1 10 4 10 6 0 11 -4 11 -10z m2523 3 c-7 -2 -21 -2 -30 0 -10
3 -4 5 12 5 17 0 24 -2 18 -5z m927 1 c0 -8 -19 -13 -24 -6 -3 5 1 9 9 9 8 0
15 -2 15 -3z m-3375 -14 c3 -6 -4 -10 -17 -10 -18 0 -20 2 -8 10 19 12 18 12
25 0z m2245 -2 c0 -4 -9 -8 -21 -8 -11 0 -18 4 -15 8 3 5 12 9 21 9 8 0 15 -4
15 -9z m97 6 c-3 -3 -12 -4 -19 -1 -8 3 -5 6 6 6 11 1 17 -2 13 -5z m923 2 c0
-3 -4 -8 -10 -11 -5 -3 -10 -1 -10 4 0 6 5 11 10 11 6 0 10 -2 10 -4z m-3223
-22 c-3 -3 -12 -4 -19 -1 -8 3 -5 6 6 6 11 1 17 -2 13 -5z m1730 -9 c0 -8 -4
-12 -9 -9 -5 3 -6 10 -3 15 9 13 12 11 12 -6z m38 5 c-3 -5 -12 -10 -18 -10
-7 0 -6 4 3 10 19 12 23 12 15 0z m318 3 c-7 -2 -19 -2 -25 0 -7 3 -2 5 12 5
14 0 19 -2 13 -5z m1054 -8 c0 -8 -4 -12 -9 -9 -4 3 -8 9 -8 15 0 5 4 9 8 9 5
0 9 -7 9 -15z m-3812 -5 c-4 -6 -1 -19 6 -28 11 -14 11 -15 -1 -5 -11 10 -17
10 -29 0 -14 -11 -14 -10 -2 6 7 9 10 17 5 17 -5 0 -2 5 6 10 19 13 23 12 15
0z m268 -17 c-5 -13 -7 -13 -15 1 -8 14 -12 15 -26 4 -15 -11 -15 -11 -4 3 16
21 53 14 45 -8z m474 21 c-3 -3 -12 -4 -19 -1 -8 3 -5 6 6 6 11 1 17 -2 13 -5z
m103 -10 c0 -2 -9 -4 -20 -4 -11 0 -20 4 -20 9 0 5 9 7 20 4 11 -3 20 -7 20
-9z m1807 10 c-3 -3 -12 -4 -19 -1 -8 3 -5 6 6 6 11 1 17 -2 13 -5z m1104 -7
c-6 -8 -7 -18 -3 -22 4 -5 2 -5 -5 -1 -14 8 -6 36 9 36 7 0 6 -5 -1 -13z
m-3556 -6 c3 -5 2 -12 -3 -15 -5 -3 -9 1 -9 9 0 17 3 19 12 6z m2180 -9 c-3
-3 -11 0 -18 7 -9 10 -8 11 6 5 10 -3 15 -9 12 -12z m110 0 c-3 -3 -11 0 -18
7 -9 10 -8 11 6 5 10 -3 15 -9 12 -12z m72 12 c-3 -3 -12 -4 -19 -1 -8 3 -5 6
6 6 11 1 17 -2 13 -5z m-2597 -8 c0 -2 -7 -9 -15 -16 -13 -11 -14 -10 -9 4 5
14 24 23 24 12z m353 -3 c3 -5 -5 -8 -18 -8 -13 0 -21 3 -18 8 2 4 10 7 18 7
8 0 16 -3 18 -7z m3343 -18 c0 -20 -11 -27 -11 -7 0 4 -4 13 -8 20 -5 7 -3 12
5 12 8 0 14 -11 14 -25z m140 13 c4 -7 4 -10 -1 -6 -4 4 -15 2 -24 -5 -14 -11
-14 -10 -2 6 16 20 18 21 27 5z m-3441 -8 c3 -6 -1 -7 -9 -4 -18 7 -21 14 -7
14 6 0 13 -4 16 -10z m526 -13 c-10 -9 -11 -8 -5 6 3 10 9 15 12 12 3 -3 0
-11 -7 -18z m2719 14 c0 -6 -4 -12 -8 -15 -5 -3 -9 1 -9 9 0 8 4 15 9 15 4 0
8 -4 8 -9z m-3148 -20 c12 -10 -34 -5 -62 8 -22 9 -20 10 15 5 22 -4 43 -9 47
-13z m1961 5 c4 -10 1 -13 -8 -9 -8 3 -12 9 -9 14 7 12 11 11 17 -5z m1125 2
c-2 -6 -10 -13 -16 -14 -9 -2 -9 -1 -1 3 8 4 7 8 -2 14 -11 7 -10 9 4 9 10 0
17 -5 15 -12z m149 -3 c0 -8 -4 -12 -9 -9 -5 3 -6 10 -3 15 9 13 12 11 12 -6z
m-3160 -11 c-3 -3 -12 -4 -19 -1 -8 3 -5 6 6 6 11 1 17 -2 13 -5z m300 0 c-3
-3 -12 -4 -19 -1 -8 3 -5 6 6 6 11 1 17 -2 13 -5z m2550 0 c-3 -3 -12 -4 -19
-1 -8 3 -5 6 6 6 11 1 17 -2 13 -5z m-909 -16 c-2 -4 6 -14 17 -23 19 -16 19
-16 -4 -4 -21 10 -23 9 -17 -6 5 -15 4 -16 -9 -5 -14 11 -13 14 2 27 17 14 17
14 0 9 -11 -4 -16 -2 -12 5 7 11 29 8 23 -3z m805 5 c-7 -2 -19 -2 -25 0 -7 3
-2 5 12 5 14 0 19 -2 13 -5z m-710 -10 c-7 -2 -19 -2 -25 0 -7 3 -2 5 12 5 14
0 19 -2 13 -5z m587 3 c0 -2 -11 -6 -25 -8 -14 -3 -25 -1 -25 3 0 5 11 9 25 9
14 0 25 -2 25 -4z m91 -13 c13 -16 12 -17 -3 -4 -10 7 -18 15 -18 17 0 8 8 3
21 -13z m-606 -11 c-3 -3 -11 0 -18 7 -9 10 -8 11 6 5 10 -3 15 -9 12 -12z
m295 11 c0 -5 -58 -8 -129 -8 -71 0 -127 3 -124 8 2 4 60 7 129 7 68 0 124 -3
124 -7z m270 -18 c-13 -15 -35 -11 -24 6 3 5 10 7 15 4 5 -4 9 -1 9 6 0 7 3 9
6 6 4 -4 1 -13 -6 -22z m-237 -3 c15 -16 15 -19 2 -19 -8 0 -13 3 -10 5 3 3 0
11 -6 19 -17 20 -5 16 14 -5z m71 2 c3 -8 2 -12 -4 -9 -6 3 -10 10 -10 16 0
14 7 11 14 -7z m-464 0 c0 -8 -19 -13 -24 -6 -3 5 1 9 9 9 8 0 15 -2 15 -3z
m40 0 c0 -8 -19 -13 -24 -6 -3 5 1 9 9 9 8 0 15 -2 15 -3z m685 -13 c3 -5 2
-12 -3 -15 -5 -3 -9 1 -9 9 0 17 3 19 12 6z m-3390 -30 c-9 -16 -25 -3 -18 15
4 10 9 12 15 6 6 -6 7 -15 3 -21z m5649 0 c15 -17 15 -19 1 -25 -10 -3 -14 -2
-10 5 4 5 1 16 -5 24 -18 22 -6 18 14 -4z m-5637 -24 c0 -8 -6 -14 -14 -14 -9
0 -10 4 -2 14 6 7 12 13 14 13 1 0 2 -6 2 -13z m5683 -32 c7 -9 8 -15 2 -15
-5 0 -12 7 -16 15 -3 8 -4 15 -2 15 2 0 9 -7 16 -15z m-5748 -37 c-8 -8 -9 -4
-5 13 4 13 8 18 11 10 2 -7 -1 -18 -6 -23z m5779 -5 c13 -16 12 -17 -3 -4 -10
7 -18 15 -18 17 0 8 8 3 21 -13z m-55 -36 c3 -21 1 -21 -20 2 -17 19 -17 19 0
17 9 -2 18 -10 20 -19z m-5759 -69 c-3 -8 -6 -5 -6 6 -1 11 2 17 5 13 3 -3 4
-12 1 -19z m5838 10 c5 4 5 1 1 -6 -6 -10 -11 -10 -22 -1 -8 6 -14 14 -14 16
0 3 6 0 13 -6 8 -6 18 -7 22 -3z m78 -50 l18 -33 -20 25 c-12 14 -25 30 -31
37 -5 7 -10 15 -10 19 0 13 25 -15 43 -48z m-5908 -8 c14 -17 15 -21 3 -12
-14 11 -18 10 -28 -5 -11 -17 -11 -17 -6 0 3 10 6 26 6 34 0 9 1 14 3 12 1 -2
11 -15 22 -29z m5910 -29 c3 -5 2 -12 -3 -15 -5 -3 -9 1 -9 9 0 17 3 19 12 6z
m-5942 -46 c4 -8 2 -17 -3 -20 -6 -4 -10 3 -10 14 0 25 6 27 13 6z m5947 -30
c9 -11 10 -19 3 -26 -8 -8 -11 -6 -10 7 1 12 -4 19 -15 18 -10 -1 -15 2 -12 7
8 13 20 11 34 -6z m-5916 -21 c3 -8 2 -12 -4 -9 -6 3 -10 10 -10 16 0 14 7 11
14 -7z m6001 -32 c-8 -8 -25 10 -19 20 4 6 9 5 15 -3 4 -7 6 -15 4 -17z
m-6058 -44 c-3 -8 -6 -5 -6 6 -1 11 2 17 5 13 3 -3 4 -12 1 -19z m6068 -8 c3
-6 -1 -7 -9 -4 -18 7 -21 14 -7 14 6 0 13 -4 16 -10z m-6060 -19 c3 -5 1 -12
-5 -16 -5 -3 -10 1 -10 9 0 18 6 21 15 7z m6115 -40 c6 -13 7 -21 2 -17 -6 3
-12 0 -14 -6 -3 -7 -5 2 -5 20 0 17 1 31 2 30 1 -2 8 -14 15 -27z m-6127 -63
c3 -21 1 -35 -4 -32 -5 3 -9 21 -9 41 0 45 6 40 13 -9z m3474 7 c0 -8 -4 -12
-9 -9 -5 3 -6 10 -3 15 9 13 12 11 12 -6z m136 0 c-3 -9 -8 -14 -10 -11 -3 3
-2 9 2 15 9 16 15 13 8 -4z m2547 -14 c9 -19 9 -22 -1 -19 -7 2 -14 15 -16 28
-4 27 -1 25 17 -9z m-2656 -34 c1 -36 0 -42 -10 -29 -7 10 -9 26 -4 43 5 15 6
30 4 33 -2 3 -1 4 2 2 3 -3 7 -25 8 -49z m89 0 c4 3 7 1 7 -5 0 -17 -16 -15
-31 6 -12 15 -12 16 2 5 9 -7 19 -10 22 -6z m2587 -31 c0 5 5 1 11 -9 18 -31
4 -28 -27 5 -16 18 -19 24 -6 14 12 -11 22 -15 22 -10z m-6164 -31 c1 -8 -2
-12 -8 -9 -6 4 -8 -6 -5 -25 3 -17 1 -31 -4 -31 -10 0 -12 73 -2 83 8 9 16 1
19 -18z m3504 -5 c0 -5 -5 -10 -11 -10 -5 0 -7 5 -4 10 3 6 8 10 11 10 2 0 4
-4 4 -10z m2709 -74 c1 -5 -5 -3 -13 4 -8 6 -12 19 -9 27 6 14 8 14 14 -3 4
-10 8 -23 8 -28z m-2716 14 c10 -12 9 -12 -3 -3 -8 6 -23 9 -33 8 -9 -2 -15 0
-12 5 7 12 33 6 48 -10z m203 2 c-5 -9 19 -44 31 -43 4 1 9 -3 9 -9 3 -21 4
-22 18 -11 9 8 16 8 20 2 4 -5 1 -13 -4 -16 -8 -5 -6 -13 6 -26 12 -14 21 -16
30 -8 8 7 14 7 19 -1 4 -6 3 -9 -2 -8 -4 2 -9 -1 -10 -7 -2 -5 2 -10 9 -10 6
0 12 -9 14 -20 2 -13 -25 9 -77 62 -68 69 -88 103 -63 103 3 0 3 -3 0 -8z
m-3696 -18 c0 -8 -19 -13 -24 -6 -3 5 1 9 9 9 8 0 15 -2 15 -3z m3555 -34 c3
-5 1 -10 -4 -10 -6 0 -11 5 -11 10 0 6 2 10 4 10 3 0 8 -4 11 -10z m2626 -17
c13 -16 12 -17 -3 -4 -10 7 -18 15 -18 17 0 8 8 3 21 -13z m41 -10 c-6 -3 -10
-8 -8 -12 3 -4 -1 -8 -9 -8 -13 0 -12 4 2 19 9 10 19 15 22 12 3 -4 0 -9 -7
-11z m-6225 -8 c0 -8 -4 -15 -9 -15 -4 0 -8 7 -8 15 0 8 4 15 8 15 5 0 9 -7 9
-15z m3583 0 c11 -13 9 -15 -8 -12 -12 2 -25 7 -29 12 -5 4 -2 5 5 1 6 -4 12
-2 12 3 0 15 5 14 20 -4z m50 -72 c0 -8 -5 -11 -11 -8 -6 4 -8 10 -5 13 3 3
-2 15 -11 26 -18 21 -18 21 5 2 12 -11 22 -25 22 -33z m-3633 -5 c-3 -8 -6 -5
-6 6 -1 11 2 17 5 13 3 -3 4 -12 1 -19z m3638 -18 c8 6 33 -13 81 -63 38 -39
48 -53 23 -29 -25 23 -49 39 -54 35 -4 -5 -5 -3 -2 3 10 18 -28 45 -55 40 -17
-3 -25 0 -25 10 0 10 4 11 10 5 7 -7 15 -7 22 -1z m270 -3 c-12 -9 -15 -19
-10 -28 8 -12 6 -12 -8 0 -16 13 -16 14 0 27 10 7 22 14 27 14 6 0 2 -6 -9
-13z m2365 -31 c0 -8 -4 -17 -8 -20 -4 -2 -8 4 -8 15 0 10 4 19 8 19 4 0 8 -6
8 -14z m-6242 -31 c-6 -14 -13 -23 -15 -21 -5 5 15 46 22 46 3 0 -1 -11 -7
-25z m52 10 c0 -1 -9 -10 -19 -19 -19 -17 -19 -17 -16 1 2 10 4 18 4 19 2 2
31 1 31 -1z m3560 -10 c9 -11 10 -19 3 -26 -8 -8 -11 -6 -10 7 1 12 -4 19 -15
18 -10 -1 -15 2 -12 7 8 13 20 11 34 -6z m305 4 c11 -17 -1 -21 -15 -4 -8 9
-8 15 -2 15 6 0 14 -5 17 -11z m2335 -9 c0 -5 -5 -10 -11 -10 -5 0 -7 5 -4 10
3 6 8 10 11 10 2 0 4 -4 4 -10z m-6204 -53 c1 -9 -3 -20 -9 -24 -7 -3 -9 -2
-4 2 4 5 0 16 -9 26 -14 16 -14 17 2 15 9 -2 18 -10 20 -19z m3669 3 c10 -11
16 -20 13 -20 -3 0 -13 9 -23 20 -10 11 -16 20 -13 20 3 0 13 -9 23 -20z
m2520 0 c10 -11 16 -20 13 -20 -3 0 -13 9 -23 20 -10 11 -16 20 -13 20 3 0 13
-9 23 -20z m-6223 -34 c-3 -5 -9 -1 -13 10 -12 31 -10 39 5 19 8 -11 12 -24 8
-29z m4018 14 c10 -19 10 -20 -9 -8 -11 6 -17 16 -15 20 8 12 12 10 24 -12z
m-230 -25 c13 -14 21 -25 18 -25 -2 0 -15 11 -28 25 -13 14 -21 25 -18 25 2 0
15 -11 28 -25z m2470 7 c0 -5 -7 -9 -15 -9 -8 0 -12 4 -9 9 3 4 9 8 15 8 5 0
9 -4 9 -8z m-6243 -37 c0 -8 -4 -12 -9 -9 -4 3 -8 9 -8 15 0 5 4 9 8 9 5 0 9
-7 9 -15z m6253 -25 c0 -3 -6 -7 -13 -7 -7 0 -13 8 -13 18 0 13 3 15 13 7 7
-6 13 -14 13 -18z m-2419 3 c11 -15 11 -16 -1 -5 -19 16 -35 16 -21 -1 8 -10
7 -14 -3 -14 -11 0 -14 12 -7 35 3 8 21 -1 32 -15z m40 -30 c13 -16 12 -17 -3
-4 -10 7 -18 15 -18 17 0 8 8 3 21 -13z m60 -51 c-13 -4 -41 16 -41 29 0 5 12
2 26 -8 15 -9 21 -19 15 -21z m472 11 c-5 -12 -3 -14 8 -8 8 5 11 5 6 -1 -5
-5 -12 -9 -15 -9 -4 0 -13 -4 -21 -9 -9 -6 -8 -1 3 16 9 14 13 28 9 33 -5 4
-3 5 4 1 7 -4 9 -14 6 -23z m1827 24 c0 -2 -12 -14 -27 -28 l-28 -24 24 28
c23 25 31 32 31 24z m-6173 -22 c0 -8 -4 -12 -9 -9 -5 3 -6 10 -3 15 9 13 12
11 12 -6z m39 0 c-1 -8 -5 -17 -8 -21 -5 -4 -4 16 1 34 3 9 9 -1 7 -13z m4189
6 c3 -5 2 -12 -3 -15 -5 -3 -9 1 -9 9 0 17 3 19 12 6z m55 -36 c33 -19 21 -19
-21 0 -19 8 -27 14 -19 14 8 0 26 -6 40 -14z m1819 -8 c-2 -1 -13 -9 -24 -17
-19 -14 -19 -14 -6 3 7 9 18 17 24 17 6 0 8 -1 6 -3z m-6082 -14 c-4 -3 -1
-13 6 -22 11 -14 10 -14 -5 -2 -16 12 -16 31 -1 31 4 0 3 -3 0 -7z m5820 -40
c-12 -13 -20 -14 -28 -6 -8 8 -6 11 7 10 13 -1 18 4 17 17 -1 13 2 15 10 7 8
-8 7 -16 -6 -28z m168 28 c-9 -8 -36 -10 -30 -2 2 4 11 8 20 8 8 0 13 -3 10
-6z m-5994 -28 c13 -15 17 -22 8 -15 -9 6 -18 9 -21 7 -3 -3 -8 3 -11 15 -7
26 -5 25 24 -7z m4439 11 c0 -8 -19 -13 -24 -6 -3 5 1 9 9 9 8 0 15 -2 15 -3z
m-453 -22 c-10 -10 -14 -22 -10 -27 5 -4 2 -5 -5 -1 -11 6 -10 12 4 27 9 10
19 19 22 19 3 0 -2 -8 -11 -18z m478 8 c3 -5 1 -10 -4 -10 -6 0 -11 5 -11 10
0 6 2 10 4 10 3 0 8 -4 11 -10z m109 2 c3 -5 -1 -9 -9 -9 -8 0 -12 4 -9 9 3 4
7 8 9 8 2 0 6 -4 9 -8z m1346 2 c0 -8 -19 -13 -24 -6 -3 5 1 9 9 9 8 0 15 -2
15 -3z m-35 -35 c-4 -5 -12 -9 -18 -8 -9 0 -8 2 1 6 6 2 9 10 6 15 -4 7 -2 8
5 4 6 -4 9 -12 6 -17z m-1805 -4 c0 -2 -6 -5 -13 -8 -8 -3 -14 1 -14 8 0 7 6
11 14 8 7 -3 13 -6 13 -8z m467 9 c-3 -3 -12 -4 -19 -1 -8 3 -5 6 6 6 11 1 17
-2 13 -5z m28 -4 c3 -5 1 -10 -4 -10 -6 0 -11 5 -11 10 0 6 2 10 4 10 3 0 8
-4 11 -10z m254 -31 c-15 -9 -32 -2 -24 11 3 5 13 6 21 3 12 -4 13 -8 3 -14z
m146 12 c-9 -8 -36 -10 -30 -2 2 4 11 8 20 8 8 0 13 -3 10 -6z m625 -22 c-6
-10 -18 -19 -26 -19 -8 0 -12 5 -9 10 4 6 11 8 16 5 8 -6 13 9 10 28 -1 5 3 6
9 2 7 -4 7 -12 0 -26z m190 15 c0 -2 -7 -4 -15 -4 -8 0 -15 4 -15 10 0 5 7 7
15 4 8 -4 15 -8 15 -10z m-1050 -10 c0 -2 -7 -4 -15 -4 -8 0 -15 4 -15 10 0 5
7 7 15 4 8 -4 15 -8 15 -10z m775 6 c3 -5 1 -10 -4 -10 -6 0 -11 5 -11 10 0 6
2 10 4 10 3 0 8 -4 11 -10z m-1433 -12 c-9 -9 -8 -14 4 -23 13 -9 11 -11 -10
-10 -14 1 -28 5 -31 8 -3 4 -2 5 2 2 3 -3 12 4 20 15 8 11 17 20 21 20 3 0 1
-5 -6 -12z m904 -5 c-2 -10 -13 -20 -27 -22 l-24 -3 25 21 c31 25 29 25 26 4z
m674 5 c0 -4 -4 -8 -9 -8 -6 0 -12 4 -15 8 -3 5 1 9 9 9 8 0 15 -4 15 -9z
m-1505 -7 c-3 -5 -1 -12 5 -16 5 -3 10 -10 10 -16 0 -5 -8 -1 -18 9 -12 11
-14 20 -8 24 15 10 18 10 11 -1z m642 3 c-3 -3 -12 -4 -19 -1 -8 3 -5 6 6 6
11 1 17 -2 13 -5z m-4750 -21 c0 -7 -4 -13 -8 -13 -4 0 -9 6 -12 13 -3 8 0 14
7 14 7 0 13 -6 13 -14z m4830 11 c-3 -3 -12 -4 -19 -1 -8 3 -5 6 6 6 11 1 17
-2 13 -5z m613 -10 c0 -2 -15 -4 -32 -4 -23 0 -29 3 -19 9 12 8 51 4 51 -5z
m-220 -4 c0 -6 -26 -9 -62 -8 l-63 1 60 7 c33 4 61 7 63 8 1 1 2 -2 2 -8z
m-5160 -23 c0 -7 -10 -13 -21 -14 -21 -2 -21 -1 -3 12 24 18 24 18 24 2z m-56
-13 c3 -8 2 -12 -4 -9 -6 3 -10 10 -10 16 0 14 7 11 14 -7z m4286 -14 c0 -5
-2 -10 -4 -10 -3 0 -8 5 -11 10 -3 6 -1 10 4 10 6 0 11 -4 11 -10z m30 -9 c0
-6 -4 -12 -8 -15 -5 -3 -9 1 -9 9 0 8 4 15 9 15 4 0 8 -4 8 -9z m-4278 -25 c4
3 9 0 14 -7 5 -8 3 -10 -6 -4 -10 6 -12 4 -7 -8 11 -30 -2 -18 -18 16 -11 23
-12 27 -2 15 8 -10 16 -15 19 -12z m4448 -26 c0 -5 -2 -10 -4 -10 -3 0 -8 5
-11 10 -3 6 -1 10 4 10 6 0 11 -4 11 -10z m-4374 -12 c4 -7 3 -8 -4 -4 -6 4
-17 -5 -25 -20 l-14 -28 -13 25 c-12 21 -11 22 1 12 12 -10 17 -8 27 8 14 22
18 23 28 7z m4464 -7 c0 -6 -4 -12 -8 -15 -5 -3 -9 1 -9 9 0 8 4 15 9 15 4 0
8 -4 8 -9z m-22 -42 c3 -12 2 -12 -6 0 -7 9 -12 10 -16 2 -4 -6 -12 -9 -17 -5
-5 3 -7 9 -4 14 8 13 38 5 43 -11z m212 17 c0 -8 -51 -13 -56 -5 -3 5 9 9 25
9 17 0 31 -2 31 -4z m63 -13 c-7 -2 -19 -2 -25 0 -7 3 -2 5 12 5 14 0 19 -2
13 -5z m-4736 -18 c0 -8 -4 -12 -9 -9 -5 3 -6 10 -3 15 9 13 12 11 12 -6z
m4856 8 c-7 -2 -19 -2 -25 0 -7 3 -2 5 12 5 14 0 19 -2 13 -5z m442 -3 c4 -6
1 -9 -6 -8 -7 2 -13 -2 -14 -9 0 -6 -3 -14 -7 -18 -3 -4 -5 1 -4 12 2 10 -4
21 -13 25 -11 5 -8 7 11 7 15 1 30 -4 33 -9z m-5278 -35 c0 -8 -4 -12 -9 -9
-5 3 -6 10 -3 15 9 13 12 11 12 -6z m5293 11 c0 -2 -8 -10 -17 -17 -16 -13
-17 -12 -4 4 13 16 21 21 21 13z m-30 -40 c0 -2 -8 -10 -17 -17 -16 -13 -17
-12 -4 4 13 16 21 21 21 13z m-5216 -42 c3 -8 2 -12 -4 -9 -6 3 -10 10 -10 16
0 14 7 11 14 -7z m56 11 c0 -7 -30 -13 -34 -7 -3 4 4 9 15 9 10 1 19 0 19 -2z
m5116 -24 c-17 -18 -60 -26 -50 -9 3 4 11 5 18 2 7 -3 19 2 26 11 7 8 15 15
18 15 3 0 -3 -9 -12 -19z m-5126 -43 c0 -6 -6 -5 -15 2 -8 7 -15 14 -15 16 0
2 7 1 15 -2 8 -4 15 -11 15 -16z m5090 -1 c0 -2 -10 -12 -21 -23 -22 -19 -22
-19 -8 4 12 19 29 30 29 19z m-5057 -36 c-2 -6 1 -11 6 -11 5 0 12 -8 16 -17
4 -11 -5 -7 -24 11 -36 35 -36 35 -13 31 9 -1 16 -8 15 -14z m4991 -29 c3 -5
-39 -51 -92 -103 -53 -52 -85 -81 -72 -64 14 16 35 38 48 48 21 18 22 44 0 31
-7 -5 -8 -2 -3 5 5 9 10 10 18 2 16 -16 51 17 36 35 -7 8 -7 14 1 19 6 4 9 2
8 -3 -2 -6 2 -10 7 -11 6 -1 10 5 10 12 0 6 7 12 15 12 8 1 14 6 13 13 -3 14
3 16 11 4z m-4947 -19 c-10 -9 14 -34 26 -26 5 3 7 1 4 -4 -8 -13 17 -36 27
-25 4 4 6 2 4 -4 -1 -7 14 -28 35 -48 20 -20 37 -40 37 -44 0 -3 -34 27 -75
68 -64 64 -81 90 -58 90 4 0 3 -3 0 -7z m4763 -139 c0 -8 -19 -13 -24 -6 -3 5
1 9 9 9 8 0 15 -2 15 -3z m-3640 -28 c0 -2 -7 -6 -15 -10 -8 -3 -15 -1 -15 4
0 6 7 10 15 10 8 0 15 -2 15 -4z m80 -3 c0 -1 -10 -7 -21 -14 -13 -6 -19 -7
-15 -1 3 6 0 12 -6 15 -7 2 -1 4 14 3 16 0 28 -2 28 -3z m-1015 -23 c10 -11
16 -20 13 -20 -3 0 -13 9 -23 20 -10 11 -16 20 -13 20 3 0 13 -9 23 -20z m63
-5 c-3 -3 -9 2 -12 12 -6 14 -5 15 5 6 7 -7 10 -15 7 -18z m4428 -8 c0 -13 -6
-24 -13 -24 -6 0 -9 5 -5 11 4 6 7 14 8 19 5 26 10 23 10 -6z m64 20 c0 -2
-12 -14 -27 -28 -20 -18 -24 -19 -13 -4 18 24 40 42 40 32z m-4513 -14 c-4 -3
0 -18 9 -32 l16 -26 -22 21 c-19 19 -21 44 -3 44 4 0 3 -3 0 -7z m953 -13 c-6
-11 -13 -20 -16 -20 -2 0 0 9 6 20 6 11 13 20 16 20 2 0 0 -9 -6 -20z m11 -39
c14 7 17 6 14 -4 -8 -19 -42 -18 -50 1 -5 13 -4 14 6 5 8 -8 18 -9 30 -2z
m3479 6 c0 -2 -10 -12 -21 -23 -22 -19 -22 -19 -8 4 12 19 29 30 29 19z
m-4359 -24 c3 1 1 -2 -3 -7 -8 -11 -38 0 -38 14 0 7 6 8 19 1 10 -6 20 -9 22
-8z m773 9 c3 -5 -1 -9 -9 -9 -8 0 -12 4 -9 9 3 4 7 8 9 8 2 0 6 -4 9 -8z
m3503 -17 c0 -8 -4 -12 -9 -9 -5 3 -6 10 -3 15 9 13 12 11 12 -6z m3 -35 c-56
-46 -78 -56 -93 -41 -6 7 -7 12 -2 11 6 -2 12 -1 15 0 3 1 12 3 22 5 22 4 78
46 78 59 0 5 3 6 7 2 5 -4 -8 -20 -27 -36z m-3395 21 c3 -5 1 -12 -4 -15 -5
-3 -11 1 -15 9 -6 16 9 21 19 6z m3246 -35 c-7 -9 -8 -17 -2 -20 5 -3 12 0 14
6 4 9 6 10 6 1 1 -16 -22 -29 -27 -15 -2 7 -9 9 -15 5 -7 -3 -3 3 7 15 21 24
36 31 17 8z m-4021 -36 c0 -5 -2 -10 -4 -10 -3 0 -8 5 -11 10 -3 6 -1 10 4 10
6 0 11 -4 11 -10z m23 -5 c-3 -9 -8 -14 -10 -11 -3 3 -2 9 2 15 9 16 15 13 8
-4z m840 1 c6 -15 -17 -16 -30 -1 -4 4 -2 5 5 1 6 -4 12 -2 12 3 0 15 7 14 13
-3z m-120 -10 c4 -10 0 -14 -13 -13 -14 1 -16 4 -8 14 13 16 15 16 21 -1z
m-699 -12 c3 -8 2 -12 -4 -9 -6 3 -10 10 -10 16 0 14 7 11 14 -7z m780 0 c5
-14 4 -15 -9 -4 -17 14 -19 20 -6 20 5 0 12 -7 15 -16z m-642 -20 c-12 -8 -19
-20 -16 -26 5 -7 2 -8 -5 -4 -9 6 -8 13 5 27 9 10 22 19 28 19 6 0 0 -7 -12
-16z m734 -1 c-1 -12 6 -17 18 -16 13 1 15 -2 7 -10 -14 -14 -47 15 -37 32 10
16 14 14 12 -6z m3114 -3 c-26 -20 -36 -19 -27 2 2 8 15 14 28 15 l24 2 -25
-19z m-3267 -9 c3 -13 0 -18 -7 -15 -7 3 -13 11 -13 19 0 22 14 18 20 -4z
m-643 -17 c0 -2 -9 0 -20 6 -11 6 -20 13 -20 16 0 2 9 0 20 -6 11 -6 20 -13
20 -16z m746 -2 c-4 -3 -14 2 -24 12 -16 18 -16 18 6 6 13 -6 21 -14 18 -18z
m3098 20 c3 -5 -1 -9 -9 -9 -8 0 -12 4 -9 9 3 4 7 8 9 8 2 0 6 -4 9 -8z
m-3757 -27 c0 -8 -3 -13 -5 -10 -3 3 -11 0 -19 -6 -9 -8 -13 -8 -13 -1 0 8 20
26 36 32 0 0 1 -7 1 -15z m578 -15 c3 -5 1 -10 -4 -10 -6 0 -11 5 -11 10 0 6
2 10 4 10 3 0 8 -4 11 -10z m96 -7 c13 -16 12 -17 -3 -4 -10 7 -18 15 -18 17
0 8 8 3 21 -13z m-640 -26 c-10 -9 -11 -8 -5 6 3 10 9 15 12 12 3 -3 0 -11 -7
-18z m84 13 c-3 -5 -12 -10 -18 -10 -7 0 -6 4 3 10 19 12 23 12 15 0z m3585
-4 c0 -2 -7 -7 -16 -10 -8 -3 -12 -2 -9 4 6 10 25 14 25 6z m-2986 -28 c-5 -8
-2 -9 10 -5 9 4 15 3 12 -2 -3 -5 4 -22 16 -37 19 -26 18 -25 -15 5 -31 29
-40 51 -21 51 3 0 2 -5 -2 -12z m2915 -14 c-13 -7 -26 -10 -29 -7 -8 8 32 33
43 26 5 -3 -1 -12 -14 -19z m-3534 6 c3 -5 1 -10 -4 -10 -6 0 -11 5 -11 10 0
6 2 10 4 10 3 0 8 -4 11 -10z m771 -47 c-1 -12 6 -17 18 -16 13 1 15 -2 7 -10
-14 -14 -47 15 -37 32 10 16 14 14 12 -6z m2545 -16 c-10 -9 -11 -8 -5 6 3 10
9 15 12 12 3 -3 0 -11 -7 -18z m139 16 c0 -2 -19 -12 -41 -24 -40 -20 -42 -20
-58 -3 -15 17 -15 17 2 5 13 -11 20 -11 32 -1 8 7 13 15 11 19 -3 4 9 7 25 6
16 0 29 -1 29 -2z m-2933 -19 c0 -17 -25 -26 -33 -12 -5 7 -2 8 6 3 9 -6 12
-4 8 7 -4 8 -1 15 6 15 7 0 13 -6 13 -13z m-332 -4 c-3 -5 -12 -10 -18 -10 -7
0 -6 4 3 10 19 12 23 12 15 0z m535 -25 c13 -14 21 -25 18 -25 -2 0 -15 11
-28 25 -13 14 -21 25 -18 25 2 0 15 -11 28 -25z m2607 0 c0 -8 -4 -12 -9 -9
-5 3 -6 10 -3 15 9 13 12 11 12 -6z m-2736 -22 c13 -16 12 -17 -3 -4 -17 13
-22 21 -14 21 2 0 10 -8 17 -17z m199 -25 l23 -32 -31 23 c-18 12 -30 27 -27
32 8 13 9 13 35 -23z m2485 10 c-9 -6 -19 -7 -22 -4 -4 3 -1 6 6 6 7 0 9 4 6
10 -4 6 1 7 11 3 15 -6 15 -7 -1 -15z m-2825 -18 c0 -5 -5 -10 -11 -10 -5 0
-7 5 -4 10 3 6 8 10 11 10 2 0 4 -4 4 -10z m2738 -15 c-3 -3 -9 2 -12 12 -6
14 -5 15 5 6 7 -7 10 -15 7 -18z m42 15 c-8 -5 -19 -10 -25 -10 -5 0 -3 5 5
10 8 5 20 10 25 10 6 0 3 -5 -5 -10z m-2590 -25 c20 -21 21 -25 6 -25 -9 0
-14 5 -11 10 3 6 -1 13 -9 16 -9 3 -16 10 -16 15 0 14 4 11 30 -16z m-43 -11
c-3 -3 -12 -4 -19 -1 -8 3 -5 6 6 6 11 1 17 -2 13 -5z m293 -26 c0 -5 -9 -4
-20 2 -11 6 -20 12 -20 14 0 2 9 2 20 -1 11 -3 20 -9 20 -15z m121 9 c-1 -12
-15 -9 -19 4 -3 6 1 10 8 8 6 -3 11 -8 11 -12z m1919 8 c0 -2 -6 -8 -13 -14
-10 -8 -14 -7 -14 2 0 8 6 14 14 14 7 0 13 -1 13 -2z m-1964 -63 c-5 -5 -66
33 -66 41 0 4 15 -3 34 -15 19 -13 33 -24 32 -26z m2044 33 c0 -8 -4 -15 -10
-15 -5 0 -7 7 -4 15 4 8 8 15 10 15 2 0 4 -7 4 -15z m-2023 -10 c0 -8 -4 -12
-9 -9 -5 3 -6 10 -3 15 9 13 12 11 12 -6z m-542 -74 c149 -28 277 -42 344 -40
47 2 65 -3 114 -31 l58 -33 -33 -20 c-234 -144 -468 -122 -656 61 -38 37 -76
81 -85 98 l-16 31 82 -23 c45 -12 132 -32 192 -43z m2460 41 c-3 -3 -11 0 -18
7 -9 10 -8 11 6 5 10 -3 15 -9 12 -12z m-1889 -8 c18 -14 18 -14 -6 -3 -31 14
-36 19 -24 19 6 0 19 -7 30 -16z m1695 -11 c13 -16 12 -17 -3 -4 -10 7 -18 15
-18 17 0 8 8 3 21 -13z m129 7 c0 -5 -5 -10 -11 -10 -5 0 -7 5 -4 10 3 6 8 10
11 10 2 0 4 -4 4 -10z m37 4 c-3 -3 -12 -4 -19 -1 -8 3 -5 6 6 6 11 1 17 -2
13 -5z m-1787 -26 c0 -11 -12 -10 -30 2 -12 7 -10 9 8 7 12 0 22 -5 22 -9z
m84 4 c3 -5 -1 -9 -9 -9 -8 0 -12 4 -9 9 3 4 7 8 9 8 2 0 6 -4 9 -8z m1581
-10 c-3 -3 -11 0 -18 7 -9 10 -8 11 6 5 10 -3 15 -9 12 -12z m-1608 -18 c-6
-6 -47 9 -47 17 0 5 11 3 25 -3 14 -6 24 -13 22 -14z m1538 6 c-3 -5 -12 -10
-18 -10 -7 0 -6 4 3 10 19 12 23 12 15 0z m-1460 -20 c-3 -5 -12 -10 -18 -10
-7 0 -6 4 3 10 19 12 23 12 15 0z m38 -7 c-3 -7 -8 -13 -12 -13 -4 0 -8 6 -8
13 0 8 6 14 13 14 7 0 10 -6 7 -14z m1322 7 c-3 -5 -12 -10 -18 -10 -7 0 -6 4
3 10 19 12 23 12 15 0z m42 4 c-3 -3 -12 -4 -19 -1 -8 3 -5 6 6 6 11 1 17 -2
13 -5z m-1137 -18 c0 -2 -7 -7 -16 -10 -8 -3 -12 -2 -9 4 6 10 25 14 25 6z
m545 -16 c10 -11 16 -20 13 -20 -3 0 -13 9 -23 20 -10 11 -16 20 -13 20 3 0
13 -9 23 -20z m430 2 c-3 -3 -11 0 -18 7 -9 10 -8 11 6 5 10 -3 15 -9 12 -12z
m62 12 c-3 -3 -12 -4 -19 -1 -8 3 -5 6 6 6 11 1 17 -2 13 -5z m-1182 -14 c3
-5 1 -10 -4 -10 -6 0 -11 5 -11 10 0 6 2 10 4 10 3 0 8 -4 11 -10z m885 -6 c0
-2 -7 -4 -15 -4 -8 0 -15 4 -15 10 0 5 7 7 15 4 8 -4 15 -8 15 -10z m180 6 c0
-5 -8 -10 -17 -10 -15 0 -16 2 -3 10 19 12 20 12 20 0z m-421 -34 c-3 -3 -11
5 -18 17 -13 21 -12 21 5 5 10 -10 16 -20 13 -22z m136 14 c10 -11 16 -20 13
-20 -3 0 -13 9 -23 20 -10 11 -16 20 -13 20 3 0 13 -9 23 -20z m-448 -5 c0 -8
-4 -12 -9 -9 -5 3 -6 10 -3 15 9 13 12 11 12 -6z m650 9 c-3 -3 -12 -4 -19 -1
-8 3 -5 6 6 6 11 1 17 -2 13 -5z m744 -23 c-39 -54 -137 -137 -207 -173 -203
-107 -466 -110 -689 -9 -37 17 -66 33 -64 35 2 2 45 6 94 10 262 20 564 74
780 140 107 32 111 32 86 -3z m-1578 12 c-7 -2 -19 -2 -25 0 -7 3 -2 5 12 5
14 0 19 -2 13 -5z m107 -9 c0 -2 -12 -4 -27 -4 -21 0 -24 3 -14 9 13 8 41 5
41 -5z m430 10 c0 -8 -19 -13 -24 -6 -3 5 1 9 9 9 8 0 15 -2 15 -3z m203 -1
c-7 -2 -19 -2 -25 0 -7 3 -2 5 12 5 14 0 19 -2 13 -5z m-135 -10 c-10 -2 -26
-2 -35 0 -10 3 -2 5 17 5 19 0 27 -2 18 -5z m-1071 -579 c-3 -3 -12 -4 -19 -1
-8 3 -5 6 6 6 11 1 17 -2 13 -5z m-1232 -13 c3 -5 0 -13 -6 -17 -7 -4 -9 -3
-5 4 3 5 0 13 -6 15 -9 4 -10 6 -1 6 6 1 14 -3 18 -8z m89 0 c4 -5 -1 -8 -9
-7 -21 3 -31 16 -12 16 9 0 18 -4 21 -9z m355 -7 c2 -2 -40 -4 -95 -4 -54 0
-110 -3 -124 -6 -19 -4 -22 -3 -10 5 11 7 -1 11 -45 14 -33 2 14 1 105 -1 91
-3 167 -6 169 -8z m718 10 c-3 -3 -12 -4 -19 -1 -8 3 -5 6 6 6 11 1 17 -2 13
-5z m-1197 -8 c0 -2 -9 -6 -20 -9 -11 -3 -18 -1 -14 4 5 9 34 13 34 5z m1120
-5 c0 -6 -5 -13 -12 -17 -6 -4 -8 -3 -4 4 3 5 0 13 -6 15 -8 3 -6 6 5 6 9 1
17 -3 17 -8z m-915 -19 c-3 -3 -11 0 -18 7 -9 10 -8 11 6 5 10 -3 15 -9 12
-12z m813 11 c-10 -2 -26 -2 -35 0 -10 3 -2 5 17 5 19 0 27 -2 18 -5z m-1074
-25 c-3 -31 -3 -30 -14 -23 -7 4 -7 13 0 26 14 25 17 24 14 -3z m893 9 c0 -8
-6 -14 -13 -14 -7 0 -10 6 -7 14 3 7 8 13 12 13 4 0 8 -6 8 -13z m122 -3 c2
-2 -10 -4 -27 -4 -18 0 -32 5 -32 10 0 9 47 4 59 -6z m196 -2 c-3 -3 -11 0
-18 7 -9 10 -8 11 6 5 10 -3 15 -9 12 -12z m-158 2 c-3 -3 -12 -4 -19 -1 -8 3
-5 6 6 6 11 1 17 -2 13 -5z m76 -14 c4 0 5 5 1 12 -5 7 -3 8 5 3 7 -4 9 -11 4
-16 -11 -11 -54 1 -47 13 4 6 10 6 17 -1 6 -6 15 -11 20 -11z m307 4 c0 -8 -5
-12 -10 -9 -6 4 -8 11 -5 16 9 14 15 11 15 -7z m-1336 -2 c3 -5 -1 -9 -9 -9
-8 0 -12 4 -9 9 3 4 7 8 9 8 2 0 6 -4 9 -8z m791 -53 c-57 -58 -134 -120 -108
-88 7 9 10 18 7 21 -3 3 0 9 7 14 8 4 10 3 5 -4 -4 -7 -4 -12 -1 -12 11 0 69
64 67 73 -1 4 5 7 13 7 8 0 22 11 32 25 10 13 22 25 28 25 5 0 -17 -27 -50
-61z m-81 32 c3 -4 -4 -17 -17 -27 l-22 -19 18 22 c18 21 18 21 0 26 -15 4
-16 5 -1 6 9 0 19 -3 22 -8z m426 -23 c0 -19 -16 -5 -17 14 -2 18 0 20 7 8 5
-8 10 -18 10 -22z m1953 25 c3 -5 -8 -8 -24 -8 -16 0 -29 3 -29 8 0 4 11 7 24
7 14 0 27 -3 29 -7z m-3033 -6 c0 -2 -10 -12 -22 -23 l-23 -19 19 23 c18 21
26 27 26 19z m587 -3 c-3 -3 -12 -4 -19 -1 -8 3 -5 6 6 6 11 1 17 -2 13 -5z
m548 -14 c-10 -11 -23 -20 -29 -19 -6 0 -6 3 2 6 6 2 9 10 6 15 -4 6 -2 8 4 4
6 -3 13 -2 17 4 3 5 9 10 12 10 3 0 -2 -9 -12 -20z m-601 1 c3 -4 -6 -6 -21
-3 -20 4 -24 2 -18 -9 5 -8 5 -11 0 -7 -4 4 -14 3 -22 -3 -18 -16 -16 -4 3 15
17 17 50 21 58 7z m2440 -12 c-3 -5 -10 -7 -15 -3 -5 3 -7 10 -3 15 3 5 10 7
15 3 5 -3 7 -10 3 -15z m-2534 1 c0 -5 -2 -10 -4 -10 -3 0 -8 5 -11 10 -3 6
-1 10 4 10 6 0 11 -4 11 -10z m137 3 c-4 -3 -1 -13 6 -22 11 -14 10 -14 -5 -2
-16 12 -16 31 -1 31 4 0 3 -3 0 -7z m2329 -5 c5 -7 3 -8 -6 -3 -10 6 -12 4 -7
-8 3 -9 3 -18 -1 -21 -4 -2 -9 6 -10 20 -2 25 12 32 24 12z m-2532 -7 c4 -5
-1 -8 -9 -7 -21 3 -31 16 -12 16 9 0 18 -4 21 -9z m2701 0 c3 -5 2 -12 -3 -15
-5 -3 -9 1 -9 9 0 17 3 19 12 6z m-2646 -22 c-15 -9 -32 -2 -24 11 3 5 13 6
21 3 12 -4 13 -8 3 -14z m-160 -12 c0 -9 -2 -8 -6 1 -2 6 -10 9 -15 6 -7 -4
-8 -2 -4 5 9 13 26 5 25 -12z m297 11 c4 -7 4 -10 -1 -6 -4 4 -14 3 -21 -3 -8
-7 -14 -6 -20 2 -4 7 -3 9 4 5 6 -3 13 -2 17 4 8 13 12 13 21 -2z m2264 4 c0
-4 -9 -8 -19 -8 -11 0 -17 4 -15 8 3 4 12 8 20 8 8 0 14 -4 14 -8z m-2890 -36
c0 -6 -5 -4 -10 4 -5 8 -10 11 -10 7 0 -5 -5 -5 -10 -2 -6 4 -8 11 -4 16 7 12
34 -8 34 -25z m-95 -16 c10 -11 16 -20 13 -20 -3 0 -13 9 -23 20 -10 11 -16
20 -13 20 3 0 13 -9 23 -20z m48 5 c-3 -9 -8 -14 -10 -11 -3 3 -2 9 2 15 9 16
15 13 8 -4z m2722 -7 c6 -4 2 -8 -7 -8 -10 0 -18 7 -18 17 0 9 3 12 8 7 4 -5
12 -12 17 -16z m-145 -8 c0 -5 -4 -10 -10 -10 -5 0 -10 5 -10 10 0 6 5 10 10
10 6 0 10 -4 10 -10z m75 -8 c-3 -3 -11 0 -18 7 -9 10 -8 11 6 5 10 -3 15 -9
12 -12z m206 -6 c8 4 10 3 5 -4 -11 -18 -24 -14 -36 11 -10 21 -10 21 4 3 8
-10 20 -15 27 -10z m337 1 c18 7 15 -2 -10 -23 -12 -10 -18 -13 -14 -6 9 16
-12 44 -27 35 -6 -4 -7 -1 -3 6 6 9 12 9 24 -2 10 -8 23 -12 30 -10z m-651 -2
c0 -8 -4 -12 -9 -9 -4 3 -8 9 -8 15 0 5 4 9 8 9 5 0 9 -7 9 -15z m-2380 -32
c-3 -10 -5 -4 -5 12 0 17 2 24 5 18 2 -7 2 -21 0 -30z m1793 27 c0 -5 -2 -10
-4 -10 -3 0 -8 5 -11 10 -3 6 -1 10 4 10 6 0 11 -4 11 -10z m77 4 c-3 -3 -12
-4 -19 -1 -8 3 -5 6 6 6 11 1 17 -2 13 -5z m468 -4 c3 -6 -1 -7 -9 -4 -18 7
-21 14 -7 14 6 0 13 -4 16 -10z m235 -5 c11 -13 10 -14 -4 -9 -9 3 -16 10 -16
15 0 13 6 11 20 -6z m-285 -5 c3 -6 -1 -7 -9 -4 -18 7 -21 14 -7 14 6 0 13 -4
16 -10z m485 0 c0 -5 -12 -10 -27 -9 l-28 1 25 8 c14 4 26 8 28 9 1 1 2 -3 2
-9z m-746 -9 c3 -4 -6 -6 -19 -3 -14 2 -25 6 -25 8 0 8 39 4 44 -5z m169 2
c-7 -2 -19 -2 -25 0 -7 3 -2 5 12 5 14 0 19 -2 13 -5z m112 -13 c-3 -5 -1 -10
6 -10 7 0 10 -3 6 -6 -9 -9 -28 6 -22 17 4 5 8 9 11 9 3 0 2 -4 -1 -10z m239
-6 c3 -9 2 -12 -5 -9 -5 4 -18 1 -27 -6 -13 -11 -12 -8 2 9 23 26 22 26 30 6z
m127 -1 c13 -16 12 -17 -3 -4 -10 7 -18 15 -18 17 0 8 8 3 21 -13z m-2317 -7
c-3 -8 5 -21 18 -30 12 -9 18 -16 12 -16 -5 0 -16 6 -22 13 -7 6 -18 12 -24
12 -6 0 -13 7 -15 15 -4 12 -3 12 5 2 7 -11 10 -11 15 2 4 9 9 16 11 16 3 0 3
-6 0 -14z m1383 -8 c-3 -8 -6 -5 -6 6 -1 11 2 17 5 13 3 -3 4 -12 1 -19z m540
7 c0 -17 -13 -20 -21 -6 -4 5 0 12 6 14 7 3 13 6 14 6 0 1 1 -6 1 -14z m708 5
c-3 -5 -12 -10 -18 -10 -7 0 -6 4 3 10 19 12 23 12 15 0z m-46 -15 c2 -3 -12
-5 -32 -5 -20 0 -38 4 -41 9 -5 8 64 4 73 -4z m-766 -8 c4 3 7 1 7 -5 0 -17
-16 -15 -31 6 -12 15 -12 16 2 5 9 -7 19 -10 22 -6z m-63 -12 c10 -12 10 -15
-2 -15 -8 0 -15 7 -15 15 0 8 1 15 2 15 2 0 8 -7 15 -15z m113 8 c-7 -2 -19
-2 -25 0 -7 3 -2 5 12 5 14 0 19 -2 13 -5z m260 -8 c-3 -9 -8 -14 -10 -11 -3
3 -2 9 2 15 9 16 15 13 8 -4z m-2449 -11 c5 -14 4 -15 -9 -4 -17 14 -19 20 -6
20 5 0 12 -7 15 -16z m2011 -12 c-3 -3 -11 0 -18 7 -9 10 -8 11 6 5 10 -3 15
-9 12 -12z m406 5 c-11 -14 -5 -27 11 -27 5 0 6 6 2 13 -4 6 -3 8 1 4 5 -4 10
-14 11 -22 2 -11 -2 -12 -16 -5 -9 5 -21 6 -25 2 -5 -4 -5 -1 -1 6 4 7 2 12
-5 12 -7 0 -4 7 7 15 24 18 30 19 15 2z m-2196 -27 c3 -5 1 -10 -4 -10 -6 0
-11 5 -11 10 0 6 2 10 4 10 3 0 8 -4 11 -10z m42 4 c-3 -3 -12 -4 -19 -1 -8 3
-5 6 6 6 11 1 17 -2 13 -5z m1677 -9 c-10 -8 -26 -14 -34 -14 -9 0 -4 6 10 14
33 19 49 19 24 0z m666 -12 c10 10 10 7 0 -12 l-13 -25 -14 28 c-8 15 -19 24
-25 20 -7 -5 -8 -2 -3 6 6 10 12 9 25 -8 13 -16 20 -18 30 -9z m-856 -7 c-3
-8 5 -24 18 -36 27 -27 3 -16 -29 13 -17 15 -20 23 -12 34 14 16 30 8 23 -11z
m589 -11 c-7 -21 -12 -19 -10 4 0 11 5 18 9 15 4 -3 5 -11 1 -19z m-466 -3
c-12 -13 -14 -21 -6 -29 8 -8 8 -16 0 -30 -11 -16 -11 -16 -6 4 3 12 1 24 -5
28 -8 5 -6 13 6 26 9 10 19 19 22 19 3 0 -2 -8 -11 -18z m398 -12 c3 -6 -1 -7
-9 -4 -18 7 -21 14 -7 14 6 0 13 -4 16 -10z m304 -26 c-6 -8 -14 -12 -17 -9
-3 3 -12 -1 -21 -7 -14 -10 -14 -10 -3 2 7 8 18 15 25 15 7 1 11 7 9 14 -1 7
2 10 8 6 8 -5 7 -11 -1 -21z m-92 -21 c-12 -13 -20 -14 -28 -6 -8 8 -6 11 7
10 13 -1 18 4 17 17 -1 13 2 15 10 7 8 -8 7 -16 -6 -28z m-410 10 c-9 -2 -15
-8 -12 -13 3 -5 2 -11 -3 -14 -4 -2 -9 4 -9 15 -1 14 4 19 20 18 17 -1 18 -2
4 -6z m-79 -33 c-7 -10 -14 -17 -17 -15 -4 4 18 35 25 35 2 0 -1 -9 -8 -20z
m562 17 c0 -2 -17 -19 -37 -38 l-38 -34 34 38 c33 34 41 42 41 34z m-174 -46
c-6 -10 18 -34 26 -26 2 3 5 -2 5 -10 0 -12 -6 -10 -23 6 -20 19 -24 39 -8 39
3 0 3 -4 0 -9z m84 -36 c0 -2 -10 -9 -22 -15 -22 -11 -22 -10 -4 4 21 17 26
19 26 11z m-452 -25 c7 -12 17 -18 22 -15 6 3 10 4 10 1 0 -16 -20 -12 -40 9
-13 14 -19 25 -14 25 5 0 15 -9 22 -20z m322 -40 c3 -1 -6 -6 -19 -11 -13 -5
-26 -7 -29 -4 -3 3 0 5 7 5 7 0 10 4 7 9 -5 8 9 8 34 1z m-223 -16 c-3 -3 -12
-4 -19 -1 -8 3 -5 6 6 6 11 1 17 -2 13 -5z m78 -4 c3 -5 -3 -10 -15 -10 -12 0
-18 5 -15 10 3 6 10 10 15 10 5 0 12 -4 15 -10z"/>
<path d="M2602 7132 c-44 -61 -48 -213 -7 -291 42 -82 149 -85 202 -5 12 18
18 54 21 114 l4 87 -52 -5 c-79 -7 -130 33 -130 103 0 33 -14 32 -38 -3z"/>
<path d="M4574 7021 c-26 -41 -29 -53 -32 -145 -3 -91 -1 -106 20 -146 30 -56
76 -83 135 -77 92 9 153 100 161 238 3 44 2 79 -2 79 -4 0 -21 -10 -37 -22
-47 -35 -118 -32 -158 6 -17 16 -37 48 -44 70 l-14 41 -29 -44z"/>
</g>
</svg>
