<?xml version="1.0" standalone="no"?>
<!DOCTYPE svg PUBLIC "-//W3C//DTD SVG 20010904//EN"
 "http://www.w3.org/TR/2001/REC-SVG-20010904/DTD/svg10.dtd">
<svg version="1.0" xmlns="http://www.w3.org/2000/svg"
 width="1000.000000pt" height="1400.000000pt" viewBox="0 0 1000.000000 1400.000000"
 preserveAspectRatio="xMidYMid meet">

<g transform="translate(0.000000,1400.000000) scale(0.100000,-0.100000)"
fill="#000000" stroke="none">
<path d="M4336 11934 c-169 -30 -366 -115 -497 -213 -135 -102 -280 -282 -346
-428 -41 -92 -83 -223 -90 -280 -3 -29 -7 -53 -8 -53 -2 0 -57 18 -122 40
-302 101 -601 105 -831 13 -225 -90 -385 -260 -460 -493 -39 -119 -51 -214
-47 -385 5 -231 44 -382 153 -600 70 -141 123 -222 204 -316 l66 -75 -49 -99
c-63 -132 -132 -342 -163 -496 -33 -166 -47 -324 -46 -539 1 -107 -3 -195 -10
-221 -7 -24 -48 -114 -91 -201 -108 -212 -131 -301 -132 -498 -1 -159 9 -226
55 -370 78 -245 216 -443 409 -587 49 -36 89 -68 89 -70 0 -2 -15 -24 -34 -49
-80 -105 -174 -329 -211 -504 -42 -198 -55 -435 -34 -610 22 -186 86 -406 168
-582 219 -469 653 -879 1147 -1084 l113 -47 16 -48 c24 -72 104 -187 171 -247
70 -63 192 -127 275 -144 l60 -12 -6 -71 c-11 -140 -16 -189 -18 -191 -3 -2
-462 20 -659 32 -115 8 -181 -6 -239 -48 -49 -35 -89 -114 -89 -176 0 -111 91
-207 204 -215 39 -2 50 -8 81 -44 57 -67 112 -88 225 -87 180 1 371 89 537
248 60 56 64 58 102 52 21 -3 81 -22 132 -42 162 -62 265 -55 348 26 80 78 77
210 -8 265 -50 33 -95 39 -187 25 -74 -11 -248 -50 -286 -65 -17 -7 -18 4 -18
133 l0 141 33 5 c147 21 185 31 256 67 67 34 151 99 151 118 0 4 40 -3 90 -16
142 -35 299 -54 520 -60 122 -3 207 -10 209 -16 9 -24 80 -93 128 -123 74 -48
190 -92 295 -112 l90 -17 -6 -59 c-3 -32 -6 -92 -6 -133 0 -41 -4 -72 -9 -69
-5 3 -53 -1 -107 -8 -127 -18 -333 -18 -426 1 -219 44 -332 5 -368 -126 -38
-143 97 -320 246 -321 37 0 43 -4 54 -30 16 -38 81 -97 134 -121 131 -57 314
-36 464 53 76 46 171 143 210 215 l32 61 36 -18 c121 -62 286 -13 346 103 29
57 30 148 1 202 -73 139 -230 153 -408 36 -33 -22 -61 -38 -63 -37 -1 2 -4 60
-7 129 l-4 126 37 6 c119 18 223 61 337 138 134 90 223 185 287 306 l33 62
100 43 c493 213 927 570 1198 987 l56 85 82 13 c226 35 456 140 522 239 60 93
60 91 54 166 -11 128 -84 389 -160 574 l-26 64 29 36 c58 73 102 203 140 407
51 276 31 569 -60 880 -40 138 -58 175 -92 195 -25 13 -31 13 -55 0 -22 -12
-31 -29 -43 -73 -8 -31 -17 -57 -20 -57 -3 0 -14 30 -24 67 -39 133 -140 312
-191 335 -37 17 -70 -2 -85 -49 -17 -53 -77 -170 -109 -212 l-26 -35 -6 64
c-5 50 -11 68 -30 82 -32 27 -53 20 -204 -70 -168 -98 -235 -135 -240 -130 -2
2 14 30 36 63 86 129 167 331 202 505 30 146 40 279 34 464 -7 210 -9 223 -48
420 -53 262 -128 494 -266 816 -148 347 -258 557 -366 698 -48 62 -50 67 -38
96 27 67 41 121 50 199 32 265 36 388 17 532 -42 316 -144 536 -334 717 -157
149 -328 218 -543 218 -246 0 -447 -92 -628 -287 -64 -69 -81 -83 -81 -65 0
42 -60 208 -107 294 -165 302 -458 513 -799 572 -100 18 -296 18 -398 0z m401
-168 c299 -63 536 -243 670 -511 36 -70 116 -315 134 -407 14 -70 24 -88 48
-88 23 1 100 74 155 147 143 190 392 323 605 323 365 -1 642 -320 690 -795 13
-124 14 -262 4 -458 l-6 -136 -26 20 c-229 177 -451 258 -821 300 -159 18
-614 16 -800 -4 -327 -36 -528 -73 -730 -134 -504 -152 -893 -398 -1231 -778
-65 -73 -261 -255 -291 -271 -95 -49 -353 42 -561 197 -297 223 -507 616 -507
949 0 210 83 451 200 582 83 94 231 173 366 197 75 14 269 15 344 2 103 -17
428 -107 445 -122 18 -18 64 -10 79 14 7 12 26 76 41 142 80 353 252 593 525
734 215 111 443 144 667 97z m1415 -1716 c568 -47 844 -227 1084 -709 66 -133
192 -433 269 -640 285 -768 293 -1321 26 -1785 -230 -400 -696 -719 -1256
-859 -254 -64 -500 -100 -980 -143 -179 -16 -332 -38 -343 -49 -29 -29 143
-46 437 -44 347 2 583 24 861 79 401 79 755 235 1012 443 l54 45 196 -133
c235 -158 318 -226 467 -380 321 -335 544 -755 632 -1191 l21 -105 -28 -30
c-108 -112 -337 -179 -709 -207 -139 -11 -418 -6 -555 8 -354 39 -694 151
-955 315 -146 92 -191 130 -381 323 -107 109 -186 182 -193 178 -17 -11 -13
-49 10 -110 79 -213 402 -503 739 -665 215 -103 416 -163 677 -203 126 -19
189 -23 420 -23 l272 0 -26 -35 c-426 -574 -1063 -950 -1853 -1094 -119 -21
-197 -31 -395 -51 -121 -11 -553 -5 -670 10 -422 55 -721 210 -928 482 -50 65
-137 223 -137 248 0 15 -21 21 -32 9 -10 -9 47 -166 90 -253 48 -96 88 -156
155 -234 l50 -58 -39 6 c-447 77 -863 262 -1175 523 -466 391 -726 989 -670
1542 23 225 69 384 172 595 79 162 67 151 125 122 157 -79 356 -126 559 -133
170 -6 258 3 263 27 2 13 -17 18 -110 28 -422 46 -728 179 -959 419 -191 197
-289 398 -320 652 -23 195 6 333 121 570 108 224 110 233 110 530 0 135 2 259
4 275 3 17 12 80 21 140 20 138 62 302 110 431 61 161 45 153 155 78 264 -180
490 -236 633 -156 41 23 71 53 142 148 173 229 377 409 660 583 439 271 919
429 1460 480 130 12 563 13 707 1z m2223 -3426 c13 -50 27 -135 31 -190 7
-109 19 -134 65 -134 38 0 73 33 113 109 39 73 38 74 60 -64 33 -203 -4 -548
-86 -805 -26 -81 -32 -92 -42 -77 -159 265 -339 488 -524 654 -156 139 -382
300 -467 333 l-30 12 60 22 c114 44 291 139 368 199 21 16 41 27 44 23 3 -3
-4 -35 -17 -72 -27 -80 -19 -114 28 -114 54 0 195 130 270 248 l47 74 28 -64
c16 -34 39 -104 52 -154z m-4410 -3543 c149 -28 277 -42 344 -40 47 2 65 -3
114 -31 l58 -33 -33 -20 c-234 -144 -468 -122 -656 61 -38 37 -76 81 -85 98
l-16 31 82 -23 c45 -12 132 -32 192 -43z m2626 -100 c-39 -54 -137 -137 -207
-173 -203 -107 -466 -110 -689 -9 -37 17 -66 33 -64 35 2 2 45 6 94 10 262 20
564 74 780 140 107 32 111 32 86 -3z m-1950 -581 c42 -23 11 -102 -47 -116
-45 -11 -137 4 -218 36 -59 23 -95 32 -139 31 l-60 0 -71 -69 c-78 -76 -130
-114 -221 -160 -193 -97 -390 -98 -440 -2 -21 41 -19 63 11 94 35 35 59 40
349 82 257 37 295 46 295 65 0 6 7 8 17 5 16 -6 118 3 313 29 122 16 187 18
211 5z m-996 -10 l120 -6 -96 -2 c-113 -2 -200 -17 -250 -42 -52 -27 -98 -83
-105 -130 -8 -47 -25 -51 -75 -17 -46 31 -62 80 -43 127 16 38 47 67 79 73 31
7 237 5 370 -3z m2822 -92 c37 -35 32 -92 -12 -134 -49 -46 -106 -54 -184 -25
-32 11 -72 21 -89 21 -28 0 -34 -7 -79 -87 -108 -196 -284 -305 -468 -291
-101 9 -171 55 -182 121 -4 30 -2 37 20 52 15 9 59 21 99 26 128 16 262 69
365 145 80 59 66 102 -21 64 -87 -37 -203 -68 -331 -90 -153 -25 -203 -49
-231 -109 l-19 -39 -37 13 c-54 18 -86 41 -108 78 -28 45 -26 98 5 127 26 25
29 25 220 0 161 -21 383 10 537 74 11 5 18 1 23 -13 13 -42 107 -43 120 -1 4
12 25 23 68 33 34 9 94 27 132 42 81 29 136 27 172 -7z"/>
<path d="M2614 8004 c-50 -18 -119 -75 -140 -116 -23 -44 -47 -223 -39 -290 8
-79 30 -148 60 -192 14 -20 25 -38 25 -40 0 -2 -32 -7 -71 -10 -130 -13 -288
-63 -274 -86 4 -6 21 -7 38 -4 40 8 364 8 397 0 14 -4 68 -9 121 -13 159 -10
208 11 136 59 l-34 22 34 33 c129 129 151 424 43 556 -70 83 -196 118 -296 81z
m200 -98 c58 -37 91 -189 66 -297 -35 -150 -127 -235 -224 -208 -64 18 -109
90 -123 200 -16 120 22 253 82 293 55 36 154 42 199 12z"/>
<path d="M2602 7802 c-44 -61 -48 -213 -7 -291 42 -82 149 -85 202 -5 12 18
18 54 21 114 l4 87 -52 -5 c-79 -7 -130 33 -130 103 0 33 -14 32 -38 -3z"/>
<path d="M4660 7941 c-160 -53 -250 -198 -250 -406 0 -98 19 -190 50 -241 l20
-31 -32 -7 c-43 -9 -118 -54 -118 -71 0 -24 61 -27 180 -11 146 20 365 20 582
0 177 -17 258 -13 258 11 0 38 -162 106 -288 120 -53 6 -62 10 -57 24 41 108
25 365 -31 473 -24 46 -75 98 -118 120 -44 23 -153 33 -196 19z m173 -109 c11
-9 29 -35 41 -57 19 -36 21 -56 21 -185 0 -131 -3 -150 -24 -200 -14 -30 -28
-59 -32 -64 -7 -8 -164 -28 -239 -30 -33 -1 -36 1 -60 59 -21 52 -25 75 -25
175 1 105 3 120 29 177 32 70 98 139 143 149 15 3 33 7 38 8 20 5 90 -16 108
-32z"/>
<path d="M4574 7691 c-26 -41 -29 -53 -32 -145 -3 -91 -1 -106 20 -146 30 -56
76 -83 135 -77 92 9 153 100 161 238 3 44 2 79 -2 79 -4 0 -21 -10 -37 -22
-47 -35 -118 -32 -158 6 -17 16 -37 48 -44 70 l-14 41 -29 -44z"/>
<path d="M3105 7186 c-82 -19 -148 -49 -219 -100 -162 -116 -235 -254 -174
-331 20 -26 109 -75 136 -75 7 0 36 -22 63 -49 58 -57 177 -122 269 -147 36
-9 103 -17 151 -18 74 0 93 3 143 28 89 43 145 135 132 214 -4 20 -8 75 -9
122 -2 72 -7 95 -34 152 -39 83 -106 151 -181 185 -70 32 -187 39 -277 19z
m231 -106 c127 -73 210 -248 147 -311 -59 -59 -329 -50 -564 19 -125 36 -127
46 -26 147 79 80 167 130 277 159 81 21 109 19 166 -14z m130 -475 c-46 -71
-276 -61 -431 18 l-44 22 217 0 c135 0 226 5 242 12 22 9 25 8 28 -9 2 -10 -4
-30 -12 -43z"/>
<path d="M5561 431 c-18 -12 -9 -45 13 -49 17 -4 35 12 36 30 0 13 -36 27 -49
19z"/>
<path d="M7192 424 c-14 -10 -22 -25 -22 -45 0 -19 -5 -29 -15 -29 -8 0 -15
-9 -15 -20 0 -11 7 -20 15 -20 12 0 15 -14 15 -70 0 -68 1 -70 25 -70 24 0 25
2 25 70 0 63 2 70 20 70 13 0 20 7 20 20 0 14 -7 20 -21 20 -30 0 -22 44 9 48
14 2 22 10 22 23 0 24 -45 26 -78 3z"/>
<path d="M7837 434 c-4 -4 -7 -65 -7 -136 l0 -128 28 0 c27 0 28 1 27 53 -1
65 9 89 38 85 20 -3 22 -10 25 -70 3 -65 4 -68 27 -68 24 0 25 2 25 73 0 44
-5 80 -13 91 -14 19 -47 23 -82 12 -19 -7 -20 -4 -18 38 1 25 -1 46 -6 46 -5
0 -16 2 -23 5 -8 3 -17 2 -21 -1z"/>
<path d="M8055 427 c-10 -8 -14 -19 -9 -30 9 -25 48 -18 52 9 4 26 -20 37 -43
21z"/>
<path d="M6661 412 c-52 -26 -75 -63 -75 -120 0 -64 30 -108 84 -122 57 -15
104 -1 108 32 3 26 2 26 -26 16 -86 -33 -147 77 -81 143 17 17 30 20 65 16 41
-4 44 -3 44 18 0 39 -61 47 -119 17z"/>
<path d="M5652 295 l-1 -125 30 0 c28 0 29 1 29 50 l0 50 50 0 50 0 1 -35 c1
-19 2 -41 3 -47 0 -7 13 -14 29 -16 l27 -3 0 126 0 126 -27 -3 c-26 -3 -28 -7
-31 -50 l-3 -48 -50 0 -49 0 0 50 c0 48 -1 50 -29 50 l-28 0 -1 -125z"/>
<path d="M7600 400 c0 -17 7 -20 40 -20 l40 0 0 -105 0 -105 25 0 25 0 0 105
0 105 35 0 c28 0 35 4 35 20 0 19 -7 20 -100 20 -93 0 -100 -1 -100 -20z"/>
<path d="M6483 393 c-7 -2 -13 -13 -13 -24 0 -10 -7 -19 -15 -19 -8 0 -15 -9
-15 -20 0 -11 7 -20 15 -20 11 0 15 -12 15 -49 0 -27 3 -57 6 -66 8 -21 45
-35 73 -28 27 7 27 33 1 40 -19 5 -22 17 -22 68 0 30 2 35 20 35 11 0 18 8 19
20 1 14 -4 20 -18 20 -14 0 -19 7 -19 25 0 25 -16 31 -47 18z"/>
<path d="M7317 393 c-4 -3 -7 -15 -7 -25 0 -10 -7 -18 -15 -18 -8 0 -15 -9
-15 -20 0 -11 7 -20 15 -20 10 0 15 -16 17 -62 3 -57 6 -64 30 -75 32 -16 58
-8 58 18 0 10 -3 18 -7 18 -28 -4 -33 4 -33 51 0 43 3 50 20 50 13 0 20 7 20
20 0 13 -7 20 -20 20 -15 0 -20 7 -20 25 0 18 -5 25 -18 25 -10 0 -22 -3 -25
-7z"/>
<path d="M5975 350 c-57 -23 -82 -114 -42 -158 33 -36 128 -36 135 0 3 13 -4
15 -35 11 -28 -4 -42 -1 -52 11 -20 24 -7 30 49 27 l50 -2 0 34 c0 58 -54 98
-105 77z m53 -53 c3 -13 -3 -17 -27 -17 -33 0 -39 8 -19 28 17 17 42 11 46
-11z"/>
<path d="M6150 351 c-15 -4 -26 -15 -28 -28 -3 -20 -1 -21 26 -11 33 13 66 4
60 -15 -3 -6 -13 -13 -24 -15 -50 -7 -64 -14 -75 -33 -27 -52 29 -106 77 -74
13 8 24 11 24 5 0 -5 11 -10 25 -10 24 0 25 2 25 73 0 58 -4 77 -17 90 -23 20
-61 27 -93 18z m47 -139 c-19 -18 -50 -8 -45 15 4 22 52 35 56 15 2 -8 -3 -21
-11 -30z"/>
<path d="M6382 344 c-13 -9 -22 -11 -22 -5 0 6 -11 11 -25 11 -25 0 -25 -1
-25 -90 0 -89 0 -90 25 -90 23 0 25 3 25 51 0 63 13 89 45 89 27 0 33 21 12
38 -10 9 -19 7 -35 -4z"/>
<path d="M6916 353 c-3 -3 -26 -5 -51 -5 l-45 2 0 -90 0 -90 29 0 c28 0 29 1
30 56 0 60 12 84 42 84 12 0 19 7 19 19 0 21 -13 34 -24 24z"/>
<path d="M7005 353 c-54 -14 -60 -46 -7 -37 28 4 41 2 51 -10 11 -13 9 -16
-16 -21 -52 -11 -78 -29 -81 -58 -6 -50 36 -76 82 -51 14 7 26 9 26 3 0 -5 11
-9 25 -9 24 0 25 2 25 69 0 51 -5 74 -17 89 -19 23 -56 33 -88 25z m45 -133
c-14 -26 -45 -22 -45 5 0 12 9 21 25 25 30 7 35 -1 20 -30z"/>
<path d="M8245 352 c-11 -2 -26 -9 -32 -14 -9 -7 -13 -7 -13 1 0 6 -14 11 -30
11 l-31 0 3 -90 3 -90 27 0 c26 0 27 2 30 68 3 64 4 67 28 67 24 0 25 -3 28
-67 3 -67 3 -68 32 -68 28 0 28 0 28 63 -1 95 -22 130 -73 119z"/>
<path d="M8404 350 c-33 -13 -54 -50 -54 -93 0 -74 45 -111 101 -83 33 16 39
4 16 -29 -11 -14 -23 -17 -60 -13 -41 5 -47 3 -47 -14 0 -20 32 -36 65 -33 11
1 27 3 36 4 9 0 28 13 43 27 25 25 26 32 26 130 l0 104 -25 0 c-14 0 -25 -5
-25 -11 0 -5 -10 -3 -22 5 -25 18 -25 18 -54 6z m72 -65 c3 -14 3 -36 0 -50
-5 -19 -13 -25 -35 -25 -30 0 -41 14 -41 54 0 48 64 66 76 21z"/>
<path d="M8622 352 c-12 -2 -29 -14 -38 -27 -20 -31 -5 -62 42 -81 47 -20 38
-40 -15 -37 -48 2 -58 -21 -15 -37 50 -19 114 13 114 56 0 17 -11 29 -40 44
-52 26 -55 55 -5 47 30 -5 35 -3 35 14 0 10 -6 19 -12 20 -7 0 -20 2 -28 3 -8
1 -25 0 -38 -2z"/>
<path d="M8883 345 c-17 -8 -36 -22 -42 -34 -17 -31 -13 -86 9 -113 32 -42
120 -47 120 -7 0 13 -9 19 -36 21 -46 4 -62 26 -48 65 8 23 16 29 47 31 29 3
37 7 37 23 0 10 -6 19 -12 20 -7 0 -20 2 -29 4 -8 1 -29 -3 -46 -10z"/>
<path d="M9052 345 c-34 -15 -52 -48 -52 -95 0 -57 62 -95 127 -78 41 11 63
42 63 90 0 71 -70 113 -138 83z m84 -60 c3 -14 3 -36 0 -50 -5 -20 -13 -25
-36 -25 -39 0 -59 37 -42 75 16 36 69 36 78 0z"/>
<path d="M9308 345 c-16 -7 -28 -10 -28 -4 0 5 -11 9 -25 9 -25 0 -25 -1 -25
-90 0 -89 0 -90 25 -90 24 0 25 3 25 54 0 70 7 86 36 86 22 0 24 -4 25 -47 1
-27 0 -58 -1 -70 -1 -19 4 -23 29 -23 l30 0 3 68 c3 64 4 67 28 67 24 0 25 -3
28 -67 3 -65 4 -68 28 -68 25 0 25 0 22 82 -3 79 -4 83 -30 96 -23 11 -32 10
-56 -2 -16 -8 -33 -11 -38 -7 -19 18 -50 20 -76 6z"/>
<path d="M5550 260 l0 -90 30 0 30 0 0 90 0 90 -30 0 -30 0 0 -90z"/>
<path d="M7410 347 c0 -2 16 -42 35 -90 38 -93 36 -127 -5 -127 -13 0 -20 -7
-20 -19 0 -27 13 -33 47 -21 35 13 46 30 83 128 15 42 33 89 39 105 10 26 9
27 -18 27 -26 0 -30 -4 -40 -48 -20 -79 -27 -82 -46 -14 -16 58 -20 62 -46 62
-16 0 -29 -1 -29 -3z"/>
<path d="M8050 260 c0 -89 0 -90 25 -90 25 0 25 1 25 90 0 89 0 90 -25 90 -25
0 -25 -1 -25 -90z"/>
<path d="M8747 213 c-12 -11 -7 -41 7 -46 21 -8 50 17 43 37 -6 16 -38 22 -50
9z"/>
</g>
</svg>
